<svg width="24" height="24" viewBox="0 0 24 24" fill="none" xmlns="http://www.w3.org/2000/svg">
<path d="M13.012 18.7325V16.8147C14.7793 16.5536 15.8695 15.4809 15.8695 13.9878C15.8782 11.9522 14.1429 11.4271 12.7488 11.0045C11.7073 10.6896 10.8099 10.4176 10.8099 9.64962C10.8099 9.14853 11.3139 8.84817 12.1604 8.84817C12.9509 8.84817 13.9459 9.16453 14.8229 9.69399L14.9895 9.79581L15.7968 8.08308L15.6709 7.99872C14.9371 7.50344 13.9757 7.16162 13.0113 7.04744V5.26562L11.4782 5.28599V7.06563C9.74876 7.30708 8.68113 8.34272 8.68113 9.79726C8.68113 11.7965 10.404 12.2976 11.788 12.7005C12.8455 13.0089 13.7589 13.2744 13.7589 14.0685C13.7589 14.9376 12.6513 15.0314 12.1735 15.0314C11.1749 15.0314 10.0033 14.5245 9.11385 13.7085L8.94222 13.55L8.09131 15.2482L8.18876 15.3384C9.10285 16.1668 10.2524 16.6897 11.4775 16.8344V18.7318L13.012 18.7325Z" fill="#2C7CAC"/>
<path d="M23.5536 12.4913L22.8366 11.2295L22.1224 9.96988L21.4053 8.70879C21.2089 8.36188 20.8867 8.36188 20.6911 8.70879L19.974 9.96988L19.2598 11.2295L18.5427 12.4913C18.3456 12.8375 18.5107 13.1212 18.9093 13.1212H19.6526C19.6147 14.2572 19.2373 17.1466 16.5086 19.2775C14.1333 21.0462 11.6722 20.8739 11.5144 20.8724C8.26855 20.9139 5.86273 18.5088 5.86273 18.5088L5.81764 18.4695C5.70046 18.3697 5.54956 18.3184 5.39582 18.3262C5.24208 18.3339 5.09712 18.4001 4.99057 18.5112C4.88402 18.6223 4.82394 18.7699 4.82262 18.9239C4.8213 19.0778 4.87884 19.2264 4.98346 19.3393C4.98346 19.3393 7.3871 22.1037 10.95 22.5422C13.782 22.8302 15.3638 22.1619 15.7224 22.0477C16.0809 21.9335 18.39 21.023 20.1427 18.911C22.0227 16.6302 22.382 14.0375 22.4511 13.1204H23.19C23.5856 13.1212 23.7507 12.8368 23.5536 12.4913ZM5.09473 10.8753H4.35001C4.3871 9.73933 4.76528 6.84988 7.49401 4.71897C9.86855 2.95024 12.3296 3.12261 12.4882 3.12406C15.7333 3.08261 18.1398 5.4877 18.1398 5.4877L18.1849 5.52697C18.3023 5.6255 18.4527 5.6757 18.6057 5.6674C18.7587 5.6591 18.9029 5.59292 19.0089 5.48228C19.1149 5.37164 19.1749 5.22482 19.1766 5.07159C19.1784 4.91836 19.1218 4.7702 19.0184 4.65715C19.0184 4.65715 16.6147 1.89279 13.0526 1.45424C10.2206 1.16624 8.63946 1.83461 8.28019 1.94879C7.92383 2.06152 5.61328 2.97279 3.86201 5.08479C1.98128 7.36552 1.62201 9.95824 1.55292 10.8753H0.81328C0.415462 10.8753 0.251098 11.1597 0.446735 11.5052L1.16383 12.767L1.87946 14.0266L2.5951 15.2877C2.79219 15.6346 3.11364 15.6346 3.31073 15.2877L4.02637 14.0266L4.74201 12.767L5.4591 11.5052C5.65692 11.1597 5.49255 10.8753 5.09473 10.8753Z" fill="#2C7CAC"/>
</svg>
