<svg width="25" height="25" viewBox="0 0 25 25" fill="none" xmlns="http://www.w3.org/2000/svg">
<path d="M24.9851 11.9298C24.9766 11.7513 24.9105 11.5804 24.7967 11.4426C24.6829 11.3049 24.5275 11.2077 24.3539 11.1656L22.9205 10.8047C22.8098 10.1034 22.6269 9.41539 22.3746 8.75171L23.4347 7.72583C23.5632 7.60077 23.6484 7.43783 23.6776 7.26087C23.7069 7.08391 23.6787 6.90223 23.5972 6.74246C23.4239 6.40862 23.2358 6.08273 23.0334 5.76575C22.9352 5.61596 22.792 5.50129 22.6243 5.43836C22.4566 5.37544 22.2733 5.36751 22.1008 5.41573L20.7966 5.78867C20.7174 5.81117 20.677 5.81117 20.672 5.81575C20.2252 5.26884 19.7237 4.769 19.1753 4.32402L19.5828 2.89854C19.6316 2.72597 19.624 2.54231 19.561 2.37439C19.4981 2.20647 19.3831 2.06308 19.2328 1.96516C18.9164 1.76279 18.5911 1.57481 18.2578 1.4018C18.0979 1.32004 17.916 1.2917 17.7389 1.32095C17.5617 1.3502 17.3986 1.4355 17.2735 1.56431C17.2381 1.59806 16.2443 2.63686 16.2414 2.61852C15.5789 2.36974 14.8924 2.19003 14.193 2.08225L13.8338 0.645519C13.7917 0.472209 13.6947 0.317148 13.5573 0.203459C13.4199 0.0897708 13.2494 0.0235452 13.0713 0.0146581C12.6912 -0.00488602 12.3104 -0.00488602 11.9304 0.0146581C11.7519 0.0232194 11.581 0.0893462 11.4433 0.203143C11.3055 0.316939 11.2083 0.472286 11.1662 0.645936L10.8053 2.07933C10.104 2.18997 9.41601 2.3729 8.75233 2.62519L7.72645 1.56514C7.60139 1.43657 7.43845 1.35143 7.26149 1.32219C7.08453 1.29294 6.90285 1.32114 6.74308 1.40264C6.41056 1.57473 6.08221 1.76432 5.76637 1.96641C5.61637 2.06426 5.50152 2.20744 5.43856 2.3751C5.37561 2.54276 5.36782 2.72614 5.41635 2.89854C5.42802 2.9452 5.83387 4.33568 5.81637 4.32735C5.26946 4.77416 4.76962 5.27568 4.32464 5.82408L2.89916 5.41657C2.72658 5.36788 2.54297 5.37558 2.37508 5.43854C2.20719 5.5015 2.06379 5.61643 1.96578 5.76658C1.76341 6.08295 1.57543 6.40829 1.40242 6.74162C1.32039 6.90141 1.29191 7.08334 1.32117 7.26056C1.35043 7.43778 1.43589 7.60089 1.56493 7.72583C1.61743 7.78084 2.60123 8.71755 2.61914 8.75755C2.3704 9.42024 2.1907 10.1068 2.08287 10.8064L0.646139 11.1656C0.472828 11.2077 0.317767 11.3047 0.204079 11.4421C0.09039 11.5795 0.0241644 11.75 0.0152773 11.9281C-0.00509243 12.3081 -0.00509243 12.689 0.0152773 13.069C0.0238386 13.2475 0.0899654 13.4184 0.203762 13.5561C0.317559 13.6939 0.472905 13.7911 0.646555 13.8332L2.07995 14.194C2.19059 14.8954 2.37352 15.5834 2.62581 16.247L1.56618 17.2725C1.43714 17.3973 1.35158 17.5603 1.3221 17.7374C1.29262 17.9145 1.32078 18.0964 1.40242 18.2563C1.57493 18.5888 1.76494 18.9172 1.96661 19.233C2.06485 19.3827 2.20813 19.4973 2.37576 19.5602C2.54339 19.6231 2.72669 19.6311 2.89916 19.583L4.20338 19.2101C4.28255 19.1876 4.32297 19.1876 4.32797 19.183C4.77478 19.7299 5.2763 20.2298 5.8247 20.6747L5.41718 22.1002C5.36837 22.2728 5.376 22.4564 5.43897 22.6244C5.50194 22.7923 5.61695 22.9357 5.7672 23.0336C6.08221 23.2353 6.41056 23.4249 6.74224 23.597C6.90202 23.6791 7.08396 23.7076 7.2612 23.6783C7.43843 23.649 7.60155 23.5636 7.72645 23.4345C7.78146 23.3819 8.71816 22.3982 8.75817 22.3802C9.42085 22.629 10.1074 22.8087 10.807 22.9165L11.1662 24.3532C11.2083 24.5266 11.3053 24.6816 11.4427 24.7953C11.5801 24.909 11.7506 24.9752 11.9287 24.9841C12.3087 25.0045 12.6896 25.0045 13.0696 24.9841C13.2481 24.9755 13.419 24.9094 13.5567 24.7956C13.6945 24.6818 13.7917 24.5265 13.8338 24.3528L14.1947 22.9194C14.896 22.8088 15.584 22.6259 16.2477 22.3736L17.2735 23.4336C17.3985 23.5623 17.5615 23.6475 17.7385 23.6768C17.9155 23.706 18.0972 23.6778 18.2569 23.5961C18.5894 23.424 18.9178 23.2344 19.2336 23.0323C19.3836 22.9345 19.4985 22.7913 19.5614 22.6237C19.6244 22.456 19.6322 22.2726 19.5836 22.1002C19.572 22.0536 19.1661 20.6631 19.1836 20.6714C19.7304 20.2245 20.2303 19.723 20.6754 19.1747L22.1008 19.5822C22.2734 19.6311 22.4571 19.6236 22.6251 19.5606C22.793 19.4976 22.9364 19.3825 23.0342 19.2322C23.2359 18.9172 23.4255 18.5888 23.5976 18.2571C23.6796 18.0973 23.7081 17.9154 23.6788 17.7382C23.6496 17.561 23.5641 17.3979 23.4351 17.2729C23.3826 17.2179 22.3988 16.2812 22.3809 16.2412C22.6296 15.5785 22.8093 14.8919 22.9171 14.1924L24.3534 13.8332H24.3539C24.5272 13.7911 24.6822 13.6941 24.7959 13.5567C24.9096 13.4193 24.9758 13.2488 24.9847 13.0707C25.0051 12.6906 25.0055 12.3098 24.9851 11.9298ZM12.5 19.9997C11.0166 19.9997 9.56646 19.5598 8.33304 18.7357C7.09961 17.9115 6.13828 16.7401 5.57059 15.3696C5.00291 13.9991 4.85438 12.4911 5.14378 11.0361C5.43319 9.58122 6.14752 8.24478 7.19646 7.19584C8.2454 6.1469 9.58183 5.43257 11.0368 5.14316C12.4917 4.85376 13.9997 5.00229 15.3703 5.56998C16.7408 6.13766 17.9122 7.09899 18.7363 8.33242C19.5604 9.56584 20.0003 11.016 20.0003 12.4994C19.9981 14.4879 19.2072 16.3944 17.8011 17.8005C16.395 19.2066 14.4885 19.9975 12.5 19.9997Z" fill="#2C7CAC"/>
<path d="M16.3452 9.02161C15.7273 8.9566 14.4827 8.63492 13.0918 7.20736C12.9334 7.05311 12.7211 6.9668 12.5001 6.9668C12.279 6.9668 12.0667 7.05311 11.9084 7.20736C10.5171 8.63492 9.27284 8.9566 8.65489 9.02161C8.45107 9.04351 8.26265 9.14035 8.12621 9.29335C7.98977 9.44634 7.91504 9.64457 7.91653 9.84956V12.2376C7.91653 15.5986 12.1405 17.6587 12.3201 17.7449C12.3763 17.7717 12.4378 17.7857 12.5001 17.7857C12.5624 17.7857 12.6239 17.7717 12.6801 17.7449C12.8597 17.6587 17.0836 15.5986 17.0836 12.2376V9.84956C17.0851 9.64457 17.0104 9.44634 16.8739 9.29335C16.7375 9.14035 16.5491 9.04351 16.3452 9.02161ZM14.5685 11.1725L12.3834 14.081C12.3474 14.1284 12.3018 14.1675 12.2495 14.1959C12.1972 14.2242 12.1395 14.2411 12.0802 14.2455C12.0209 14.2498 11.9613 14.2415 11.9055 14.221C11.8496 14.2006 11.7988 14.1685 11.7563 14.1268L10.4708 12.8484C10.3947 12.7701 10.3523 12.6649 10.353 12.5557C10.3536 12.4464 10.3971 12.3417 10.4742 12.2642C10.5512 12.1868 10.6556 12.1426 10.7649 12.1414C10.8742 12.1401 10.9795 12.1819 11.0583 12.2576L12.0046 13.198L13.9022 10.6721C13.9686 10.5837 14.0673 10.5253 14.1768 10.5097C14.2862 10.4941 14.3974 10.5226 14.4858 10.589C14.5742 10.6553 14.6326 10.7541 14.6482 10.8635C14.6638 10.973 14.6349 11.0841 14.5685 11.1725Z" fill="#2C7CAC"/>
</svg>
