<svg width="50" height="50" viewBox="0 0 50 50" fill="none" xmlns="http://www.w3.org/2000/svg">
<path d="M42.6865 7.31454C32.9317 -2.43818 17.0677 -2.43818 7.31293 7.31454C-2.43764 17.0673 -2.43764 32.9354 7.31293 42.6881C12.1903 47.5635 18.5955 50 25.0008 50C31.4061 50 37.8091 47.5634 42.6865 42.6881C52.4392 32.9355 52.4392 17.0673 42.6865 7.31454ZM35.3162 32.3706C36.1311 33.1855 36.1311 34.5029 35.3162 35.3178C35.1229 35.5116 34.8932 35.6654 34.6403 35.7702C34.3874 35.875 34.1163 35.9288 33.8425 35.9286C33.5688 35.9288 33.2977 35.875 33.0448 35.7702C32.7919 35.6654 32.5622 35.5116 32.3689 35.3178L25.0007 27.9475L17.6346 35.3157C17.2437 35.7065 16.7137 35.9261 16.1609 35.9264C15.8872 35.9267 15.6161 35.8728 15.3632 35.768C15.1103 35.6632 14.8806 35.5095 14.6872 35.3157C13.8723 34.5007 13.8723 33.1813 14.6872 32.3684L22.0534 25.0003L14.6852 17.6321C13.8702 16.8171 13.8702 15.4978 14.6852 14.6849C15.4981 13.8699 16.8175 13.8699 17.6324 14.6849L25.0006 22.053L32.3688 14.6849C33.1837 13.8699 34.5011 13.8699 35.316 14.6849C36.131 15.4978 36.131 16.8171 35.316 17.6321L27.9478 25.0003L35.3162 32.3706Z" fill="#2C7CAC"/>
</svg>
