<svg width="20" height="20" viewBox="0 0 20 20" fill="none" xmlns="http://www.w3.org/2000/svg">
<g clip-path="url(#clip0_326_1490)">
<path d="M3.59929 4.10257C3.59929 3.29116 3.83992 2.49797 4.29076 1.8233C4.74159 1.14864 5.38238 0.622804 6.13209 0.312291C6.8818 0.00177756 7.70676 -0.0794669 8.50265 0.0788315C9.29854 0.23713 10.0296 0.627861 10.6034 1.20161C11.1772 1.77537 11.568 2.50638 11.7263 3.3022C11.8846 4.09801 11.8034 4.9229 11.4928 5.67255C11.1823 6.42219 10.6564 7.06293 9.98167 7.51372C9.30695 7.96452 8.51369 8.20513 7.70221 8.20513C6.61405 8.20513 5.57045 7.7729 4.80101 7.00352C4.03156 6.23414 3.59929 5.19063 3.59929 4.10257ZM13.9058 11.9795C13.8924 11.8848 13.8464 11.7977 13.7756 11.7333C13.2372 11.2292 12.6028 10.8386 11.9103 10.5848C11.2177 10.3311 10.4811 10.2194 9.74444 10.2564H5.64152C1.47705 10.2564 0 13.3026 0 15.918C0 18.2564 1.24113 19.4872 3.59006 19.4872H8.92386C8.96431 19.4883 9.00453 19.4807 9.04172 19.4647C9.07892 19.4488 9.1122 19.425 9.13926 19.3949C9.19632 19.3354 9.22923 19.2568 9.23158 19.1744V17.4359C9.23193 17.028 9.39427 16.637 9.6829 16.3487L13.8166 12.1949C13.8726 12.137 13.9045 12.06 13.9058 11.9795ZM10.7702 17.4359V20H13.3345L17.9903 15.3651L15.4065 12.7815L10.7702 17.4359ZM19.7022 12.2164L18.5534 11.0677C18.3612 10.8767 18.1013 10.7694 17.8303 10.7694C17.5593 10.7694 17.2993 10.8767 17.1071 11.0677L16.1235 12.0626L18.7073 14.6462L19.7022 13.6626C19.893 13.4704 20 13.2107 20 12.94C20 12.6693 19.893 12.4085 19.7022 12.2164Z" fill="#2C7CAC"/>
</g>
<defs>
<clipPath id="clip0_326_1490">
<rect width="20" height="20" fill="white"/>
</clipPath>
</defs>
</svg>
