<svg width="500" height="500" viewBox="0 0 500 500" fill="none" xmlns="http://www.w3.org/2000/svg">
<rect width="500" height="500" rx="250" fill="#F7F7F7"/>
<path d="M250.02 256.669C299.449 256.669 339.855 216.264 339.855 166.835C339.855 117.406 299.449 77 250.02 77C200.591 77 160.186 117.406 160.186 166.835C160.186 216.264 200.592 256.669 250.02 256.669ZM404.191 328.458C401.837 322.574 398.699 317.082 395.168 311.982C377.123 285.306 349.271 267.653 317.887 263.338C313.965 262.946 309.65 263.73 306.511 266.084C290.035 278.245 270.42 284.521 250.021 284.521C229.621 284.521 210.007 278.245 193.531 266.084C190.392 263.73 186.077 262.553 182.154 263.338C150.771 267.653 122.526 285.306 104.874 311.982C101.343 317.082 98.2044 322.966 95.8512 328.458C94.6745 330.812 95.0665 333.558 96.2431 335.912C99.3817 341.404 103.304 346.897 106.835 351.604C112.327 359.058 118.211 365.726 124.88 372.003C130.372 377.494 136.649 382.594 142.926 387.694C173.917 410.84 211.185 423 249.629 423C288.073 423 325.341 410.839 356.332 387.694C362.608 382.987 368.885 377.494 374.377 372.003C380.654 365.726 386.93 359.057 392.423 351.604C396.346 346.504 399.877 341.404 403.015 335.912C404.975 333.558 405.367 330.811 404.191 328.458Z" fill="#B0B0B0"/>
</svg>
