<svg width="26" height="28" viewBox="0 0 26 28" fill="none" xmlns="http://www.w3.org/2000/svg">
<path d="M12.5503 13.6318C16.3146 13.6318 19.3662 10.5802 19.3662 6.8159C19.3662 3.05158 16.3146 0 12.5503 0C8.78596 0 5.73438 3.05158 5.73438 6.8159C5.73438 10.5802 8.78596 13.6318 12.5503 13.6318Z" fill="#2C7CAC"/>
<path d="M24.7042 21.6L24.5177 21.1408C23.8908 19.5658 22.8129 18.211 21.4191 17.2461C20.0254 16.2812 18.3778 15.7492 16.683 15.7168H8.43214C6.73729 15.7492 5.08972 16.2812 3.69597 17.2461C2.30223 18.211 1.22434 19.5658 0.597442 21.1408L0.396552 21.5856C0.0836255 22.3038 -0.0473518 23.0881 0.0152214 23.8691C0.0777946 24.65 0.331987 25.4034 0.755283 26.0626C1.09997 26.6255 1.58275 27.091 2.15783 27.415C2.73291 27.7389 3.38122 27.9106 4.04126 27.9137H21.0451C21.7071 27.9103 22.3573 27.7387 22.9346 27.4148C23.512 27.091 23.9975 26.6257 24.3455 26.0626C24.7652 25.4046 25.0173 24.6538 25.0798 23.8759C25.1424 23.098 25.0134 22.3166 24.7042 21.6Z" fill="#2C7CAC"/>
</svg>
