<svg width="23" height="24" viewBox="0 0 23 24" fill="none" xmlns="http://www.w3.org/2000/svg">
<path fill-rule="evenodd" clip-rule="evenodd" d="M21.3467 14.3081C20.6071 13.882 20.1478 13.0882 20.1478 12.2356C20.1478 11.3834 20.6071 10.5897 21.3446 10.164C22.1015 9.7289 22.4163 8.82476 22.0928 8.0144C21.6874 6.99077 21.1354 6.03468 20.4562 5.17232C19.9149 4.48573 18.9748 4.30592 18.2179 4.74386C17.4805 5.17232 16.5618 5.17361 15.8222 4.74708C15.0848 4.32055 14.6276 3.52551 14.6298 2.67139C14.6298 1.79762 14.0044 1.07247 13.1398 0.947407C12.0514 0.789897 10.9459 0.790981 9.85784 0.950628C8.99529 1.07656 8.36999 1.8013 8.37211 2.67332C8.37211 3.52638 7.91493 4.32096 7.1775 4.74708C6.43785 5.17315 5.52143 5.17228 4.78183 4.74427C4.02498 4.30633 3.08482 4.48702 2.54358 5.17361C2.20464 5.60449 1.89694 6.05906 1.62283 6.53382C1.34897 7.00802 1.10961 7.50504 0.90693 8.01026C0.581303 8.82191 0.896163 9.72733 1.65301 10.1636C2.39266 10.5892 2.85195 11.3834 2.85195 12.2356C2.85195 13.0878 2.39266 13.8813 1.65518 14.3076C0.898326 14.7428 0.583511 15.6465 0.90693 16.4566C1.31165 17.4784 1.86298 18.4359 2.54358 19.2988C3.08482 19.9854 4.02498 20.1653 4.78183 19.7273C5.51931 19.2988 6.4379 19.298 7.1775 19.7241C7.91493 20.1506 8.37211 20.9457 8.37211 21.7998C8.36994 22.6733 8.99741 23.3985 9.85995 23.5238C10.3991 23.6019 10.9432 23.6411 11.4879 23.6411C12.04 23.6411 12.592 23.601 13.1419 23.5205C14.0044 23.3944 14.6297 22.6703 14.6297 21.7983C14.6275 20.9448 15.0847 20.1502 15.8221 19.7241C16.5617 19.298 17.4782 19.2989 18.2178 19.7269C18.9747 20.1648 19.9148 19.9846 20.4561 19.2976C20.7948 18.8667 21.1025 18.4123 21.3768 17.9378C21.6485 17.4636 21.8922 16.9665 22.0927 16.4609C22.4184 15.6493 22.1036 14.7436 21.3467 14.3081ZM14.4335 13.9298C13.9829 14.7135 13.2519 15.2743 12.3764 15.5085C11.5031 15.7427 10.5888 15.6226 9.80607 15.1697C8.18884 14.2356 7.63251 12.1597 8.56619 10.5414C9.19153 9.45586 10.3344 8.84823 11.5053 8.84823C12.081 8.84823 12.6611 8.99399 13.1937 9.30149C14.8109 10.2354 15.3672 12.3119 14.4335 13.9298Z" fill="#5A9FC9"/>
</svg>
