<svg width="17" height="19" viewBox="0 0 17 19" fill="none" xmlns="http://www.w3.org/2000/svg">
<path d="M1.30839 5.56641L2.29435 17.4687C2.365 18.327 3.09613 19 3.95774 19H13.0423C13.9039 19 14.635 18.327 14.7057 17.4687L15.6916 5.56641H1.30839ZM5.71628 16.7734C5.42489 16.7734 5.17975 16.5468 5.16127 16.2516L4.60463 7.2711C4.58559 6.96398 4.81879 6.6998 5.12538 6.68076C5.44338 6.65846 5.69616 6.8944 5.71572 7.20152L6.27236 16.182C6.29207 16.5 6.04043 16.7734 5.71628 16.7734ZM9.05664 16.2168C9.05664 16.5245 8.80767 16.7734 8.5 16.7734C8.19233 16.7734 7.94336 16.5245 7.94336 16.2168V7.23633C7.94336 6.92865 8.19233 6.67969 8.5 6.67969C8.80767 6.67969 9.05664 6.92865 9.05664 7.23633V16.2168ZM12.3954 7.27114L11.8387 16.2516C11.8204 16.5438 11.5769 16.7873 11.2484 16.7724C10.9418 16.7533 10.7086 16.4891 10.7276 16.182L11.2843 7.20156C11.3033 6.89444 11.5724 6.671 11.8746 6.6808C12.1812 6.69984 12.4144 6.96402 12.3954 7.27114ZM15.7363 2.22656H12.3965V1.66992C12.3965 0.74909 11.6474 0 10.7266 0H6.27344C5.35261 0 4.60352 0.74909 4.60352 1.66992V2.22656H1.26367C0.648807 2.22656 0.150391 2.72498 0.150391 3.33984C0.150391 3.95463 0.648807 4.45312 1.26367 4.45312H15.7363C16.3512 4.45312 16.8496 3.95463 16.8496 3.33984C16.8496 2.72498 16.3512 2.22656 15.7363 2.22656ZM11.2832 2.22656H5.7168V1.66992C5.7168 1.3628 5.96632 1.11328 6.27344 1.11328H10.7266C11.0337 1.11328 11.2832 1.3628 11.2832 1.66992V2.22656Z" fill="#00588B"/>
</svg>
