<svg width="44" height="50" viewBox="0 0 44 50" fill="none" xmlns="http://www.w3.org/2000/svg">
<path d="M3.07471 14.6484L5.66934 45.9702C5.85527 48.229 7.7793 50 10.0467 50H33.9534C36.2208 50 38.1448 48.229 38.3308 45.9702L40.9253 14.6484H3.07471ZM14.6744 44.1406C13.9076 44.1406 13.2625 43.5441 13.2139 42.7673L11.749 19.1345C11.6989 18.3263 12.3126 17.6311 13.1194 17.581C13.9563 17.5223 14.6215 18.1432 14.6729 18.9514L16.1378 42.5842C16.1896 43.4211 15.5274 44.1406 14.6744 44.1406ZM23.4648 42.6758C23.4648 43.4855 22.8097 44.1406 22 44.1406C21.1903 44.1406 20.5352 43.4855 20.5352 42.6758V19.043C20.5352 18.2333 21.1903 17.5781 22 17.5781C22.8097 17.5781 23.4648 18.2333 23.4648 19.043V42.6758ZM32.251 19.1346L30.7861 42.7674C30.738 43.5363 30.0971 44.1772 29.2326 44.1378C28.4258 44.0877 27.8121 43.3925 27.8622 42.5843L29.327 18.9515C29.3771 18.1433 30.0853 17.5553 30.8806 17.5811C31.6874 17.6312 32.3011 18.3264 32.251 19.1346ZM41.043 5.85938H32.2539V4.39453C32.2539 1.97129 30.2826 0 27.8594 0H16.1406C13.7174 0 11.7461 1.97129 11.7461 4.39453V5.85938H2.95703C1.33896 5.85938 0.0273438 7.171 0.0273438 8.78906C0.0273438 10.4069 1.33896 11.7188 2.95703 11.7188H41.043C42.661 11.7188 43.9727 10.4069 43.9727 8.78906C43.9727 7.171 42.661 5.85938 41.043 5.85938ZM29.3242 5.85938H14.6758V4.39453C14.6758 3.58633 15.3324 2.92969 16.1406 2.92969H27.8594C28.6676 2.92969 29.3242 3.58633 29.3242 4.39453V5.85938Z" fill="#2C7CAC"/>
</svg>
