<svg width="26" height="21" viewBox="0 0 26 21" fill="none" xmlns="http://www.w3.org/2000/svg">
<path d="M26 0.757979V20.2419C26 20.6599 25.6892 20.9999 25.3071 20.9999H22.7013C22.3192 20.9999 22.0083 20.6599 22.0083 20.2419V0.757979C22.0083 0.340041 22.3192 0 22.7013 0H25.3071C25.6892 5.74879e-05 26 0.340099 26 0.757979ZM14.3029 10.2844H11.6971C11.315 10.2844 11.0042 10.6244 11.0042 11.0423V20.242C11.0042 20.6599 11.315 20.9999 11.6971 20.9999H14.3029C14.685 20.9999 14.9959 20.6599 14.9959 20.242V11.0423C14.9958 10.6244 14.685 10.2844 14.3029 10.2844ZM19.8049 5.07866H17.1992C16.8171 5.07866 16.5063 5.4187 16.5063 5.83669V20.242C16.5063 20.66 16.8171 21 17.1992 21H19.8049C20.1871 21 20.4979 20.66 20.4979 20.242V5.83664C20.4979 5.4187 20.1871 5.07866 19.8049 5.07866ZM3.29867 14.0764H0.692958C0.310848 14.0764 0 14.4165 0 14.8344V20.242C0 20.6599 0.310848 20.9999 0.692958 20.9999H3.29867C3.68078 20.9999 3.99163 20.6599 3.99163 20.242V14.8344C3.99163 14.4165 3.68078 14.0764 3.29867 14.0764ZM8.80082 7.42307H6.19505C5.81299 7.42307 5.50215 7.76311 5.50215 8.18111V20.242C5.50215 20.66 5.81299 21 6.19505 21H8.80082C9.18287 21 9.49372 20.66 9.49372 20.242V8.18105C9.49367 7.76311 9.18282 7.42307 8.80082 7.42307Z" fill="white"/>
</svg>
