<svg width="25" height="25" viewBox="0 0 25 25" fill="none" xmlns="http://www.w3.org/2000/svg">
<path d="M12.5002 0.830078C6.05659 0.830078 0.829102 6.05097 0.829102 12.495C0.829102 18.9453 6.05659 24.1723 12.5002 24.1723C18.9473 24.1723 24.1704 18.9452 24.1704 12.495C24.1704 6.05097 18.9473 0.830078 12.5002 0.830078ZM13.3319 18.9892C13.0608 19.2304 12.7467 19.3516 12.3908 19.3516C12.0226 19.3516 11.7015 19.2325 11.4273 18.994C11.1527 18.7558 11.0152 18.4224 11.0152 17.994C11.0152 17.6139 11.1483 17.2941 11.4137 17.0348C11.6791 16.7756 12.0046 16.646 12.3908 16.646C12.7709 16.646 13.0907 16.7756 13.3504 17.0348C13.6096 17.2941 13.7397 17.6139 13.7397 17.994C13.7392 18.4162 13.6034 18.748 13.3319 18.9892ZM16.7119 10.6097C16.5036 10.9959 16.2563 11.3289 15.9694 11.6097C15.6833 11.8905 15.1689 12.3623 14.4263 13.0258C14.2216 13.2129 14.0568 13.3773 13.9334 13.5187C13.8099 13.6606 13.7177 13.7902 13.6575 13.908C13.5989 14.0207 13.5519 14.139 13.5173 14.2612C13.4843 14.3785 13.4347 14.5855 13.3675 14.8811C13.2533 15.5085 12.8943 15.8222 12.291 15.8222C11.9773 15.8222 11.7137 15.7198 11.4989 15.5147C11.2849 15.3095 11.1781 15.005 11.1781 14.6008C11.1781 14.0942 11.2568 13.6553 11.4136 13.2841C11.5696 12.9128 11.7783 12.5873 12.0375 12.3065C12.2972 12.0258 12.6469 11.6927 13.0876 11.3065C13.4738 10.9686 13.7528 10.7138 13.9246 10.542C14.0954 10.3716 14.2415 10.1782 14.3587 9.96734C14.4769 9.75601 14.5349 9.5271 14.5349 9.27976C14.5349 8.79692 14.3561 8.39008 13.9967 8.05837C13.6377 7.72666 13.1746 7.56056 12.6074 7.56056C11.9436 7.56056 11.455 7.72796 11.1413 8.06275C10.8276 8.39754 10.5627 8.89049 10.3452 9.54207C10.1395 10.224 9.75027 10.5649 9.17776 10.5649C8.83989 10.5649 8.55477 10.4458 8.32235 10.2077C8.09037 9.96951 7.97437 9.71163 7.97437 9.43397C7.97437 8.86103 8.15847 8.2802 8.52623 7.69191C8.89443 7.10361 9.43132 6.61634 10.1373 6.23058C10.8429 5.84439 11.6668 5.65105 12.6074 5.65105C13.4822 5.65105 14.2541 5.81271 14.9237 6.13567C15.5933 6.45814 16.1108 6.89709 16.4759 7.45241C16.8406 8.00729 17.0234 8.61056 17.0234 9.26214C17.0242 9.77406 16.9201 10.2235 16.7119 10.6097Z" fill="#5A9FC9"/>
</svg>
