<svg width="19" height="23" viewBox="0 0 19 23" fill="none" xmlns="http://www.w3.org/2000/svg">
<path d="M16.1122 0.5H2.13748C0.999338 0.5 0 1.35522 0 2.36752V21.2502C0 21.5891 0.103251 21.8715 0.269655 22.0897C0.366329 22.2168 0.495399 22.3206 0.645745 22.3921C0.796091 22.4635 0.963205 22.5005 1.13269 22.4999C1.45755 22.4999 1.80342 22.3678 2.12283 22.1186L8.37511 17.2698C8.56821 17.1192 8.84558 17.0328 9.13398 17.0328C9.42227 17.0328 9.69908 17.1192 9.89274 17.2702L16.1241 22.1179C16.4447 22.3678 16.7667 22.5 17.091 22.5C17.6394 22.5 18.1739 22.1136 18.1739 21.2503V2.36752C18.1739 1.35522 17.2503 0.5 16.1122 0.5Z" fill="#2C7CAC"/>
</svg>
