<svg width="23" height="16" viewBox="0 0 23 16" fill="none" xmlns="http://www.w3.org/2000/svg">
<path d="M22.5 0.577508V15.4224C22.5 15.7409 22.237 16 21.9137 16H19.7088C19.3855 16 19.1224 15.7409 19.1224 15.4224V0.577508C19.1224 0.259079 19.3855 0 19.7088 0H21.9137C22.237 4.38003e-05 22.5 0.259123 22.5 0.577508ZM12.6025 7.8357H10.3976C10.0743 7.8357 9.81123 8.09478 9.81123 8.41321V15.4224C9.81123 15.7409 10.0743 16 10.3976 16H12.6025C12.9258 16 13.1888 15.7409 13.1888 15.4224V8.41321C13.1888 8.09478 12.9257 7.8357 12.6025 7.8357ZM17.258 3.86945H15.0532C14.7299 3.86945 14.4669 4.12853 14.4669 4.447V15.4224C14.4669 15.7409 14.7299 16 15.0532 16H17.258C17.5814 16 17.8444 15.7409 17.8444 15.4224V4.44696C17.8444 4.12853 17.5814 3.86945 17.258 3.86945ZM3.29118 10.7249H1.08635C0.763025 10.7249 0.5 10.984 0.5 11.3024V15.4224C0.5 15.7409 0.763025 16 1.08635 16H3.29118C3.61451 16 3.87753 15.7409 3.87753 15.4224V11.3024C3.87753 10.984 3.61451 10.7249 3.29118 10.7249ZM7.94684 5.65567H5.74197C5.41869 5.65567 5.15566 5.91475 5.15566 6.23322V15.4225C5.15566 15.7409 5.41869 16 5.74197 16H7.94684C8.27012 16 8.53315 15.7409 8.53315 15.4225V6.23318C8.5331 5.91475 8.27008 5.65567 7.94684 5.65567Z" fill="#2C7CAC"/>
</svg>
