<svg width="22" height="23" viewBox="0 0 22 23" fill="none" xmlns="http://www.w3.org/2000/svg">
<path d="M2.5381 21.6852C2.5381 21.9013 2.62725 22.1086 2.78594 22.2614C2.94464 22.4142 3.15987 22.5 3.38429 22.5H18.6158C18.8402 22.5 19.0554 22.4142 19.2141 22.2614C19.3728 22.1086 19.462 21.9013 19.462 21.6852V19.2409H2.5381V21.6852ZM21.668 5.5565C21.542 5.46427 21.3917 5.40776 21.2341 5.39337C21.0765 5.37897 20.9179 5.40725 20.7761 5.47502L14.8291 8.33819L11.7861 1.01325C11.7235 0.861788 11.6151 0.73191 11.4749 0.640411C11.3348 0.548912 11.1694 0.5 11 0.5C10.8307 0.5 10.6653 0.548912 10.5251 0.640411C10.385 0.73191 10.2766 0.861788 10.2139 1.01325L7.17101 8.33819L1.22396 5.47502C1.08227 5.40696 0.923577 5.37854 0.76594 5.393C0.608302 5.40746 0.458041 5.46422 0.332243 5.55683C0.206446 5.64944 0.110159 5.77417 0.0543319 5.91686C-0.00149497 6.05954 -0.0146218 6.21445 0.016444 6.36396L2.35194 17.6113H19.6481L21.9836 6.36396C22.0146 6.21454 22.0015 6.05974 21.9457 5.91716C21.8899 5.77457 21.7937 5.64991 21.668 5.55732V5.5565ZM11 14.3521C10.4977 14.2924 10.0395 14.0459 9.72326 13.6653C9.40705 13.2847 9.25789 12.8002 9.30765 12.3152C9.25789 11.8301 9.40705 11.3456 9.72326 10.965C10.0395 10.5844 10.4977 10.3379 11 10.2782C11.5024 10.3379 11.9606 10.5844 12.2768 10.965C12.593 11.3456 12.7422 11.8301 12.6924 12.3152C12.7422 12.8002 12.593 13.2847 12.2768 13.6653C11.9606 14.0459 11.5024 14.2924 11 14.3521Z" fill="#2C7CAC"/>
</svg>
