<svg width="16" height="16" viewBox="0 0 16 16" fill="none" xmlns="http://www.w3.org/2000/svg">
<rect width="16" height="16" rx="2" fill="#F8FCFF"/>
<path d="M4.14027 4.42529C3.4286 4.42529 2.84961 5.00429 2.84961 5.71596C2.84961 6.42762 3.4286 7.00662 4.14027 7.00662C4.85194 7.00662 5.43094 6.42762 5.43094 5.71596C5.43094 5.00429 4.85195 4.42529 4.14027 4.42529ZM4.14027 6.83677C3.52226 6.83677 3.01947 6.33397 3.01947 5.71596C3.01947 5.09794 3.52226 4.59515 4.14027 4.59515C4.75829 4.59515 5.26107 5.09794 5.26107 5.71596C5.26107 6.33397 4.75829 6.83677 4.14027 6.83677Z" fill="#204766"/>
<path d="M4.228 5.63978V5.15757C4.27681 5.17569 4.31856 5.20893 4.34715 5.25245C4.35965 5.27099 4.37896 5.28386 4.40089 5.28825C4.42283 5.29265 4.4456 5.28821 4.46429 5.27591C4.48297 5.26361 4.49604 5.24444 4.50067 5.22255C4.5053 5.20067 4.50111 5.17785 4.48901 5.15903C4.42895 5.0676 4.33509 5.00369 4.228 4.98132V4.84641C4.228 4.82388 4.21906 4.80228 4.20313 4.78635C4.1872 4.77042 4.1656 4.76147 4.14307 4.76147C4.12055 4.76147 4.09895 4.77042 4.08302 4.78635C4.06709 4.80228 4.05814 4.82388 4.05814 4.84641V4.98107C3.87017 5.02026 3.72852 5.18719 3.72852 5.38662C3.72852 5.58605 3.87018 5.75301 4.05814 5.7922V6.27441C4.00933 6.25629 3.96759 6.22305 3.939 6.17953C3.93292 6.17009 3.92503 6.16194 3.91579 6.15557C3.90655 6.14919 3.89613 6.14471 3.88514 6.14239C3.87416 6.14006 3.86282 6.13994 3.85178 6.14203C3.84075 6.14411 3.83024 6.14837 3.82086 6.15455C3.81148 6.16072 3.80342 6.1687 3.79714 6.17801C3.79087 6.18732 3.7865 6.19778 3.78429 6.2088C3.78209 6.21981 3.78209 6.23115 3.78429 6.24216C3.7865 6.25317 3.79086 6.26363 3.79714 6.27295C3.8572 6.36438 3.95105 6.42829 4.05814 6.45066V6.58556C4.05814 6.60809 4.06709 6.62969 4.08302 6.64562C4.09895 6.66154 4.12055 6.67049 4.14307 6.67049C4.1656 6.67049 4.1872 6.66154 4.20313 6.64562C4.21906 6.62969 4.228 6.60809 4.228 6.58556V6.45091C4.41598 6.41172 4.55763 6.24478 4.55763 6.04536C4.55763 5.84593 4.41598 5.67897 4.228 5.63978ZM3.89838 5.38662C3.89838 5.28164 3.96503 5.19217 4.05814 5.15763V5.61562C3.96503 5.58108 3.89838 5.49161 3.89838 5.38662ZM4.228 6.27434V5.81635C4.32111 5.85089 4.38777 5.94036 4.38777 6.04534C4.38777 6.15033 4.32112 6.2398 4.228 6.27434Z" fill="#204766"/>
<path d="M8.96002 12.3633H8.53472H8.10941H7.34387H6.91856H6.49326H6.06796H5.30241H4.87711H4.4527H4.02739H3.26185H2.83654H2.49585C2.37841 12.3633 2.2832 12.4656 2.2832 12.5917C2.2832 12.7178 2.37841 12.8201 2.49585 12.8201H12.9583C13.0758 12.8201 13.171 12.7178 13.171 12.5917C13.171 12.4656 13.0758 12.3633 12.9583 12.3633H12.6176H12.1923H11.4268H11.0015H10.5762H10.1509H9.38577M8.96002 12.3633H9.38577M8.96002 12.3633H9.38532H9.38577" stroke="#204766" stroke-width="0.224464"/>
<path d="M9.64093 6.49091L12.3542 3.77763C12.3683 3.76349 12.3583 3.73931 12.3383 3.73931H11.6033C11.5537 3.73931 11.5135 3.69912 11.5135 3.64953V3.39276C11.5135 3.34318 11.5537 3.30298 11.6033 3.30298H13.0736C13.1232 3.30298 13.1634 3.34318 13.1634 3.39276V4.80689C13.1634 4.85028 13.1282 4.88545 13.0848 4.88545H12.8208C12.7713 4.88545 12.7311 4.84525 12.7311 4.79567V4.08986C12.7311 4.06987 12.7069 4.05985 12.6927 4.07399L9.79967 6.96709C9.75758 7.00918 9.70048 7.03283 9.64095 7.03283C9.58142 7.03283 9.52433 7.00918 9.48223 6.96709L8.77187 6.25673L5.87267 9.15591C5.78502 9.24354 5.64289 9.24354 5.55523 9.15591L4.86386 8.46453L2.6488 10.6796C2.62798 10.7005 2.60324 10.717 2.576 10.7283C2.54876 10.7396 2.51957 10.7454 2.49008 10.7453C2.4606 10.7454 2.4314 10.7396 2.40417 10.7283C2.37693 10.717 2.35219 10.7005 2.33136 10.6796C2.24371 10.5919 2.24371 10.4498 2.33136 10.3621L4.70512 7.98835C4.79279 7.9007 4.93493 7.9007 5.02258 7.98835L5.71395 8.67973L8.61313 5.78057C8.70081 5.69292 8.84294 5.69292 8.93059 5.78057L9.64093 6.49091Z" stroke="#204766" stroke-width="0.224464"/>
<path d="M3.2793 10.0818L3.2793 12.2591" stroke="#204766" stroke-width="0.224464" stroke-linecap="round" stroke-linejoin="round" stroke-dasharray="1.9 0.58"/>
<path d="M11.8047 5.01611L11.8047 6.53888" stroke="#204766" stroke-width="0.224464" stroke-linecap="round" stroke-linejoin="round"/>
<path d="M11.8047 6.99561L11.8047 12.2491" stroke="#204766" stroke-width="0.224464" stroke-linecap="round" stroke-linejoin="round"/>
<path d="M5.4082 9.04932L5.4082 12.2592" stroke="#204766" stroke-width="0.224464" stroke-linecap="round" stroke-linejoin="round" stroke-dasharray="0.18 0.58"/>
<path d="M7.54102 7.61279L7.54102 12.2592" stroke="#204766" stroke-width="0.224464" stroke-linecap="round" stroke-linejoin="round" stroke-dasharray="0.18 0.58"/>
<path d="M9.67578 7.05151L9.67578 12.3713" stroke="#204766" stroke-width="0.224464" stroke-linecap="round" stroke-linejoin="round" stroke-dasharray="0.18 0.58"/>
</svg>
