<svg width="22" height="22" viewBox="0 0 22 22" fill="none" xmlns="http://www.w3.org/2000/svg">
<path d="M8.47911 0H1.60411C0.719555 0 0 0.719555 0 1.60411V5.72911C0 6.61384 0.719555 7.33339 1.60411 7.33339H8.47911C9.36384 7.33339 10.0834 6.61384 10.0834 5.72911V1.60411C10.0834 0.719555 9.36384 0 8.47911 0Z" fill="#2C7CAC"/>
<path d="M8.47911 9.16626H1.60411C0.719555 9.16626 0 9.88581 0 10.7705V20.3955C0 21.2801 0.719555 21.9997 1.60411 21.9997H8.47911C9.36384 21.9997 10.0834 21.2801 10.0834 20.3955V10.7705C10.0834 9.88581 9.36384 9.16626 8.47911 9.16626Z" fill="#2C7CAC"/>
<path d="M20.3958 14.6663H13.5208C12.6361 14.6663 11.9166 15.3858 11.9166 16.2705V20.3955C11.9166 21.2801 12.6361 21.9996 13.5208 21.9996H20.3958C21.2804 21.9996 22 21.2801 22 20.3955V16.2705C22 15.3858 21.2804 14.6663 20.3958 14.6663Z" fill="#2C7CAC"/>
<path d="M20.3958 0H13.5208C12.6361 0 11.9166 0.719555 11.9166 1.60411V11.2291C11.9166 12.1138 12.6361 12.8334 13.5208 12.8334H20.3958C21.2804 12.8334 22 12.1138 22 11.2291V1.60411C22 0.719555 21.2804 0 20.3958 0Z" fill="#2C7CAC"/>
</svg>
