<svg width="250" height="41" viewBox="0 0 250 41" fill="none" xmlns="http://www.w3.org/2000/svg">
<path d="M73.8685 30.1898C72.0971 30.1898 70.4703 29.7741 68.9881 28.9426C67.5059 28.1111 66.3309 26.9633 65.4633 25.4992C64.5957 24.0169 64.1619 22.3449 64.1619 20.4831C64.1619 18.6394 64.5957 16.9855 65.4633 15.5214C66.3309 14.0392 67.5059 12.8823 68.9881 12.0508C70.4703 11.2194 72.0971 10.8036 73.8685 10.8036C75.658 10.8036 77.2848 11.2194 78.7489 12.0508C80.2312 12.8823 81.397 14.0392 82.2466 15.5214C83.1142 16.9855 83.548 18.6394 83.548 20.4831C83.548 22.3449 83.1142 24.0169 82.2466 25.4992C81.397 26.9633 80.2312 28.1111 78.7489 28.9426C77.2667 29.7741 75.6399 30.1898 73.8685 30.1898ZM73.8685 26.8006C75.0073 26.8006 76.0105 26.5475 76.8781 26.0414C77.7457 25.5172 78.4236 24.7761 78.9116 23.8181C79.3997 22.8601 79.6437 21.7484 79.6437 20.4831C79.6437 19.2179 79.3997 18.1152 78.9116 17.1753C78.4236 16.2173 77.7457 15.4852 76.8781 14.9791C76.0105 14.473 75.0073 14.2199 73.8685 14.2199C72.7297 14.2199 71.7175 14.473 70.8318 14.9791C69.9642 15.4852 69.2863 16.2173 68.7983 17.1753C68.3102 18.1152 68.0662 19.2179 68.0662 20.4831C68.0662 21.7484 68.3102 22.8601 68.7983 23.8181C69.2863 24.7761 69.9642 25.5172 70.8318 26.0414C71.7175 26.5475 72.7297 26.8006 73.8685 26.8006ZM90.168 17.1482C90.656 16.4613 91.3248 15.8919 92.1744 15.44C93.042 14.9701 94.0271 14.7351 95.1298 14.7351C96.4131 14.7351 97.57 15.0514 98.6003 15.6841C99.6487 16.3167 100.471 17.2205 101.068 18.3954C101.682 19.5523 101.989 20.8989 101.989 22.4353C101.989 23.9718 101.682 25.3365 101.068 26.5295C100.471 27.7044 99.6487 28.6172 98.6003 29.2679C97.57 29.9187 96.4131 30.244 95.1298 30.244C94.0271 30.244 93.0511 30.0181 92.2015 29.5662C91.37 29.1143 90.6922 28.5449 90.168 27.858V37.158H86.3721V14.9791H90.168V17.1482ZM98.1122 22.4353C98.1122 21.5315 97.9225 20.7543 97.5429 20.1036C97.1813 19.4348 96.6933 18.9286 96.0787 18.5852C95.4822 18.2418 94.8315 18.07 94.1266 18.07C93.4397 18.07 92.789 18.2508 92.1744 18.6123C91.5779 18.9558 91.0898 19.4619 90.7103 20.1307C90.3487 20.7995 90.168 21.5858 90.168 22.4896C90.168 23.3933 90.3487 24.1796 90.7103 24.8484C91.0898 25.5172 91.5779 26.0324 92.1744 26.3939C92.789 26.7373 93.4397 26.9091 94.1266 26.9091C94.8315 26.9091 95.4822 26.7283 96.0787 26.3668C96.6933 26.0053 97.1813 25.4901 97.5429 24.8213C97.9225 24.1525 98.1122 23.3572 98.1122 22.4353ZM109.167 18.0972V25.3636C109.167 25.8697 109.285 26.2403 109.52 26.4752C109.773 26.6921 110.189 26.8006 110.767 26.8006H112.529V30H110.143C106.944 30 105.344 28.4455 105.344 25.3365V18.0972H103.555V14.9791H105.344V11.2645H109.167V14.9791H112.529V18.0972H109.167ZM117.185 13.1896C116.516 13.1896 115.956 12.9817 115.504 12.566C115.07 12.1322 114.853 11.5989 114.853 10.9663C114.853 10.3336 115.07 9.80945 115.504 9.39371C115.956 8.9599 116.516 8.74299 117.185 8.74299C117.854 8.74299 118.405 8.9599 118.839 9.39371C119.291 9.80945 119.516 10.3336 119.516 10.9663C119.516 11.5989 119.291 12.1322 118.839 12.566C118.405 12.9817 117.854 13.1896 117.185 13.1896ZM119.056 14.9791V30H115.26V14.9791H119.056ZM129.476 30.244C128.03 30.244 126.728 29.9277 125.571 29.295C124.415 28.6443 123.502 27.7315 122.833 26.5566C122.182 25.3817 121.857 24.026 121.857 22.4896C121.857 20.9531 122.191 19.5974 122.86 18.4225C123.547 17.2476 124.478 16.3438 125.653 15.7112C126.828 15.0604 128.138 14.7351 129.584 14.7351C131.03 14.7351 132.341 15.0604 133.516 15.7112C134.691 16.3438 135.613 17.2476 136.281 18.4225C136.968 19.5974 137.312 20.9531 137.312 22.4896C137.312 24.026 136.959 25.3817 136.254 26.5566C135.567 27.7315 134.627 28.6443 133.434 29.295C132.259 29.9277 130.94 30.244 129.476 30.244ZM129.476 26.9362C130.163 26.9362 130.804 26.7735 131.401 26.4481C132.015 26.1047 132.504 25.5986 132.865 24.9298C133.227 24.261 133.407 23.4476 133.407 22.4896C133.407 21.0616 133.028 19.968 132.269 19.2088C131.527 18.4316 130.615 18.0429 129.53 18.0429C128.446 18.0429 127.533 18.4316 126.792 19.2088C126.069 19.968 125.707 21.0616 125.707 22.4896C125.707 23.9175 126.06 25.0201 126.764 25.7974C127.488 26.5566 128.391 26.9362 129.476 26.9362ZM148.42 14.7622C150.209 14.7622 151.655 15.3316 152.758 16.4703C153.861 17.591 154.412 19.1636 154.412 21.1881V30H150.616V21.7033C150.616 20.5103 150.318 19.5974 149.721 18.9648C149.125 18.3141 148.311 17.9887 147.281 17.9887C146.233 17.9887 145.401 18.3141 144.787 18.9648C144.19 19.5974 143.892 20.5103 143.892 21.7033V30H140.096V14.9791H143.892V16.8499C144.398 16.1992 145.04 15.6931 145.817 15.3316C146.612 14.952 147.48 14.7622 148.42 14.7622ZM185.116 11.0748V30H181.32V17.6905L176.25 30H173.376L168.278 17.6905V30H164.482V11.0748H168.793L174.813 25.1467L180.832 11.0748H185.116ZM187.893 22.4353C187.893 20.917 188.191 19.5703 188.787 18.3954C189.402 17.2205 190.224 16.3167 191.255 15.6841C192.303 15.0514 193.469 14.7351 194.752 14.7351C195.873 14.7351 196.849 14.961 197.681 15.4129C198.53 15.8648 199.208 16.4342 199.714 17.1211V14.9791H203.537V30H199.714V27.8038C199.226 28.5088 198.548 29.0962 197.681 29.5662C196.831 30.0181 195.846 30.244 194.725 30.244C193.46 30.244 192.303 29.9187 191.255 29.2679C190.224 28.6172 189.402 27.7044 188.787 26.5295C188.191 25.3365 187.893 23.9718 187.893 22.4353ZM199.714 22.4896C199.714 21.5677 199.533 20.7814 199.172 20.1307C198.81 19.4619 198.322 18.9558 197.708 18.6123C197.093 18.2508 196.433 18.07 195.728 18.07C195.023 18.07 194.373 18.2418 193.776 18.5852C193.18 18.9286 192.692 19.4348 192.312 20.1036C191.951 20.7543 191.77 21.5315 191.77 22.4353C191.77 23.3391 191.951 24.1344 192.312 24.8213C192.692 25.4901 193.18 26.0053 193.776 26.3668C194.391 26.7283 195.042 26.9091 195.728 26.9091C196.433 26.9091 197.093 26.7373 197.708 26.3939C198.322 26.0324 198.81 25.5263 199.172 24.8755C199.533 24.2067 199.714 23.4114 199.714 22.4896ZM211.664 18.0972V25.3636C211.664 25.8697 211.781 26.2403 212.016 26.4752C212.269 26.6921 212.685 26.8006 213.264 26.8006H215.026V30H212.64C209.441 30 207.841 28.4455 207.841 25.3365V18.0972H206.051V14.9791H207.841V11.2645H211.664V14.9791H215.026V18.0972H211.664ZM221.552 17.3109C222.04 16.5155 222.673 15.8919 223.45 15.44C224.245 14.9881 225.149 14.7622 226.161 14.7622V18.7479H225.158C223.965 18.7479 223.061 19.0281 222.447 19.5884C221.85 20.1487 221.552 21.1248 221.552 22.5167V30H217.756V14.9791H221.552V17.3109ZM230.643 13.1896C229.974 13.1896 229.414 12.9817 228.962 12.566C228.528 12.1322 228.311 11.5989 228.311 10.9663C228.311 10.3336 228.528 9.80945 228.962 9.39371C229.414 8.9599 229.974 8.74299 230.643 8.74299C231.312 8.74299 231.863 8.9599 232.297 9.39371C232.749 9.80945 232.975 10.3336 232.975 10.9663C232.975 11.5989 232.749 12.1322 232.297 12.566C231.863 12.9817 231.312 13.1896 230.643 13.1896ZM232.514 14.9791V30H228.718V14.9791H232.514ZM244.561 30L241.47 25.3365L238.732 30H234.665L239.572 22.4624L234.61 14.9791H238.894L241.958 19.6155L244.724 14.9791H248.791L243.856 22.4624L248.845 30H244.561Z" fill="#2C7CAC"/>
<path d="M8.77805 5.84375C5.86021 5.84375 3.48633 8.21763 3.48633 11.1355C3.48633 14.0533 5.86021 16.4272 8.77805 16.4272C11.6959 16.4272 14.0698 14.0533 14.0698 11.1355C14.0698 8.21763 11.6959 5.84375 8.77805 5.84375ZM8.77805 15.7308C6.24419 15.7308 4.18276 13.6693 4.18276 11.1355C4.18276 8.60161 6.24419 6.54018 8.77805 6.54018C11.3119 6.54018 13.3733 8.60161 13.3733 11.1355C13.3733 13.6693 11.3119 15.7308 8.77805 15.7308Z" fill="#2C7CAC"/>
<path d="M9.13774 10.8225V8.84541C9.33787 8.91971 9.50902 9.05601 9.62624 9.23442C9.67749 9.31046 9.75668 9.36322 9.84659 9.38123C9.93651 9.39925 10.0299 9.38106 10.1065 9.33063C10.1831 9.28019 10.2367 9.20158 10.2557 9.11186C10.2747 9.02214 10.2575 8.92856 10.2079 8.85143C9.96161 8.47653 9.5768 8.21453 9.13774 8.12281V7.56965C9.13774 7.4773 9.10106 7.38873 9.03575 7.32343C8.97045 7.25812 8.88188 7.22144 8.78953 7.22144C8.69718 7.22144 8.60861 7.25812 8.5433 7.32343C8.478 7.38873 8.44131 7.4773 8.44131 7.56965V8.12177C7.67062 8.28245 7.08984 8.96689 7.08984 9.78455C7.08984 10.6022 7.67067 11.2867 8.44131 11.4474V13.4245C8.24119 13.3502 8.07004 13.2139 7.95282 13.0355C7.92791 12.9968 7.89557 12.9634 7.85767 12.9372C7.81977 12.9111 7.77706 12.8927 7.73202 12.8832C7.68697 12.8736 7.64048 12.8731 7.59524 12.8817C7.55 12.8903 7.50691 12.9077 7.46845 12.933C7.43 12.9583 7.39695 12.991 7.37121 13.0292C7.34548 13.0674 7.32757 13.1103 7.31853 13.1555C7.30948 13.2006 7.30948 13.2471 7.31852 13.2922C7.32756 13.3374 7.34547 13.3803 7.3712 13.4185C7.61745 13.7934 8.00225 14.0554 8.44131 14.1471V14.7002C8.44131 14.7925 8.478 14.8811 8.5433 14.9464C8.60861 15.0117 8.69718 15.0484 8.78953 15.0484C8.88188 15.0484 8.97045 15.0117 9.03575 14.9464C9.10106 14.8811 9.13774 14.7925 9.13774 14.7002V14.1481C9.90844 13.9874 10.4892 13.303 10.4892 12.4853C10.4892 11.6677 9.90844 10.9832 9.13774 10.8225ZM7.78627 9.78455C7.78627 9.3541 8.05957 8.98728 8.44131 8.84566V10.7234C8.05957 10.5818 7.78627 10.215 7.78627 9.78455ZM9.13774 13.4242V11.5464C9.51949 11.688 9.79279 12.0549 9.79279 12.4853C9.79279 12.9157 9.51954 13.2826 9.13774 13.4242Z" fill="#2C7CAC"/>
<path d="M28.539 38.3894H26.7953H25.0515H21.9128H20.169H18.4253H16.6816H13.5428H11.7991H10.059H8.31525H5.17651H3.43276H2.03593C1.5544 38.3894 1.16406 38.8088 1.16406 39.3259C1.16406 39.843 1.5544 40.2624 2.03593 40.2624H44.932C45.4136 40.2624 45.8039 39.843 45.8039 39.3259C45.8039 38.8088 45.4136 38.3894 44.932 38.3894H43.5352H41.7915H38.6527H36.909H35.1652H33.4215H30.2846M28.539 38.3894H30.2846M28.539 38.3894H30.2828H30.2846" stroke="#2C7CAC" stroke-width="0.920303"/>
<path d="M31.3344 14.3125L42.4589 3.18802C42.5169 3.13005 42.4758 3.03092 42.3938 3.03092H39.3803C39.177 3.03092 39.0122 2.8661 39.0122 2.6628V1.61006C39.0122 1.40676 39.177 1.24194 39.3803 1.24194H45.4083C45.6116 1.24194 45.7764 1.40676 45.7764 1.61006V7.40798C45.7764 7.58587 45.6322 7.73008 45.4543 7.73008H44.3721C44.1688 7.73008 44.004 7.56527 44.004 7.36196V4.46818C44.004 4.38619 43.9049 4.34512 43.8469 4.4031L31.9853 16.2648C31.8127 16.4374 31.5786 16.5343 31.3345 16.5343C31.0905 16.5343 30.8564 16.4374 30.6838 16.2648L27.7713 13.3523L15.8846 25.2389C15.5252 25.5982 14.9425 25.5982 14.5831 25.2389L11.7485 22.4043L2.66673 31.4861C2.58136 31.5716 2.47993 31.6395 2.36825 31.6858C2.25658 31.732 2.13686 31.7558 2.01598 31.7556C1.89511 31.7558 1.77539 31.732 1.66372 31.6858C1.55205 31.6395 1.45061 31.5716 1.36524 31.4861C1.00586 31.1266 1.00586 30.5438 1.36524 30.1845L11.0976 20.452C11.4571 20.0926 12.0398 20.0926 12.3992 20.452L15.2338 23.2866L27.1205 11.4001C27.4799 11.0407 28.0627 11.0407 28.4221 11.4001L31.3344 14.3125Z" stroke="#2C7CAC" stroke-width="0.920303"/>
<path d="M5.24805 29.0356L5.24805 37.9626" stroke="#2C7CAC" stroke-width="0.920303" stroke-linecap="round" stroke-linejoin="round" stroke-dasharray="7.8 2.39"/>
<path d="M40.2031 8.26611L40.2031 14.5095" stroke="#2C7CAC" stroke-width="0.920303" stroke-linecap="round" stroke-linejoin="round"/>
<path d="M40.2031 16.3821L40.2031 37.9216" stroke="#2C7CAC" stroke-width="0.920303" stroke-linecap="round" stroke-linejoin="round"/>
<path d="M13.9766 24.8022L13.9766 37.9626" stroke="#2C7CAC" stroke-width="0.920303" stroke-linecap="round" stroke-linejoin="round" stroke-dasharray="0.74 2.39"/>
<path d="M22.7246 18.9126L22.7246 37.9629" stroke="#2C7CAC" stroke-width="0.920303" stroke-linecap="round" stroke-linejoin="round" stroke-dasharray="0.74 2.39"/>
<path d="M31.4746 16.6113L31.4746 38.4225" stroke="#2C7CAC" stroke-width="0.920303" stroke-linecap="round" stroke-linejoin="round" stroke-dasharray="0.74 2.39"/>
</svg>
