<svg width="22" height="22" viewBox="0 0 22 22" fill="none" xmlns="http://www.w3.org/2000/svg">
<path d="M7.46429 12.5714H6.28571V16.5H22V11.7857H8.64286C8.371 12.2532 8.04414 12.5714 7.46429 12.5714ZM18.8571 13.75C18.8571 13.6458 18.8985 13.5459 18.9722 13.4722C19.0459 13.3985 19.1458 13.3571 19.25 13.3571C19.3542 13.3571 19.4541 13.3985 19.5278 13.4722C19.6015 13.5459 19.6429 13.6458 19.6429 13.75V14.5357C19.6429 14.6399 19.6015 14.7398 19.5278 14.8135C19.4541 14.8872 19.3542 14.9286 19.25 14.9286C19.1458 14.9286 19.0459 14.8872 18.9722 14.8135C18.8985 14.7398 18.8571 14.6399 18.8571 14.5357V13.75ZM17.2857 13.75C17.2857 13.6458 17.3271 13.5459 17.4008 13.4722C17.4745 13.3985 17.5744 13.3571 17.6786 13.3571C17.7828 13.3571 17.8827 13.3985 17.9564 13.4722C18.03 13.5459 18.0714 13.6458 18.0714 13.75V14.5357C18.0714 14.6399 18.03 14.7398 17.9564 14.8135C17.8827 14.8872 17.7828 14.9286 17.6786 14.9286C17.5744 14.9286 17.4745 14.8872 17.4008 14.8135C17.3271 14.7398 17.2857 14.6399 17.2857 14.5357V13.75ZM15.7143 13.75C15.7143 13.6458 15.7557 13.5459 15.8294 13.4722C15.903 13.3985 16.003 13.3571 16.1071 13.3571C16.2113 13.3571 16.3113 13.3985 16.3849 13.4722C16.4586 13.5459 16.5 13.6458 16.5 13.75V14.5357C16.5 14.6399 16.4586 14.7398 16.3849 14.8135C16.3113 14.8872 16.2113 14.9286 16.1071 14.9286C16.003 14.9286 15.903 14.8872 15.8294 14.8135C15.7557 14.7398 15.7143 14.6399 15.7143 14.5357V13.75ZM14.1429 13.75C14.1429 13.6458 14.1842 13.5459 14.2579 13.4722C14.3316 13.3985 14.4315 13.3571 14.5357 13.3571C14.6399 13.3571 14.7398 13.3985 14.8135 13.4722C14.8872 13.5459 14.9286 13.6458 14.9286 13.75V14.5357C14.9286 14.6399 14.8872 14.7398 14.8135 14.8135C14.7398 14.8872 14.6399 14.9286 14.5357 14.9286C14.4315 14.9286 14.3316 14.8872 14.2579 14.8135C14.1842 14.7398 14.1429 14.6399 14.1429 14.5357V13.75ZM6.28571 19.6429C6.28571 20.9424 7.34329 22 8.64286 22H19.6429C20.9424 22 22 20.9424 22 19.6429V17.2857H6.28571V19.6429ZM18.8571 19.25C18.8571 19.1458 18.8985 19.0459 18.9722 18.9722C19.0459 18.8985 19.1458 18.8571 19.25 18.8571C19.3542 18.8571 19.4541 18.8985 19.5278 18.9722C19.6015 19.0459 19.6429 19.1458 19.6429 19.25V20.0357C19.6429 20.1399 19.6015 20.2398 19.5278 20.3135C19.4541 20.3872 19.3542 20.4286 19.25 20.4286C19.1458 20.4286 19.0459 20.3872 18.9722 20.3135C18.8985 20.2398 18.8571 20.1399 18.8571 20.0357V19.25ZM17.2857 19.25C17.2857 19.1458 17.3271 19.0459 17.4008 18.9722C17.4745 18.8985 17.5744 18.8571 17.6786 18.8571C17.7828 18.8571 17.8827 18.8985 17.9564 18.9722C18.03 19.0459 18.0714 19.1458 18.0714 19.25V20.0357C18.0714 20.1399 18.03 20.2398 17.9564 20.3135C17.8827 20.3872 17.7828 20.4286 17.6786 20.4286C17.5744 20.4286 17.4745 20.3872 17.4008 20.3135C17.3271 20.2398 17.2857 20.1399 17.2857 20.0357V19.25ZM15.7143 19.25C15.7143 19.1458 15.7557 19.0459 15.8294 18.9722C15.903 18.8985 16.003 18.8571 16.1071 18.8571C16.2113 18.8571 16.3113 18.8985 16.3849 18.9722C16.4586 19.0459 16.5 19.1458 16.5 19.25V20.0357C16.5 20.1399 16.4586 20.2398 16.3849 20.3135C16.3113 20.3872 16.2113 20.4286 16.1071 20.4286C16.003 20.4286 15.903 20.3872 15.8294 20.3135C15.7557 20.2398 15.7143 20.1399 15.7143 20.0357V19.25ZM14.1429 19.25C14.1429 19.1458 14.1842 19.0459 14.2579 18.9722C14.3316 18.8985 14.4315 18.8571 14.5357 18.8571C14.6399 18.8571 14.7398 18.8985 14.8135 18.9722C14.8872 19.0459 14.9286 19.1458 14.9286 19.25V20.0357C14.9286 20.1399 14.8872 20.2398 14.8135 20.3135C14.7398 20.3872 14.6399 20.4286 14.5357 20.4286C14.4315 20.4286 14.3316 20.3872 14.2579 20.3135C14.1842 20.2398 14.1429 20.1399 14.1429 20.0357V19.25ZM8.64286 11H22V6.28571H8.64286V11ZM18.8571 8.25C18.8571 8.14581 18.8985 8.04588 18.9722 7.97221C19.0459 7.89853 19.1458 7.85714 19.25 7.85714C19.3542 7.85714 19.4541 7.89853 19.5278 7.97221C19.6015 8.04588 19.6429 8.14581 19.6429 8.25V9.03571C19.6429 9.13991 19.6015 9.23983 19.5278 9.31351C19.4541 9.38718 19.3542 9.42857 19.25 9.42857C19.1458 9.42857 19.0459 9.38718 18.9722 9.31351C18.8985 9.23983 18.8571 9.13991 18.8571 9.03571V8.25ZM17.2857 8.25C17.2857 8.14581 17.3271 8.04588 17.4008 7.97221C17.4745 7.89853 17.5744 7.85714 17.6786 7.85714C17.7828 7.85714 17.8827 7.89853 17.9564 7.97221C18.03 8.04588 18.0714 8.14581 18.0714 8.25V9.03571C18.0714 9.13991 18.03 9.23983 17.9564 9.31351C17.8827 9.38718 17.7828 9.42857 17.6786 9.42857C17.5744 9.42857 17.4745 9.38718 17.4008 9.31351C17.3271 9.23983 17.2857 9.13991 17.2857 9.03571V8.25ZM15.7143 8.25C15.7143 8.14581 15.7557 8.04588 15.8294 7.97221C15.903 7.89853 16.003 7.85714 16.1071 7.85714C16.2113 7.85714 16.3113 7.89853 16.3849 7.97221C16.4586 8.04588 16.5 8.14581 16.5 8.25V9.03571C16.5 9.13991 16.4586 9.23983 16.3849 9.31351C16.3113 9.38718 16.2113 9.42857 16.1071 9.42857C16.003 9.42857 15.903 9.38718 15.8294 9.31351C15.7557 9.23983 15.7143 9.13991 15.7143 9.03571V8.25ZM14.1429 8.25C14.1429 8.14581 14.1842 8.04588 14.2579 7.97221C14.3316 7.89853 14.4315 7.85714 14.5357 7.85714C14.6399 7.85714 14.7398 7.89853 14.8135 7.97221C14.8872 8.04588 14.9286 8.14581 14.9286 8.25V9.03571C14.9286 9.13991 14.8872 9.23983 14.8135 9.31351C14.7398 9.38718 14.6399 9.42857 14.5357 9.42857C14.4315 9.42857 14.3316 9.38718 14.2579 9.31351C14.1842 9.23983 14.1429 9.13991 14.1429 9.03571V8.25ZM19.6429 0.785714H8.64286V5.5H22V3.14286C22 1.84329 20.9424 0.785714 19.6429 0.785714ZM14.9286 3.53571C14.9286 3.63991 14.8872 3.73983 14.8135 3.81351C14.7398 3.88718 14.6399 3.92857 14.5357 3.92857C14.4315 3.92857 14.3316 3.88718 14.2579 3.81351C14.1842 3.73983 14.1429 3.63991 14.1429 3.53571V2.75C14.1429 2.64581 14.1842 2.54588 14.2579 2.47221C14.3316 2.39853 14.4315 2.35714 14.5357 2.35714C14.6399 2.35714 14.7398 2.39853 14.8135 2.47221C14.8872 2.54588 14.9286 2.64581 14.9286 2.75V3.53571ZM16.5 3.53571C16.5 3.63991 16.4586 3.73983 16.3849 3.81351C16.3113 3.88718 16.2113 3.92857 16.1071 3.92857C16.003 3.92857 15.903 3.88718 15.8294 3.81351C15.7557 3.73983 15.7143 3.63991 15.7143 3.53571V2.75C15.7143 2.64581 15.7557 2.54588 15.8294 2.47221C15.903 2.39853 16.003 2.35714 16.1071 2.35714C16.2113 2.35714 16.3113 2.39853 16.3849 2.47221C16.4586 2.54588 16.5 2.64581 16.5 2.75V3.53571ZM18.0714 3.53571C18.0714 3.63991 18.03 3.73983 17.9564 3.81351C17.8827 3.88718 17.7828 3.92857 17.6786 3.92857C17.5744 3.92857 17.4745 3.88718 17.4008 3.81351C17.3271 3.73983 17.2857 3.63991 17.2857 3.53571V2.75C17.2857 2.64581 17.3271 2.54588 17.4008 2.47221C17.4745 2.39853 17.5744 2.35714 17.6786 2.35714C17.7828 2.35714 17.8827 2.39853 17.9564 2.47221C18.03 2.54588 18.0714 2.64581 18.0714 2.75V3.53571ZM19.6429 3.53571C19.6429 3.63991 19.6015 3.73983 19.5278 3.81351C19.4541 3.88718 19.3542 3.92857 19.25 3.92857C19.1458 3.92857 19.0459 3.88718 18.9722 3.81351C18.8985 3.73983 18.8571 3.63991 18.8571 3.53571V2.75C18.8571 2.64581 18.8985 2.54588 18.9722 2.47221C19.0459 2.39853 19.1458 2.35714 19.25 2.35714C19.3542 2.35714 19.4541 2.39853 19.5278 2.47221C19.6015 2.54588 19.6429 2.64581 19.6429 2.75V3.53571ZM7.85714 0.785714C7.85714 0.57733 7.77436 0.37748 7.62701 0.23013C7.47966 0.0827804 7.27981 0 7.07143 0H0.785714C0.57733 0 0.37748 0.0827804 0.23013 0.23013C0.0827804 0.37748 0 0.57733 0 0.785714V2.35714H7.85714V0.785714ZM0 3.14286H7.85714V5.5H0V3.14286ZM0 6.28571H7.85714V8.64286H0V6.28571ZM7.85714 11V9.42857H0V11C0 11.2084 0.0827804 11.4082 0.23013 11.5556C0.37748 11.7029 0.57733 11.7857 0.785714 11.7857H7.07143C7.27981 11.7857 7.47966 11.7029 7.62701 11.5556C7.77436 11.4082 7.85714 11.2084 7.85714 11Z" fill="#2C7CAC"/>
</svg>
