<svg width="22" height="22" viewBox="0 0 22 22" fill="none" xmlns="http://www.w3.org/2000/svg">
<path d="M5.34508 9.58179C4.94289 9.58179 4.60339 10.0248 4.60339 10.5486C4.60339 11.0728 4.94285 11.5158 5.34508 11.5158C5.74726 11.5158 6.08715 11.0728 6.08715 10.5486C6.08715 10.0248 5.74726 9.58179 5.34508 9.58179ZM11.849 14.6946C11.4468 14.6946 11.1073 15.1376 11.1073 15.6619C11.1073 16.1857 11.4468 16.6287 11.849 16.6287C12.2512 16.6287 12.5911 16.1857 12.5911 15.6619C12.5911 15.1376 12.2512 14.6946 11.849 14.6946Z" fill="#2C7CAC"/>
<path d="M16.0639 6.86179C9.52909 0.848831 9.86335 1.0785 9.34381 0.876675C8.60548 0.5838 7.72694 0.736941 7.12009 1.29519L1.07039 6.86179C0.390156 7.48742 0 8.37773 0 9.305V19.1625C0 20.3239 0.940199 21.2692 2.09563 21.2692H15.0382C16.1937 21.2692 17.1338 20.3239 17.1338 19.1625V9.305C17.1339 8.37773 16.7437 7.48742 16.0639 6.86179ZM7.94342 4.74859C7.98248 4.37399 8.32605 4.10797 8.71045 4.18011C9.07809 4.25677 9.28516 4.60954 9.21663 4.93808C9.14379 5.2881 8.81452 5.51107 8.45866 5.44425C8.11877 5.37335 7.91132 5.06458 7.94342 4.74859ZM3.31427 10.5485C3.31427 9.30457 4.22525 8.29265 5.34505 8.29265C6.46529 8.29265 7.37623 9.30457 7.37623 10.5485C7.37623 11.7925 6.46525 12.8048 5.34505 12.8048C4.22525 12.8048 3.31427 11.7925 3.31427 10.5485ZM7.00928 17.4089C6.55381 17.4089 6.23593 16.9419 6.41545 16.5147L9.55311 9.03644C9.69104 8.70816 10.0687 8.55347 10.397 8.6914C10.7253 8.8289 10.8796 9.20703 10.7421 9.53531L7.60396 17.0136C7.50041 17.2602 7.2615 17.4089 7.00928 17.4089ZM11.849 17.9177C10.7292 17.9177 9.81823 16.9057 9.81823 15.6618C9.81823 14.4178 10.7292 13.4055 11.849 13.4055C12.9688 13.4055 13.8802 14.4178 13.8802 15.6618C13.8802 16.9057 12.9688 17.9177 11.849 17.9177Z" fill="#2C7CAC"/>
<path d="M21.8382 13.9406C19.7396 7.83154 18.574 4.43494 18.5574 4.39636C18.1926 3.55159 17.4836 2.8946 16.6131 2.59425C16.5631 2.57728 16.8579 2.64886 12.1833 1.53979L16.9362 5.91315C17.8811 6.78198 18.423 8.01819 18.423 9.30511V17.6582L20.7416 16.6657C21.7905 16.2119 22.2782 14.9937 21.8382 13.9406Z" fill="#2C7CAC"/>
</svg>
