<svg width="22" height="22" viewBox="0 0 22 22" fill="none" xmlns="http://www.w3.org/2000/svg">
<path d="M2.5381 21.6435C2.5381 21.8596 2.62725 22.0668 2.78594 22.2196C2.94464 22.3724 3.15987 22.4583 3.38429 22.4583H18.6158C18.8402 22.4583 19.0554 22.3724 19.2141 22.2196C19.3728 22.0668 19.462 21.8596 19.462 21.6435V19.1991H2.5381V21.6435ZM21.668 5.51476C21.542 5.42252 21.3917 5.36601 21.2341 5.35162C21.0765 5.33722 20.9179 5.3655 20.7761 5.43328L14.8291 8.29644L11.7861 0.971503C11.7235 0.82004 11.6151 0.690162 11.4749 0.598663C11.3348 0.507164 11.1694 0.458252 11 0.458252C10.8307 0.458252 10.6653 0.507164 10.5251 0.598663C10.385 0.690162 10.2766 0.82004 10.2139 0.971503L7.17101 8.29644L1.22396 5.43328C1.08227 5.36521 0.923577 5.33679 0.76594 5.35125C0.608302 5.36571 0.458041 5.42247 0.332243 5.51508C0.206446 5.60769 0.110159 5.73242 0.0543319 5.87511C-0.00149497 6.01779 -0.0146218 6.1727 0.016444 6.32221L2.35194 17.5695H19.6481L21.9836 6.32221C22.0146 6.17279 22.0015 6.018 21.9457 5.87541C21.8899 5.73282 21.7937 5.60816 21.668 5.51557V5.51476ZM11 14.3104C10.4977 14.2506 10.0395 14.0042 9.72325 13.6236C9.40705 13.243 9.25789 12.7584 9.30765 12.2734C9.25789 11.7884 9.40705 11.3038 9.72325 10.9232C10.0395 10.5427 10.4977 10.2962 11 10.2364C11.5024 10.2962 11.9606 10.5427 12.2768 10.9232C12.593 11.3038 12.7422 11.7884 12.6924 12.2734C12.7422 12.7584 12.593 13.243 12.2768 13.6236C11.9606 14.0042 11.5024 14.2506 11 14.3104Z" fill="#2C7CAC"/>
</svg>
