<svg width="22" height="19" viewBox="0 0 22 19" fill="none" xmlns="http://www.w3.org/2000/svg">
<path fill-rule="evenodd" clip-rule="evenodd" d="M11.2832 0.296621C9.47308 0.235878 7.68947 0.744348 6.18347 1.75045C4.49016 2.88253 3.25006 4.57521 2.6811 6.53101C2.52703 6.5122 2.34254 6.5205 2.12347 6.58246C1.30555 6.81481 0.690654 7.48474 0.414049 8.07502C0.0550163 8.84425 -0.0962865 9.86188 0.0633144 10.9119C0.221809 11.9588 0.6641 12.8218 1.21731 13.3576C1.77218 13.8937 2.39869 14.0679 3.02105 13.9371C3.94767 13.7393 4.40711 13.5913 4.27738 12.7283L3.64949 8.54331C3.71326 7.40428 4.04098 6.29568 4.60676 5.30506C5.17254 4.31444 5.96089 3.46893 6.90955 2.8353C8.18804 1.97999 9.70253 1.54709 11.2399 1.5975C12.7773 1.64791 14.2602 2.1791 15.4799 3.11633C16.322 3.76198 17.0145 4.58214 17.5098 5.52056C18.0052 6.45898 18.2916 7.49344 18.3496 8.55299L17.9104 11.4803C17.4338 12.7867 16.5966 13.9313 15.4959 14.7812C14.3951 15.6311 13.076 16.1516 11.6915 16.2822H9.81999C9.70547 16.2819 9.59203 16.3043 9.48617 16.3479C9.38031 16.3916 9.28412 16.4558 9.20312 16.5367C9.12212 16.6177 9.05789 16.7138 9.01414 16.8197C8.97038 16.9255 8.94795 17.0389 8.94813 17.1535V17.6132C8.94791 17.7277 8.97031 17.8412 9.01406 17.947C9.0578 18.0529 9.12201 18.1491 9.20302 18.2301C9.28403 18.311 9.38023 18.3752 9.4861 18.4189C9.59198 18.4626 9.70545 18.485 9.81999 18.4848H12.1797C12.2941 18.4849 12.4074 18.4625 12.5131 18.4188C12.6189 18.375 12.7149 18.3108 12.7957 18.2299C12.8766 18.1489 12.9406 18.0528 12.9842 17.947C13.0277 17.8412 13.05 17.7279 13.0496 17.6134V17.3728C15.1697 16.8537 17.0167 15.5555 18.2232 13.7366L18.9792 13.9371C19.5944 14.0967 20.2283 13.8934 20.7829 13.3576C21.3361 12.8216 21.7782 11.9588 21.9369 10.9119C22.0974 9.86161 21.9414 8.84591 21.5867 8.07502C21.2308 7.30412 20.7005 6.81453 20.0884 6.63889C19.832 6.56503 19.5537 6.53793 19.315 6.53101C18.8012 4.76214 17.7362 3.20344 16.2751 2.08183C14.8388 0.979241 13.093 0.354873 11.2832 0.296621Z" fill="#2C7CAC"/>
<path fill-rule="evenodd" clip-rule="evenodd" d="M14.0454 7.82557C14.3451 7.82593 14.6325 7.94519 14.8444 8.15718C15.0564 8.36917 15.1756 8.65657 15.1759 8.95633C15.1754 9.25607 15.0561 9.54338 14.8441 9.75533C14.6322 9.96728 14.3448 10.0866 14.0451 10.0871C13.745 10.0872 13.4572 9.9681 13.2449 9.75608C13.0325 9.54405 12.9131 9.2564 12.9127 8.95633C12.9128 8.8077 12.9421 8.66055 12.9991 8.52326C13.056 8.38598 13.1395 8.26127 13.2446 8.15624C13.3498 8.05121 13.4746 7.96792 13.6119 7.91114C13.7493 7.85435 13.8965 7.82518 14.0451 7.82529L14.0454 7.82557ZM11 7.82557C11.2236 7.82568 11.4421 7.89208 11.628 8.01638C11.8139 8.14069 11.9587 8.31731 12.0442 8.52392C12.1297 8.73054 12.1521 8.95786 12.1084 9.17716C12.0647 9.39647 11.957 9.5979 11.7989 9.75599C11.6407 9.91409 11.4393 10.0217 11.22 10.0654C11.0007 10.109 10.7733 10.0866 10.5668 10.001C10.3602 9.91548 10.1836 9.77059 10.0593 9.58469C9.93506 9.39878 9.86871 9.18021 9.86865 8.9566C9.86851 8.808 9.89767 8.66082 9.95447 8.5235C10.0113 8.38617 10.0946 8.2614 10.1997 8.15632C10.3048 8.05124 10.4295 7.96791 10.5669 7.91111C10.7042 7.85431 10.8514 7.82542 11 7.82557ZM7.95538 7.82557C8.10598 7.82224 8.25572 7.84902 8.39583 7.90435C8.53594 7.95968 8.66358 8.04244 8.77126 8.14777C8.87895 8.2531 8.96451 8.37888 9.02292 8.51773C9.08134 8.65657 9.11143 8.80569 9.11143 8.95633C9.11143 9.10696 9.08134 9.25608 9.02292 9.39493C8.96451 9.53377 8.87895 9.65955 8.77126 9.76489C8.66358 9.87022 8.53594 9.95297 8.39583 10.0083C8.25572 10.0636 8.10598 10.0904 7.95538 10.0871C7.65851 10.0824 7.37537 9.96125 7.16708 9.74967C6.95878 9.53809 6.84203 9.25309 6.84203 8.95619C6.84203 8.65928 6.95878 8.37428 7.16708 8.1627C7.37537 7.95112 7.65851 7.83021 7.95538 7.82557ZM11 2.96729C7.68348 2.96729 5.01093 5.55188 5.01093 8.95605C5.01093 10.5911 5.62914 12.036 6.63625 13.0963L6.27888 14.6984C6.16105 15.2256 6.52672 15.5802 7.00082 15.3163L8.56502 14.4436C9.33357 14.7764 10.1625 14.9472 11 14.9454C14.3176 14.9454 16.9885 12.3624 16.9885 8.95688C16.9885 5.55243 14.3176 2.96784 11 2.96784V2.96729Z" fill="#2C7CAC"/>
</svg>
