<svg width="22" height="22" viewBox="0 0 22 22" fill="none" xmlns="http://www.w3.org/2000/svg">
<path fill-rule="evenodd" clip-rule="evenodd" d="M3 0C2.20435 0 1.44129 0.31607 0.87868 0.87868C0.31607 1.44129 0 2.20435 0 3V19C0 19.7956 0.31607 20.5587 0.87868 21.1213C1.44129 21.6839 2.20435 22 3 22H19C19.7956 22 20.5587 21.6839 21.1213 21.1213C21.6839 20.5587 22 19.7956 22 19V3C22 2.20435 21.6839 1.44129 21.1213 0.87868C20.5587 0.31607 19.7956 0 19 0H3ZM15 7C15 8.06087 14.5786 9.07828 13.8284 9.82843C13.0783 10.5786 12.0609 11 11 11C9.93913 11 8.92172 10.5786 8.17157 9.82843C7.42143 9.07828 7 8.06087 7 7C7 5.93913 7.42143 4.92172 8.17157 4.17157C8.92172 3.42143 9.93913 3 11 3C12.0609 3 13.0783 3.42143 13.8284 4.17157C14.5786 4.92172 15 5.93913 15 7ZM18 19C18 18.0807 17.8189 17.1705 17.4672 16.3212C17.1154 15.4719 16.5998 14.7003 15.9497 14.0503C15.2997 13.4002 14.5281 12.8846 13.6788 12.5328C12.8295 12.1811 11.9193 12 11 12C10.0807 12 9.17049 12.1811 8.32122 12.5328C7.47194 12.8846 6.70026 13.4002 6.05025 14.0503C5.40024 14.7003 4.88463 15.4719 4.53284 16.3212C4.18106 17.1705 4 18.0807 4 19H18Z" fill="#2C7CAC"/>
</svg>
