<svg width="28" height="20" viewBox="0 0 28 20" fill="none" xmlns="http://www.w3.org/2000/svg">
<path d="M18.143 11.1807L15.7979 13.571C14.847 14.5404 13.1738 14.5613 12.2022 13.571L9.85708 11.1807L1.43433 19.7649C1.74785 19.9122 2.09353 20.0001 2.46103 20.0001H25.5392C25.9067 20.0001 26.2522 19.9123 26.5656 19.7649L18.143 11.1807Z" fill="#5A9FC9"/>
<path d="M25.5391 0H2.46094C2.09344 0 1.74776 0.087889 1.43434 0.235167L10.4346 9.40867C10.4352 9.40928 10.436 9.40939 10.4366 9.41C10.4369 9.4104 10.4372 9.4109 10.4373 9.41144L13.3638 12.3942C13.6746 12.71 14.3255 12.71 14.6363 12.3942L17.5622 9.41194C17.5622 9.41194 17.5629 9.41061 17.5635 9.41C17.5635 9.41 17.5649 9.40928 17.5655 9.40867L26.5655 0.235111C26.2521 0.0877779 25.9066 0 25.5391 0ZM0.261734 1.40067C0.0995312 1.73389 0 2.10378 0 2.5V17.5C0 17.8962 0.0994219 18.2661 0.26168 18.5993L8.69903 10.0003L0.261734 1.40067ZM27.7383 1.40056L19.301 10.0003L27.7383 18.5994C27.9005 18.2662 28 17.8963 28 17.5V2.5C28 2.10367 27.9005 1.73378 27.7383 1.40056Z" fill="#5A9FC9"/>
</svg>
