<svg width="36" height="37" viewBox="0 0 36 37" fill="none" xmlns="http://www.w3.org/2000/svg">
<path d="M35.5 18.4301C35.5 28.2673 27.6573 36.2278 18 36.2278C8.34272 36.2278 0.5 28.2673 0.5 18.4301C0.5 8.59288 8.34272 0.632324 18 0.632324C27.6573 0.632324 35.5 8.59288 35.5 18.4301Z" fill="#F8FCFF" stroke="#B7D1E0"/>
<path d="M16.7172 18.4304L11.2656 12.8886C10.9109 12.5281 10.9109 11.9452 11.2656 11.5848C11.6202 11.2243 12.1936 11.2243 12.5482 11.5848L17.9999 17.1266L23.4513 11.5848C23.8061 11.2243 24.3793 11.2243 24.7339 11.5848C25.0887 11.9453 25.0887 12.5281 24.7339 12.8886L19.2825 18.4304L24.7339 23.9721C25.0887 24.3326 25.0887 24.9155 24.7339 25.2759C24.6498 25.3616 24.5498 25.4296 24.4397 25.476C24.3297 25.5224 24.2117 25.5462 24.0926 25.546C23.8604 25.546 23.6282 25.4557 23.4513 25.2759L17.9999 19.7341L12.5482 25.2759C12.464 25.3616 12.3641 25.4296 12.254 25.476C12.144 25.5223 12.026 25.5461 11.9069 25.546C11.6747 25.546 11.4425 25.4557 11.2656 25.2759C10.9109 24.9154 10.9109 24.3326 11.2656 23.9721L16.7172 18.4304Z" fill="#B7D1E0"/>
</svg>
