<svg width="40" height="40" viewBox="0 0 40 40" fill="none" xmlns="http://www.w3.org/2000/svg">
<path d="M4.61473 38.5186C4.61473 38.9115 4.77682 39.2883 5.06535 39.5661C5.35389 39.8439 5.74522 40 6.15326 40H33.8469C34.2549 40 34.6462 39.8439 34.9348 39.5661C35.2233 39.2883 35.3854 38.9115 35.3854 38.5186V34.0743H4.61473V38.5186ZM39.3964 9.19364C39.1672 9.02594 38.894 8.9232 38.6075 8.89703C38.3209 8.87085 38.0325 8.92228 37.7747 9.0455L26.9619 14.2512L21.4294 0.933183C21.3154 0.657797 21.1183 0.421655 20.8635 0.255293C20.6087 0.0889309 20.3079 0 20.0001 0C19.6922 0 19.3914 0.0889309 19.1366 0.255293C18.8818 0.421655 18.6847 0.657797 18.5708 0.933183L13.0382 14.2512L2.22539 9.0455C1.96776 8.92174 1.67923 8.87006 1.39262 8.89636C1.106 8.92265 0.832802 9.02585 0.604079 9.19423C0.375356 9.36261 0.200289 9.5894 0.0987853 9.84883C-0.00271813 10.1083 -0.0265852 10.3899 0.0298982 10.6617L4.27625 31.1114H35.7239L39.9702 10.6617C40.0266 10.3901 40.0026 10.1086 39.9012 9.84938C39.7998 9.59013 39.6249 9.36347 39.3964 9.19512V9.19364ZM20.0001 25.1857C19.0867 25.0771 18.2536 24.6289 17.6786 23.937C17.1037 23.245 16.8325 22.364 16.923 21.4821C16.8325 20.6002 17.1037 19.7192 17.6786 19.0273C18.2536 18.3353 19.0867 17.8871 20.0001 17.7785C20.9135 17.8871 21.7466 18.3353 22.3215 19.0273C22.8964 19.7192 23.1676 20.6002 23.0771 21.4821C23.1676 22.364 22.8964 23.245 22.3215 23.937C21.7466 24.6289 20.9135 25.0771 20.0001 25.1857Z" fill="#5A9FC9"/>
</svg>
