<svg width="38" height="39" viewBox="0 0 38 39" fill="none" xmlns="http://www.w3.org/2000/svg">
<path d="M37.5 19.3143C37.5 29.7129 29.2096 38.1286 19 38.1286C8.79043 38.1286 0.5 29.7129 0.5 19.3143C0.5 8.91568 8.79043 0.5 19 0.5C29.2096 0.5 37.5 8.91568 37.5 19.3143Z" fill="#5A9FC9" stroke="#5A9FC9"/>
<path d="M13.9888 13.8718C13.9888 11.1856 16.2369 9 18.9998 9C21.7627 9 24.0108 11.1856 24.0108 13.8718C24.0108 16.5579 21.7627 18.7436 18.9998 18.7436C16.2369 18.7436 13.9888 16.5579 13.9888 13.8718ZM22.1646 20.2821H15.835C12.4908 20.2821 9.76904 22.9282 9.76904 26.1795C9.7696 26.9274 10.0754 27.6445 10.6194 28.1733C11.1633 28.7021 11.9009 28.9995 12.6701 29H25.3295C26.0987 28.9995 26.8363 28.7021 27.3803 28.1733C27.9242 27.6445 28.23 26.9274 28.2306 26.1795C28.2306 22.9282 25.5088 20.2821 22.1646 20.2821Z" fill="white"/>
</svg>
