<svg width="40" height="40" viewBox="0 0 40 40" fill="none" xmlns="http://www.w3.org/2000/svg">
<path d="M19.9845 19.5341C25.3787 19.5341 29.7515 15.1613 29.7515 9.76707C29.7515 4.37287 25.3787 0 19.9845 0C14.5903 0 10.2174 4.37287 10.2174 9.76707C10.2174 15.1613 14.5903 19.5341 19.9845 19.5341Z" fill="#5A9FC9"/>
<path d="M37.4007 30.9527L37.1334 30.2947C36.2351 28.0378 34.6905 26.0963 32.6933 24.7136C30.6961 23.331 28.3351 22.5686 25.9064 22.5222H14.0831C11.6545 22.5686 9.29351 23.331 7.2963 24.7136C5.29909 26.0963 3.75449 28.0378 2.85615 30.2947L2.56828 30.9322C2.11986 31.9613 1.93218 33.0852 2.02184 34.2043C2.11151 35.3233 2.47576 36.403 3.08234 37.3476C3.57627 38.1542 4.26808 38.8213 5.09217 39.2855C5.91625 39.7497 6.84527 39.9957 7.79109 40.0001H32.1574C33.1059 39.9953 34.0376 39.7493 34.865 39.2853C35.6923 38.8213 36.388 38.1545 36.8867 37.3476C37.4881 36.4047 37.8494 35.3289 37.939 34.2141C38.0286 33.0993 37.8438 31.9796 37.4007 30.9527Z" fill="#5A9FC9"/>
</svg>
