<svg width="40" height="36" viewBox="0 0 40 36" fill="none" xmlns="http://www.w3.org/2000/svg">
<path d="M1.17178 35.1535H3.51534C4.16247 35.1535 4.68712 34.6288 4.68712 33.9817V21.0921H1.17178C0.524645 21.0921 0 21.6168 0 22.2639V33.9817C0 34.6287 0.524645 35.1535 1.17178 35.1535ZM30.6225 0C25.4452 0 21.2483 4.19692 21.2483 9.37424C21.2483 14.5514 25.4452 18.7485 30.6225 18.7485C35.7998 18.7485 39.9967 14.5514 39.9967 9.37424C39.9967 4.19692 35.7998 0 30.6225 0ZM32.5862 13.5915C32.3324 13.7184 32.0664 13.8183 31.7941 13.8939V14.2177C31.7941 14.8649 31.2695 15.3895 30.6223 15.3895C29.9752 15.3895 29.4506 14.8649 29.4506 14.2177V13.9306C28.9628 13.8078 28.5079 13.6013 28.1225 13.3124C27.6049 12.9241 27.4999 12.1896 27.8882 11.6719C28.2765 11.1542 29.011 11.0492 29.5287 11.4375C29.9974 11.789 30.8989 11.8151 31.5381 11.4955C31.7951 11.367 31.9337 11.2123 31.9337 11.1321C31.9337 10.9918 31.9337 10.9702 31.7778 10.887C31.472 10.7238 30.9315 10.6235 30.4086 10.5266C29.7106 10.397 28.9889 10.2631 28.3635 9.92935C27.4502 9.44189 26.9674 8.64219 26.9674 7.61672C26.9674 6.59009 27.5831 5.69344 28.6565 5.15677C28.9108 5.03021 29.1767 4.92852 29.4506 4.85312V4.53104C29.4506 3.8839 29.9752 3.35926 30.6223 3.35926C31.2695 3.35926 31.7941 3.8839 31.7941 4.53104V4.81797C32.282 4.94085 32.7368 5.14747 33.1221 5.43643C33.6399 5.82476 33.7448 6.55923 33.3565 7.07692C32.9682 7.59461 32.2339 7.69961 31.716 7.31128C31.2466 6.9592 30.3443 6.93311 29.7045 7.25284C29.4461 7.38205 29.311 7.53368 29.311 7.61664C29.311 7.75695 29.311 7.7785 29.4669 7.86178C29.7726 8.02497 30.3133 8.12527 30.8361 8.22222C31.5341 8.35174 32.2558 8.48563 32.8813 8.81944C33.7945 9.3069 34.2773 10.1066 34.2773 11.1321C34.2774 12.1577 33.6609 13.0542 32.5862 13.5915ZM21.1546 35.7784H21.4124C25.3496 35.7315 29.1226 34.6145 32.4506 32.5989L38.9891 28.029C40.0905 27.2556 40.3015 25.8027 39.575 24.7715C38.825 23.6934 37.372 23.4357 36.3174 24.1856L30.0367 28.5915C28.0212 29.7633 25.5606 30.0211 23.3341 29.271L16.1081 26.8805C15.4988 26.6931 15.1706 26.0134 15.3816 25.4043C15.569 24.8184 16.1784 24.4903 16.7877 24.6543C16.8111 24.6543 24.9042 27.2791 24.9042 27.2791C26.2671 27.6876 27.4779 26.9165 27.8571 25.7792C28.2554 24.5371 27.5759 23.2247 26.3572 22.8263L15.3347 19.2173C12.9238 18.3396 9.67491 18.5209 7.03068 19.9995V33.1174L16.2252 35.2003C17.9096 35.5708 19.5622 35.7784 21.1546 35.7784Z" fill="#5A9FC9"/>
</svg>
