<svg width="32" height="32" viewBox="0 0 32 32" fill="none" xmlns="http://www.w3.org/2000/svg">
<g clip-path="url(#clip0_229_1481)">
<g clip-path="url(#clip1_229_1481)">
<path d="M32 16.0625C32 19.2207 31.0625 22.292 29.2891 24.9446C29.0481 25.3052 28.6521 25.5 28.2488 25.5C28.01 25.5 27.7686 25.4319 27.5552 25.2891C26.9812 24.9055 26.8271 24.1291 27.2107 23.5552C28.7085 21.3152 29.5 18.7244 29.5 16.0625C29.5 14.9187 29.3569 13.7827 29.0747 12.6865C28.9026 12.0181 29.3052 11.3364 29.9736 11.1643C30.6426 10.9924 31.3237 11.3947 31.4959 12.0632C31.8303 13.3631 32 14.7085 32 16.0625ZM22.9834 27.6184C20.8838 28.8901 18.469 29.5625 16 29.5625C8.55613 29.5625 2.5 23.5064 2.5 16.0625C2.5 8.61863 8.55613 2.5625 16 2.5625C18.7561 2.5625 21.4062 3.38719 23.6643 4.9475C24.2322 5.33988 25.0107 5.1975 25.4033 4.62962C25.7956 4.06175 25.6536 3.28319 25.0854 2.89062C22.4077 1.0405 19.2661 0.0625 16 0.0625C11.7263 0.0625 7.70825 1.72681 4.68625 4.74875C1.66438 7.77075 0 11.7888 0 16.0625C0 20.3362 1.66431 24.3542 4.68625 27.3762C7.70825 30.3981 11.7263 32.0625 16 32.0625C18.9258 32.0625 21.7886 31.2651 24.2787 29.7566C24.8694 29.3989 25.0581 28.6303 24.7004 28.0398C24.3425 27.4492 23.574 27.2607 22.9834 27.6184ZM16.1206 19.687C15.9226 19.6948 15.7378 19.6245 15.5942 19.4878L9.04762 13.2805C8.54662 12.8054 7.75537 12.8264 7.2805 13.3274C6.80544 13.8284 6.82644 14.6196 7.32737 15.0945L13.8728 21.3008C14.4773 21.8755 15.2593 22.1875 16.0879 22.1875C16.1323 22.1875 16.1768 22.1865 16.2212 22.1848C17.0989 22.1494 17.905 21.7696 18.4909 21.115C18.5059 21.0986 18.52 21.0818 18.5339 21.0644L31.7241 4.65819C32.1567 4.12006 32.0713 3.33325 31.5332 2.90088C30.9954 2.46825 30.2083 2.55369 29.7757 3.09181L16.6112 19.4661C16.4827 19.6008 16.3067 19.6801 16.1206 19.687H16.1206Z" fill="#2C7CAC"/>
</g>
</g>
<defs>
<clipPath id="clip0_229_1481">
<rect width="32" height="32" fill="white"/>
</clipPath>
<clipPath id="clip1_229_1481">
<rect width="32" height="32" fill="white"/>
</clipPath>
</defs>
</svg>
