<svg width="32" height="32" viewBox="0 0 32 32" fill="none" xmlns="http://www.w3.org/2000/svg">
<g clip-path="url(#clip0_229_1484)">
<path d="M8.28648 27.1517C6.51478 28.169 4.51774 28.5338 3.33517 28.6648C3.46609 27.4822 3.83095 25.4851 4.84718 23.7124C4.91212 23.6023 4.95457 23.4804 4.97207 23.3538C4.98956 23.2272 4.98176 23.0984 4.94911 22.9749C4.91646 22.8513 4.85961 22.7355 4.78186 22.634C4.7041 22.5326 4.60699 22.4476 4.49615 22.384C4.38531 22.3204 4.26295 22.2794 4.13615 22.2634C4.00935 22.2474 3.88064 22.2568 3.75748 22.2909C3.63432 22.325 3.51916 22.3832 3.41867 22.4622C3.31817 22.5412 3.23435 22.6393 3.17206 22.7509C1.35208 25.9251 1.33062 29.5501 1.33062 29.7035C1.33062 29.9597 1.43237 30.2053 1.61349 30.3864C1.79461 30.5676 2.04027 30.6693 2.29641 30.6693C2.44986 30.6693 6.07481 30.6478 9.24905 28.8279C9.35911 28.7647 9.45564 28.6804 9.53314 28.5799C9.61064 28.4794 9.66757 28.3646 9.70071 28.2421C9.73384 28.1196 9.74252 27.9917 9.72624 27.8658C9.70997 27.74 9.66906 27.6185 9.60586 27.5085C9.54265 27.3984 9.45839 27.3019 9.35788 27.2244C9.25737 27.1469 9.14258 27.09 9.02006 27.0568C8.89755 27.0237 8.76971 27.015 8.64384 27.0313C8.51797 27.0476 8.39654 27.0885 8.28648 27.1517ZM31.9989 2.34473C32.0061 2.03455 31.9501 1.72614 31.8343 1.43832C31.7184 1.1505 31.5451 0.889307 31.3249 0.67069C30.8796 0.225352 30.2357 0.00536552 29.6541 0C26.9799 0.0504359 19.7665 0.817705 12.9416 6.94406C11.7247 6.47082 9.89077 5.76793 8.49895 5.94714C6.45147 6.21005 3.42639 8.99583 0.463549 11.9683C0.270939 12.1599 0.131246 12.3981 0.0580886 12.6597C-0.0150692 12.9213 -0.0191958 13.1973 0.0461112 13.461C0.17703 14.004 0.574078 14.43 1.10634 14.6007L5.81726 16.1137C5.45234 16.775 5.10454 17.4455 4.77421 18.1247C4.56703 18.5552 4.4989 19.0394 4.57927 19.5103C4.65965 19.9812 4.88454 20.4154 5.22276 20.7528L11.2461 26.7761C11.5838 27.114 12.0182 27.3388 12.4891 27.4193C12.96 27.4999 13.4444 27.4322 13.8752 27.2257C14.5749 26.8877 15.238 26.5379 15.8841 26.1837L17.3982 30.8936C17.4997 31.2163 17.7021 31.498 17.9756 31.6972C18.2492 31.8963 18.5794 32.0025 18.9177 32C19.3309 32 19.729 31.8379 20.0316 31.5364C23.0041 28.5735 25.7899 25.5495 26.0517 23.5031C26.2331 22.0984 25.528 20.2752 25.0548 19.0583C31.1801 12.2334 31.9484 5.01998 31.9989 2.34473ZM2.22988 12.9341C3.80198 11.3685 7.21659 8.06008 8.74469 7.86371C9.42611 7.77678 10.496 8.09979 11.3996 8.42708C9.80385 10.0764 8.25428 12.0531 6.80988 14.4043L2.22988 12.9341ZM13.035 25.4862C12.9653 25.5184 12.8874 25.5285 12.8118 25.515C12.7362 25.5016 12.6665 25.4653 12.6122 25.4111L6.58775 19.3867C6.53356 19.3323 6.49739 19.2626 6.48415 19.187C6.4709 19.1113 6.48122 19.0335 6.51371 18.9639C14.0158 3.42427 26.1504 1.99919 29.6917 1.93266H29.7003C29.828 1.93266 29.9117 1.98953 29.961 2.0389C29.9964 2.07434 30.0242 2.11656 30.0429 2.16303C30.0615 2.20951 30.0705 2.25927 30.0694 2.30932C30.0007 5.85056 28.5746 17.9852 13.035 25.4862ZM24.1362 23.2563C23.9398 24.7833 20.6315 28.199 19.0658 29.77L17.5935 25.1911C19.9468 23.7467 21.9235 22.1961 23.5728 20.6004C23.9012 21.5029 24.2242 22.5706 24.1362 23.2563Z" fill="#2C7CAC"/>
<path d="M24.7221 13.0103C25.4808 12.2494 25.9069 11.2186 25.9069 10.1441C25.9069 9.06951 25.4808 8.03877 24.7221 7.27781C23.1897 5.74757 20.5198 5.74757 18.9896 7.27781C18.2245 8.04293 17.8027 9.06131 17.8027 10.1441C17.8027 11.2268 18.2255 12.2452 18.9896 13.0103C19.7547 13.7755 20.7731 14.1972 21.8558 14.1972C22.9386 14.1972 23.9559 13.7755 24.7221 13.0103ZM23.355 11.6443C22.5534 12.447 21.1551 12.447 20.3556 11.6443C19.9543 11.244 19.7332 10.7107 19.7332 10.1441C19.7332 9.57747 19.9543 9.04521 20.3556 8.64387C20.552 8.44633 20.7857 8.28971 21.043 8.18306C21.3003 8.07641 21.5762 8.02185 21.8548 8.02255C22.2742 8.02304 22.684 8.14775 23.0326 8.38095C23.3811 8.61415 23.6528 8.94538 23.8133 9.33284C23.9738 9.72031 24.0159 10.1466 23.9344 10.558C23.8528 10.9694 23.6512 11.3474 23.355 11.6443Z" fill="#2C7CAC"/>
</g>
<defs>
<clipPath id="clip0_229_1484">
<rect width="32" height="32" fill="white"/>
</clipPath>
</defs>
</svg>
