<svg width="32" height="32" viewBox="0 0 32 32" fill="none" xmlns="http://www.w3.org/2000/svg">
<g clip-path="url(#clip0_229_1485)">
<g clip-path="url(#clip1_229_1485)">
<path d="M16 21.9302C15.1054 21.9302 14.3555 22.6801 14.3555 23.5747C14.3555 24.4693 15.1054 25.2192 16 25.2192C16.8617 25.2192 17.6445 24.4693 17.605 23.6142C17.6445 22.6735 16.9012 21.9302 16 21.9302Z" fill="#2C7CAC"/>
<path d="M31.2213 27.7584C32.2541 25.9757 32.2607 23.851 31.2345 22.0749L20.9332 4.2351C19.9136 2.43928 18.0717 1.37363 16.0062 1.37363C13.9407 1.37363 12.0988 2.44586 11.0792 4.22852L0.764735 22.0881C-0.261448 23.8839 -0.25487 26.0218 0.784469 27.8044C1.81065 29.5673 3.64594 30.6264 5.69831 30.6264H26.2746C28.3335 30.6264 30.182 29.5542 31.2213 27.7584ZM28.9848 26.4691C28.4125 27.4558 27.3994 28.0412 26.268 28.0412H5.69173C4.57345 28.0412 3.567 27.4689 3.00787 26.502C2.44215 25.5218 2.43557 24.3509 3.00129 23.3642L13.3157 5.51125C13.8749 4.53111 14.8747 3.95224 16.0062 3.95224C17.131 3.95224 18.1375 4.53769 18.6966 5.51783L29.0045 23.3708C29.5571 24.3312 29.5505 25.4889 28.9848 26.4691Z" fill="#2C7CAC"/>
<path d="M15.5918 10.3856C14.809 10.6093 14.3223 11.3197 14.3223 12.1815C14.3617 12.7011 14.3946 13.2274 14.4341 13.747C14.5459 15.727 14.6577 17.6676 14.7696 19.6476C14.809 20.3186 15.3287 20.8053 15.9997 20.8053C16.6706 20.8053 17.1969 20.2857 17.2298 19.6081C17.2298 19.2003 17.2298 18.8253 17.2693 18.4109C17.3416 17.1413 17.4205 15.8718 17.4929 14.6022C17.5324 13.7799 17.6047 12.9577 17.6442 12.1354C17.6442 11.8394 17.6047 11.5763 17.4929 11.3131C17.1574 10.5764 16.3746 10.2014 15.5918 10.3856Z" fill="#2C7CAC"/>
</g>
</g>
<defs>
<clipPath id="clip0_229_1485">
<rect width="32" height="32" fill="white"/>
</clipPath>
<clipPath id="clip1_229_1485">
<rect width="32" height="32" fill="white"/>
</clipPath>
</defs>
</svg>
