<svg width="32" height="32" viewBox="0 0 32 32" fill="none" xmlns="http://www.w3.org/2000/svg">
<g clip-path="url(#clip0_229_1486)">
<path fill-rule="evenodd" clip-rule="evenodd" d="M31.6096 7.05731C31.8595 7.30735 31.9999 7.64643 31.9999 7.99998C31.9999 8.35353 31.8595 8.69261 31.6096 8.94265L18.9429 21.6093C18.6928 21.8593 18.3538 21.9997 18.0002 21.9997C17.6467 21.9997 17.3076 21.8593 17.0576 21.6093L11.3336 15.8853L2.27622 24.9426C2.02475 25.1855 1.68794 25.3199 1.33835 25.3169C0.988753 25.3138 0.654337 25.1736 0.407126 24.9264C0.159915 24.6792 0.0196899 24.3448 0.016652 23.9952C0.0136141 23.6456 0.148007 23.3088 0.390884 23.0573L10.3909 13.0573C10.6409 12.8074 10.98 12.6669 11.3336 12.6669C11.6871 12.6669 12.0262 12.8074 12.2762 13.0573L18.0002 18.7813L29.7242 7.05731C29.9743 6.80735 30.3133 6.66693 30.6669 6.66693C31.0204 6.66693 31.3595 6.80735 31.6096 7.05731Z" fill="#2C7CAC"/>
<path fill-rule="evenodd" clip-rule="evenodd" d="M21.334 7.99999C21.334 7.64637 21.4745 7.30723 21.7245 7.05718C21.9746 6.80713 22.3137 6.66666 22.6673 6.66666H30.6673C31.0209 6.66666 31.3601 6.80713 31.6101 7.05718C31.8602 7.30723 32.0007 7.64637 32.0007 7.99999V16C32.0007 16.3536 31.8602 16.6928 31.6101 16.9428C31.3601 17.1928 31.0209 17.3333 30.6673 17.3333C30.3137 17.3333 29.9746 17.1928 29.7245 16.9428C29.4745 16.6928 29.334 16.3536 29.334 16V9.33332H22.6673C22.3137 9.33332 21.9746 9.19285 21.7245 8.9428C21.4745 8.69275 21.334 8.35361 21.334 7.99999Z" fill="#2C7CAC"/>
</g>
<defs>
<clipPath id="clip0_229_1486">
<rect width="32" height="32" fill="white" transform="matrix(1 0 0 -1 0 32)"/>
</clipPath>
</defs>
</svg>
