<svg width="32" height="32" viewBox="0 0 32 32" fill="none" xmlns="http://www.w3.org/2000/svg">
<g clip-path="url(#clip0_229_1487)">
<path d="M15.9999 20.2207C14.5486 20.2208 13.0978 19.8659 11.7749 19.1564L2.23539 14.0395C0.852087 13.2976 -0.00430544 11.8628 0.000189904 10.2951C0.00474518 8.72744 0.869469 7.29768 2.25703 6.56368L11.8205 1.5051C13.1081 0.82336 14.543 0.466949 15.9999 0.466949C17.4568 0.466949 18.8916 0.82336 20.1792 1.5051L29.7427 6.56368C31.1303 7.29762 31.995 8.72738 31.9996 10.2951C32.0041 11.8628 31.1477 13.2976 29.7644 14.0395L20.2249 19.1564C18.9023 19.8659 17.4509 20.2206 15.9999 20.2207ZM15.9999 2.96717C14.9504 2.96721 13.9169 3.22396 12.9894 3.71501L3.42606 8.77365C2.84826 9.07928 2.50212 9.65084 2.50026 10.3024C2.4984 10.954 2.84113 11.5276 3.41719 11.8365L12.9567 16.9534C14.8624 17.9756 17.1377 17.9756 19.0434 16.9534L28.583 11.8365C29.159 11.5276 29.5017 10.9541 29.4999 10.3024C29.498 9.65078 29.1519 9.07928 28.5741 8.77365L19.0103 3.71501C18.0828 3.22398 17.0493 2.96724 15.9999 2.96717ZM20.2249 30.4687L31.3405 24.5067C31.9489 24.1804 32.1775 23.4227 31.8512 22.8143C31.5249 22.206 30.7673 21.9773 30.1589 22.3036L19.0432 28.2656C17.1377 29.2878 14.8624 29.2878 12.9518 28.2631L1.83621 22.3635C1.22628 22.0399 0.469683 22.2719 0.146139 22.8817C-0.177526 23.4915 0.0544337 24.2481 0.664242 24.5717L11.7749 30.4687C13.0979 31.1783 14.5487 31.533 16 31.533C17.4509 31.533 18.9023 31.1782 20.2249 30.4687ZM20.2249 24.8438L31.3405 18.8818C31.9489 18.5555 32.1775 17.7978 31.8512 17.1895C31.5249 16.581 30.7673 16.3525 30.1589 16.6787L19.0432 22.6408C17.1377 23.663 14.8624 23.6629 12.9518 22.6382L1.83621 16.7387C1.22628 16.415 0.469683 16.647 0.146139 17.2568C-0.177526 17.8666 0.0544337 18.6232 0.664242 18.9469L11.7749 24.8438C13.0979 25.5534 14.5487 25.9081 16 25.9081C17.4509 25.9081 18.9023 25.5533 20.2249 24.8438Z" fill="#2C7CAC"/>
</g>
<defs>
<clipPath id="clip0_229_1487">
<rect width="32" height="32" fill="white"/>
</clipPath>
</defs>
</svg>
