<svg width="32" height="32" viewBox="0 0 32 32" fill="none" xmlns="http://www.w3.org/2000/svg">
<path d="M27.904 7.86288L21.2765 1.11578C20.5963 0.427355 19.6769 0.0396794 18.7178 0.0368338H10.0671C9.25223 -0.0593121 8.4266 0.0333572 7.65192 0.307909C6.87723 0.582462 6.17356 1.03179 5.59353 1.62228C5.01351 2.21277 4.57214 2.92914 4.30245 3.7178C4.03277 4.50646 3.94174 5.34699 4.03618 6.17651V25.8235C3.94174 26.653 4.03277 27.4935 4.30245 28.2822C4.57214 29.0709 5.01351 29.7872 5.59353 30.3777C6.17356 30.9682 6.87723 31.4175 7.65192 31.6921C8.4266 31.9666 9.25223 32.0593 10.0671 31.9632H22.9329C23.7478 32.0593 24.5734 31.9666 25.3481 31.6921C26.1228 31.4175 26.8264 30.9682 27.4065 30.3777C27.9865 29.7872 28.4279 29.0709 28.6975 28.2822C28.9672 27.4935 29.0583 26.653 28.9638 25.8235V10.4677C28.961 9.4913 28.5802 8.55535 27.904 7.86288ZM26.5515 25.8235C26.5515 28.4054 25.4691 29.5073 22.9329 29.5073H10.0671C7.53088 29.5073 6.44853 28.4054 6.44853 25.8235V6.17651C6.44853 3.59457 7.53088 2.49271 10.0671 2.49271H18.7178C19.0374 2.49353 19.3438 2.62301 19.5701 2.8529L26.1977 9.6C26.4235 9.83036 26.5507 10.1423 26.5515 10.4677V25.8235ZM20.5206 11.4976H12.4794C11.9929 11.4514 11.5024 11.5149 11.0427 11.6837C10.5831 11.8525 10.1657 12.1224 9.82017 12.4742C9.47466 12.8259 9.20956 13.2509 9.04376 13.7188C8.87795 14.1867 8.81551 14.6861 8.86089 15.1814V23.3676C8.81551 23.8629 8.87795 24.3623 9.04376 24.8302C9.20956 25.2981 9.47466 25.7231 9.82017 26.0748C10.1657 26.4266 10.5831 26.6965 11.0427 26.8653C11.5024 27.034 11.9929 27.0976 12.4794 27.0514H20.5206C21.0071 27.0976 21.4976 27.034 21.9573 26.8653C22.4169 26.6965 22.8343 26.4266 23.1798 26.0748C23.5253 25.7231 23.7904 25.2981 23.9562 24.8302C24.122 24.3623 24.1845 23.8629 24.1391 23.3676V15.1814C24.1845 14.6861 24.122 14.1867 23.9562 13.7188C23.7904 13.2509 23.5253 12.8259 23.1798 12.4742C22.8343 12.1224 22.4169 11.8525 21.9573 11.6837C21.4976 11.5149 21.0071 11.4514 20.5206 11.4976ZM21.7268 15.1814V18.0466H17.7062V13.9534H20.5206C21.4678 13.9534 21.7268 14.217 21.7268 15.1814ZM11.2732 23.3676V15.1814C11.2732 14.217 11.5322 13.9534 12.4794 13.9534H15.2938V24.5956H12.4794C11.5322 24.5956 11.2732 24.332 11.2732 23.3676ZM20.5206 24.5956H17.7062V20.5024H21.7268V23.3676C21.7268 24.332 21.4678 24.5956 20.5206 24.5956Z" fill="#2C7CAC"/>
</svg>
