<svg width="26" height="26" viewBox="0 0 26 26" fill="none" xmlns="http://www.w3.org/2000/svg">
<path fill-rule="evenodd" clip-rule="evenodd" d="M9.47179 13.8321L1.65359 21.6503C1.88759 21.7621 2.14759 21.8219 2.41279 21.8219H23.5846C23.8498 21.8219 24.1098 21.7621 24.3438 21.6503L16.5282 13.8321L15.08 15.2803C14.5288 15.8315 13.78 16.1409 13 16.1409C12.22 16.1409 11.4712 15.8315 10.92 15.2803L9.47179 13.8321ZM25.1784 5.18188C25.2902 5.41588 25.35 5.67588 25.35 5.94108V20.0565C25.35 20.3217 25.2902 20.5817 25.1784 20.8157L17.3602 13.0001L25.1784 5.18188ZM0.821594 5.18188L8.63979 13.0001L0.821594 20.8183C0.709794 20.5843 0.649994 20.3243 0.649994 20.0591V5.94368C0.649994 5.67588 0.709794 5.41848 0.821594 5.18188Z" fill="#2C7CAC"/>
<path fill-rule="evenodd" clip-rule="evenodd" d="M24.3464 4.34982C24.1124 4.23802 23.8524 4.17822 23.5872 4.17822H2.41539C2.15019 4.17822 1.89019 4.23802 1.65619 4.34982L11.752 14.4482C12.0822 14.7784 12.532 14.9656 13 14.9656C13.468 14.9656 13.9178 14.781 14.248 14.4482L24.3464 4.34982Z" fill="#2C7CAC"/>
</svg>
