<svg width="243" height="40" viewBox="0 0 243 40" fill="none" xmlns="http://www.w3.org/2000/svg">
<path d="M72.0668 29.1852C70.3386 29.1852 68.7515 28.7796 67.3054 27.9684C65.8594 27.1572 64.7131 26.0374 63.8666 24.6089C63.0201 23.1629 62.5969 21.5317 62.5969 19.7153C62.5969 17.9165 63.0201 16.3029 63.8666 14.8745C64.7131 13.4285 65.8594 12.2998 67.3054 11.4886C68.7515 10.6774 70.3386 10.2718 72.0668 10.2718C73.8127 10.2718 75.3998 10.6774 76.8282 11.4886C78.2743 12.2998 79.4117 13.4285 80.2405 14.8745C81.087 16.3029 81.5103 17.9165 81.5103 19.7153C81.5103 21.5317 81.087 23.1629 80.2405 24.6089C79.4117 26.0374 78.2743 27.1572 76.8282 27.9684C75.3822 28.7796 73.795 29.1852 72.0668 29.1852ZM72.0668 25.8786C73.1778 25.8786 74.1565 25.6317 75.003 25.138C75.8495 24.6266 76.5108 23.9035 76.9869 22.9689C77.4631 22.0342 77.7011 20.9497 77.7011 19.7153C77.7011 18.4808 77.4631 17.4051 76.9869 16.4881C76.5108 15.5534 75.8495 14.8392 75.003 14.3455C74.1565 13.8517 73.1778 13.6048 72.0668 13.6048C70.9558 13.6048 69.9683 13.8517 69.1042 14.3455C68.2577 14.8392 67.5964 15.5534 67.1202 16.4881C66.6441 17.4051 66.406 18.4808 66.406 19.7153C66.406 20.9497 66.6441 22.0342 67.1202 22.9689C67.5964 23.9035 68.2577 24.6266 69.1042 25.138C69.9683 25.6317 70.9558 25.8786 72.0668 25.8786ZM87.9687 16.4616C88.4449 15.7915 89.0974 15.236 89.9262 14.7952C90.7727 14.3366 91.7338 14.1074 92.8095 14.1074C94.0616 14.1074 95.1902 14.416 96.1954 15.0332C97.2182 15.6504 98.0206 16.5322 98.6025 17.6784C99.2021 18.8071 99.5019 20.1209 99.5019 21.6198C99.5019 23.1188 99.2021 24.4502 98.6025 25.6141C98.0206 26.7604 97.2182 27.6509 96.1954 28.2858C95.1902 28.9206 94.0616 29.2381 92.8095 29.2381C91.7338 29.2381 90.7815 29.0176 89.9526 28.5768C89.1414 28.1359 88.4801 27.5804 87.9687 26.9103V35.9834H84.2654V14.3455H87.9687V16.4616ZM95.7192 21.6198C95.7192 20.7381 95.5341 19.9798 95.1637 19.3449C94.811 18.6924 94.3349 18.1987 93.7353 17.8636C93.1534 17.5285 92.5185 17.361 91.8308 17.361C91.1606 17.361 90.5258 17.5374 89.9262 17.8901C89.3442 18.2251 88.8681 18.7189 88.4978 19.3714C88.1451 20.0239 87.9687 20.791 87.9687 21.6727C87.9687 22.5545 88.1451 23.3216 88.4978 23.9741C88.8681 24.6266 89.3442 25.1292 89.9262 25.4819C90.5258 25.8169 91.1606 25.9844 91.8308 25.9844C92.5185 25.9844 93.1534 25.8081 93.7353 25.4554C94.3349 25.1027 94.811 24.6001 95.1637 23.9476C95.5341 23.2951 95.7192 22.5192 95.7192 21.6198ZM106.505 17.3875V24.4767C106.505 24.9704 106.619 25.332 106.849 25.5612C107.095 25.7728 107.501 25.8786 108.065 25.8786H109.785V29H107.457C104.336 29 102.775 27.4834 102.775 24.4502V17.3875H101.029V14.3455H102.775V10.7215H106.505V14.3455H109.785V17.3875H106.505ZM114.327 12.5996C113.674 12.5996 113.127 12.3968 112.686 11.9912C112.263 11.568 112.052 11.0478 112.052 10.4305C112.052 9.81331 112.263 9.3019 112.686 8.8963C113.127 8.47307 113.674 8.26145 114.327 8.26145C114.979 8.26145 115.517 8.47307 115.94 8.8963C116.381 9.3019 116.601 9.81331 116.601 10.4305C116.601 11.0478 116.381 11.568 115.94 11.9912C115.517 12.3968 114.979 12.5996 114.327 12.5996ZM116.152 14.3455V29H112.448V14.3455H116.152ZM126.318 29.2381C124.907 29.2381 123.637 28.9295 122.509 28.3122C121.38 27.6774 120.49 26.7868 119.837 25.6406C119.202 24.4943 118.885 23.1717 118.885 21.6727C118.885 20.1738 119.211 18.8512 119.864 17.7049C120.534 16.5586 121.442 15.6769 122.588 15.0597C123.734 14.4248 125.013 14.1074 126.424 14.1074C127.834 14.1074 129.113 14.4248 130.259 15.0597C131.406 15.6769 132.305 16.5586 132.957 17.7049C133.627 18.8512 133.963 20.1738 133.963 21.6727C133.963 23.1717 133.619 24.4943 132.931 25.6406C132.261 26.7868 131.344 27.6774 130.18 28.3122C129.034 28.9295 127.746 29.2381 126.318 29.2381ZM126.318 26.0109C126.988 26.0109 127.614 25.8522 128.196 25.5348C128.796 25.1997 129.272 24.7059 129.624 24.0534C129.977 23.4009 130.153 22.6074 130.153 21.6727C130.153 20.2796 129.783 19.2127 129.042 18.472C128.319 17.7137 127.429 17.3346 126.371 17.3346C125.313 17.3346 124.422 17.7137 123.699 18.472C122.994 19.2127 122.641 20.2796 122.641 21.6727C122.641 23.0659 122.985 24.1416 123.673 24.8999C124.378 25.6406 125.26 26.0109 126.318 26.0109ZM144.8 14.1338C146.546 14.1338 147.957 14.6893 149.032 15.8003C150.108 16.8937 150.646 18.4279 150.646 20.403V29H146.943V20.9056C146.943 19.7417 146.652 18.8512 146.07 18.2339C145.488 17.5991 144.694 17.2817 143.689 17.2817C142.666 17.2817 141.855 17.5991 141.255 18.2339C140.673 18.8512 140.382 19.7417 140.382 20.9056V29H136.679V14.3455H140.382V16.1707C140.876 15.5358 141.502 15.042 142.26 14.6893C143.036 14.319 143.883 14.1338 144.8 14.1338ZM180.601 10.5363V29H176.897V16.9907L171.951 29H169.147L164.174 16.9907V29H160.471V10.5363H164.676L170.549 24.2651L176.421 10.5363H180.601ZM183.31 21.6198C183.31 20.1385 183.601 18.8247 184.183 17.6784C184.782 16.5322 185.585 15.6504 186.59 15.0332C187.613 14.416 188.75 14.1074 190.002 14.1074C191.096 14.1074 192.048 14.3278 192.859 14.7687C193.688 15.2096 194.349 15.7651 194.843 16.4352V14.3455H198.573V29H194.843V26.8574C194.367 27.5451 193.706 28.1183 192.859 28.5768C192.03 29.0176 191.069 29.2381 189.976 29.2381C188.741 29.2381 187.613 28.9206 186.59 28.2858C185.585 27.6509 184.782 26.7604 184.183 25.6141C183.601 24.4502 183.31 23.1188 183.31 21.6198ZM194.843 21.6727C194.843 20.7734 194.667 20.0062 194.314 19.3714C193.961 18.7189 193.485 18.2251 192.886 17.8901C192.286 17.5374 191.642 17.361 190.955 17.361C190.267 17.361 189.632 17.5285 189.05 17.8636C188.468 18.1987 187.992 18.6924 187.622 19.3449C187.269 19.9798 187.092 20.7381 187.092 21.6198C187.092 22.5016 187.269 23.2775 187.622 23.9476C187.992 24.6001 188.468 25.1027 189.05 25.4554C189.65 25.8081 190.284 25.9844 190.955 25.9844C191.642 25.9844 192.286 25.8169 192.886 25.4819C193.485 25.1292 193.961 24.6354 194.314 24.0005C194.667 23.348 194.843 22.5721 194.843 21.6727ZM206.501 17.3875V24.4767C206.501 24.9704 206.616 25.332 206.845 25.5612C207.092 25.7728 207.498 25.8786 208.062 25.8786H209.781V29H207.454C204.332 29 202.772 27.4834 202.772 24.4502V17.3875H201.026V14.3455H202.772V10.7215H206.501V14.3455H209.781V17.3875H206.501ZM216.148 16.6204C216.625 15.8444 217.242 15.236 218 14.7952C218.776 14.3543 219.658 14.1338 220.645 14.1338V18.0223H219.667C218.503 18.0223 217.621 18.2957 217.021 18.8423C216.439 19.389 216.148 20.3413 216.148 21.6992V29H212.445V14.3455H216.148V16.6204ZM225.018 12.5996C224.365 12.5996 223.819 12.3968 223.378 11.9912C222.954 11.568 222.743 11.0478 222.743 10.4305C222.743 9.81331 222.954 9.3019 223.378 8.8963C223.819 8.47307 224.365 8.26145 225.018 8.26145C225.67 8.26145 226.208 8.47307 226.631 8.8963C227.072 9.3019 227.293 9.81331 227.293 10.4305C227.293 11.0478 227.072 11.568 226.631 11.9912C226.208 12.3968 225.67 12.5996 225.018 12.5996ZM226.843 14.3455V29H223.14V14.3455H226.843ZM238.596 29L235.581 24.4502L232.909 29H228.941L233.729 21.6463L228.888 14.3455H233.068L236.057 18.8688L238.755 14.3455H242.723L237.908 21.6463L242.776 29H238.596Z" fill="#F8FCFF"/>
<path d="M8.56439 5.70142C5.71771 5.70142 3.40173 8.0174 3.40173 10.8641C3.40173 13.7107 5.71771 16.0267 8.56439 16.0267C11.4111 16.0267 13.727 13.7107 13.727 10.8641C13.727 8.0174 11.4111 5.70142 8.56439 5.70142ZM8.56439 15.3473C6.09233 15.3473 4.08118 13.3361 4.08118 10.8641C4.08118 8.39201 6.09233 6.38086 8.56439 6.38086C11.0364 6.38086 13.0476 8.39201 13.0476 10.8641C13.0476 13.3361 11.0364 15.3473 8.56439 15.3473Z" fill="#F8FCFF"/>
<path d="M8.91531 10.5586V8.62978C9.11055 8.70227 9.27753 8.83523 9.39189 9.00929C9.44189 9.08348 9.51915 9.13496 9.60687 9.15253C9.6946 9.17011 9.78571 9.15236 9.86044 9.10316C9.93516 9.05396 9.98746 8.97726 10.006 8.88973C10.0245 8.8022 10.0077 8.71089 9.95932 8.63565C9.71908 8.26989 9.34366 8.01428 8.91531 7.9248V7.38513C8.91531 7.29503 8.87952 7.20862 8.81581 7.14491C8.7521 7.0812 8.66569 7.04541 8.57559 7.04541C8.48549 7.04541 8.39908 7.0812 8.33537 7.14491C8.27166 7.20862 8.23587 7.29503 8.23587 7.38513V7.92378C7.48397 8.08054 6.91736 8.74829 6.91736 9.546C6.91736 10.3437 7.48401 11.0116 8.23587 11.1683V13.0972C8.04062 13.0247 7.87365 12.8917 7.75929 12.7176C7.73499 12.6799 7.70343 12.6473 7.66646 12.6218C7.62948 12.5963 7.58781 12.5784 7.54387 12.5691C7.49992 12.5598 7.45457 12.5593 7.41043 12.5676C7.36629 12.576 7.32425 12.593 7.28673 12.6177C7.24922 12.6424 7.21697 12.6743 7.19186 12.7115C7.16676 12.7488 7.14929 12.7906 7.14046 12.8347C7.13164 12.8787 7.13164 12.9241 7.14046 12.9681C7.14928 13.0122 7.16675 13.054 7.19185 13.0913C7.43209 13.457 7.80752 13.7127 8.23587 13.8021V14.3418C8.23587 14.4319 8.27166 14.5183 8.33537 14.582C8.39908 14.6457 8.48549 14.6815 8.57559 14.6815C8.66569 14.6815 8.7521 14.6457 8.81581 14.582C8.87952 14.5183 8.91531 14.4319 8.91531 14.3418V13.8032C9.66721 13.6464 10.2338 12.9787 10.2338 12.1809C10.2338 11.3832 9.66721 10.7154 8.91531 10.5586ZM7.5968 9.546C7.5968 9.12606 7.86343 8.76819 8.23587 8.63002V10.462C7.86343 10.3238 7.5968 9.96595 7.5968 9.546ZM8.91531 13.0969V11.2649C9.28774 11.4031 9.55438 11.7609 9.55438 12.1809C9.55438 12.6008 9.28779 12.9587 8.91531 13.0969Z" fill="#F8FCFF"/>
<path d="M27.8434 37.4529H26.1422H24.441H21.3788H19.6776H17.9763H16.2751H13.2129H11.5117H9.81409H8.11287H5.05069H3.34947H1.98672C1.51693 37.4529 1.13611 37.862 1.13611 38.3665C1.13611 38.8711 1.51693 39.2802 1.98672 39.2802H43.8366C44.3064 39.2802 44.6872 38.8711 44.6872 38.3665C44.6872 37.862 44.3064 37.4529 43.8366 37.4529H42.4738H40.7726H37.7104H36.0092H34.308H32.6068H29.5464M27.8434 37.4529H29.5464M27.8434 37.4529H29.5446H29.5464" stroke="#F8FCFF" stroke-width="0.897857"/>
<path d="M30.5706 13.9634L41.4237 3.11028C41.4802 3.05372 41.4402 2.95701 41.3602 2.95701H38.4202C38.2218 2.95701 38.061 2.79622 38.061 2.59787V1.57081C38.061 1.37246 38.2218 1.21167 38.4202 1.21167H44.3011C44.4995 1.21167 44.6603 1.37246 44.6603 1.57081V7.22731C44.6603 7.40087 44.5196 7.54156 44.346 7.54156H43.2902C43.0919 7.54156 42.9311 7.38077 42.9311 7.18242V4.35921C42.9311 4.27922 42.8344 4.23916 42.7778 4.29573L31.2055 15.8681C31.0371 16.0365 30.8088 16.1311 30.5706 16.1311C30.3325 16.1311 30.1041 16.0365 29.9358 15.8681L27.0943 13.0267L15.4975 24.6234C15.1469 24.9739 14.5784 24.9739 14.2278 24.6234L11.4623 21.8579L2.60204 30.7181C2.51876 30.8016 2.4198 30.8678 2.31085 30.913C2.2019 30.9581 2.0851 30.9812 1.96717 30.9811C1.84924 30.9812 1.73245 30.9581 1.6235 30.9129C1.51455 30.8678 1.41559 30.8016 1.3323 30.7181C0.981683 30.3674 0.981683 29.7989 1.3323 29.4483L10.8273 19.9532C11.178 19.6026 11.7465 19.6026 12.0971 19.9532L14.8626 22.7187L26.4594 11.122C26.8101 10.7714 27.3786 10.7714 27.7292 11.122L30.5706 13.9634Z" stroke="#F8FCFF" stroke-width="0.897857"/>
<path d="M5.12048 28.3274L5.12048 37.0366" stroke="#F8FCFF" stroke-width="0.897857" stroke-linecap="round" stroke-linejoin="round" stroke-dasharray="7.61 2.33"/>
<path d="M39.2223 8.06445L39.2223 14.1555" stroke="#F8FCFF" stroke-width="0.897857" stroke-linecap="round" stroke-linejoin="round"/>
<path d="M39.2223 15.9827L39.2223 36.9968" stroke="#F8FCFF" stroke-width="0.897857" stroke-linecap="round" stroke-linejoin="round"/>
<path d="M13.6361 24.1975L13.6361 37.0369" stroke="#F8FCFF" stroke-width="0.897857" stroke-linecap="round" stroke-linejoin="round" stroke-dasharray="0.72 2.33"/>
<path d="M22.1705 18.4512L22.1705 37.0368" stroke="#F8FCFF" stroke-width="0.897857" stroke-linecap="round" stroke-linejoin="round" stroke-dasharray="0.72 2.33"/>
<path d="M30.7067 16.2063L30.7067 37.4855" stroke="#F8FCFF" stroke-width="0.897857" stroke-linecap="round" stroke-linejoin="round" stroke-dasharray="0.72 2.33"/>
</svg>
