<svg width="26" height="26" viewBox="0 0 26 26" fill="none" xmlns="http://www.w3.org/2000/svg">
<path d="M23.9548 17.1974C24.8565 17.4228 25.427 18.2515 25.3331 19.1971L25.0502 22.1697C24.8989 24.6875 23.1738 25.6552 20.9882 25.2673C10.1951 23.9473 2.05036 15.8142 0.726961 5.00603C0.108161 0.561587 3.69226 1.01503 6.79718 0.661427C7.74878 0.561327 8.5696 1.13619 8.79502 2.03761L9.57372 5.13369C9.79342 6.14275 10.3776 7.35643 9.60154 8.34287L8.28958 10.5755C8.02334 10.954 7.97498 11.3901 8.1458 11.7486C9.44268 14.464 11.524 16.569 14.1903 17.8752C14.5428 18.052 14.9864 18.0071 15.3304 17.7608L17.6826 16.3691C18.6417 15.6203 19.8718 16.2058 20.8681 16.4203L23.9548 17.1974Z" fill="#2C7CAC"/>
</svg>
