<svg width="18" height="26" viewBox="0 0 18 26" fill="none" xmlns="http://www.w3.org/2000/svg">
<path fill-rule="evenodd" clip-rule="evenodd" d="M16.3559 -1.90735e-06H12.8457C12.409 -1.90735e-06 11.9909 0.175604 11.6822 0.487955L0.481686 11.8233C0.328974 11.9778 0.207836 12.1612 0.125187 12.3632C0.0425377 12.5651 0 12.7815 0 13C0 13.2185 0.0425377 13.4349 0.125187 13.6368C0.207836 13.8387 0.328974 14.0222 0.481686 14.1767L11.6822 25.512C11.8349 25.6668 12.0163 25.7894 12.2159 25.8731C12.4156 25.9567 12.6296 25.9996 12.8457 25.9993L16.3559 26C16.6809 25.9995 16.9986 25.9016 17.2687 25.7186C17.5389 25.5356 17.7494 25.2758 17.8738 24.9718C17.9982 24.6679 18.0308 24.3335 17.9676 24.0108C17.9044 23.6881 17.7481 23.3916 17.5186 23.1586L7.63795 13.1591C7.59635 13.1168 7.57298 13.0596 7.57298 13C7.57298 12.9404 7.59635 12.8832 7.63795 12.8409L17.5186 2.84138C17.7485 2.60858 17.905 2.31203 17.9684 1.98922C18.0318 1.6664 17.9993 1.33182 17.8748 1.02773C17.7504 0.723648 17.5397 0.463718 17.2693 0.28079C16.999 0.0978642 16.6811 0.000152588 16.3559 -1.90735e-06Z" fill="#2C7CAC"/>
</svg>
