<svg width="314" height="244" viewBox="0 0 314 244" fill="none" xmlns="http://www.w3.org/2000/svg">
<path d="M293.797 0H19.9188C8.9188 0 0 8.91823 0 19.9182V224.083C0 235.082 8.9188 244.001 19.9188 244.001H293.797C304.798 244.001 313.716 235.082 313.716 224.082V19.9182C313.716 8.91823 304.798 0 293.797 0ZM293.797 19.9182V164.78L254.543 129.091C248.643 123.728 239.569 123.942 233.932 129.584L194.204 169.306L115.871 75.7395C109.95 68.6683 99.1041 68.5989 93.0941 75.5851L19.9188 160.627V19.9182H293.797ZM209.144 72.2042C209.144 57.076 221.403 44.8161 236.531 44.8161C251.66 44.8161 263.919 57.076 263.919 72.2042C263.919 87.3324 251.661 99.5917 236.531 99.5917C221.404 99.5923 209.144 87.3324 209.144 72.2042Z" fill="white"/>
</svg>
