<svg width="26" height="16" viewBox="0 0 26 16" fill="none" xmlns="http://www.w3.org/2000/svg">
<path fill-rule="evenodd" clip-rule="evenodd" d="M-1.25597e-06 1.46144L-1.39236e-06 4.58163C-1.40933e-06 4.96976 0.175604 5.34145 0.487956 5.61579L11.8233 15.5718C11.9778 15.7076 12.1612 15.8153 12.3632 15.8887C12.5651 15.9622 12.7815 16 13 16C13.2185 16 13.4349 15.9622 13.6368 15.8887C13.8387 15.8153 14.0222 15.7076 14.1767 15.5718L25.512 5.61579C25.6668 5.48007 25.7894 5.31885 25.8731 5.14138C25.9567 4.96391 25.9996 4.77369 25.9993 4.58163L26 1.46144C25.9995 1.17249 25.9016 0.890147 25.7186 0.650024C25.5356 0.4099 25.2758 0.222756 24.9718 0.112199C24.6679 0.00164214 24.3335 -0.0273742 24.0108 0.028812C23.6881 0.0849981 23.3916 0.223869 23.1586 0.427905L13.1591 9.21071C13.1168 9.24769 13.0596 9.26846 13 9.26846C12.9404 9.26846 12.8832 9.24769 12.8409 9.21071L2.84138 0.427904C2.60858 0.223561 2.31203 0.0844164 1.98922 0.0280565C1.66641 -0.0283033 1.33182 0.000650507 1.02773 0.111259C0.723648 0.221867 0.463718 0.409166 0.280791 0.649485C0.0978639 0.889803 0.000151801 1.17236 -1.25597e-06 1.46144Z" fill="#2C7CAC"/>
</svg>
