<svg width="15" height="8" viewBox="0 0 15 8" fill="none" xmlns="http://www.w3.org/2000/svg">
<path d="M7.49997 8C7.58952 8.00009 7.6782 7.98288 7.76092 7.94936C7.84365 7.91584 7.91878 7.86667 7.98201 7.80467L14.8002 1.13804C15.0666 0.877537 15.0666 0.455706 14.8002 0.195374C14.5338 -0.0649579 14.1023 -0.0651246 13.8361 0.195374L7.49997 6.39067L1.16384 0.195375C0.89742 -0.0651234 0.466 -0.0651234 0.19975 0.195375C-0.0664997 0.455874 -0.0666703 0.877705 0.19975 1.13804L7.01792 7.80467C7.08115 7.86667 7.15629 7.91584 7.23902 7.94936C7.32174 7.98288 7.41042 8.00009 7.49997 8Z" fill="#2C7CAC"/>
</svg>
