<svg width="28" height="28" viewBox="0 0 28 28" fill="none" xmlns="http://www.w3.org/2000/svg">
<path d="M13.9995 0C6.26789 0 0 6.26836 0 13.9997C0 21.7311 6.26789 28 13.9995 28C21.7312 28 27.9998 21.7315 27.9998 13.9997C27.9998 6.26799 21.7312 0 13.9995 0ZM20.6548 10.0749L19.325 11.4046L16.6183 8.69801L15.5914 9.72487L18.2982 12.4316L11.6592 19.0701L8.95263 16.3638L7.92577 17.3906L10.6323 20.0972L9.9708 20.7587L9.9582 20.7461C9.9216 20.8067 9.87311 20.8592 9.81565 20.9005C9.75819 20.9418 9.69295 20.9711 9.62388 20.9865L7.09987 21.5493C7.01368 21.5686 6.924 21.5657 6.8392 21.5411C6.75439 21.5164 6.6772 21.4707 6.61481 21.4081C6.55222 21.3457 6.50645 21.2684 6.48178 21.1835C6.4571 21.0986 6.45432 21.0088 6.47369 20.9225L7.03621 18.3993C7.05174 18.3302 7.08106 18.265 7.1224 18.2076C7.16375 18.1501 7.21627 18.1016 7.27683 18.0649L7.26404 18.0522L17.9479 7.36783C18.0233 7.29269 18.1254 7.25054 18.2318 7.25063C18.3383 7.25071 18.4403 7.29303 18.5156 7.36829L20.6549 9.50721C20.7302 9.58253 20.7724 9.68463 20.7724 9.79108C20.7723 9.89752 20.73 9.9996 20.6548 10.0749Z" fill="#2C7CAC"/>
</svg>
