<svg width="22" height="18" viewBox="0 0 22 18" fill="none" xmlns="http://www.w3.org/2000/svg">
<path d="M0.6875 3.74183H11.8814C12.1902 4.98938 13.3187 5.91721 14.6603 5.91721C16.0019 5.91721 17.1305 4.98938 17.4393 3.74183H21.3125C21.6922 3.74183 22 3.434 22 3.05433C22 2.67466 21.6922 2.36683 21.3125 2.36683H17.4392C17.1305 1.11927 16.0019 0.191406 14.6603 0.191406C13.3186 0.191406 12.1901 1.11927 11.8814 2.36683H0.6875C0.307828 2.36683 0 2.67466 0 3.05433C0 3.434 0.307828 3.74183 0.6875 3.74183ZM14.6603 1.56641C15.4808 1.56641 16.1483 2.23388 16.1483 3.05428C16.1483 3.87473 15.4808 4.54221 14.6603 4.54221C13.8399 4.54221 13.1724 3.87473 13.1724 3.05428C13.1724 2.23388 13.8399 1.56641 14.6603 1.56641ZM0.6875 9.68819H4.56079C4.86956 10.9357 5.99805 11.8636 7.33971 11.8636C8.68136 11.8636 9.80985 10.9357 10.1186 9.68819H21.3125C21.6922 9.68819 22 9.38036 22 9.00069C22 8.62101 21.6922 8.31319 21.3125 8.31319H10.1186C9.80981 7.06563 8.68132 6.13776 7.33966 6.13776C5.99801 6.13776 4.86952 7.06563 4.56075 8.31319H0.6875C0.307828 8.31319 0 8.62101 0 9.00069C0 9.38036 0.307785 9.68819 0.6875 9.68819ZM7.33966 7.51276C8.16011 7.51276 8.82759 8.18024 8.82759 9.00069C8.82759 9.82109 8.16011 10.4886 7.33966 10.4886C6.51922 10.4886 5.85174 9.82109 5.85174 9.00069C5.85174 8.18024 6.51922 7.51276 7.33966 7.51276ZM21.3125 14.2595H17.4392C17.1304 13.012 16.0019 12.0841 14.6603 12.0841C13.3186 12.0841 12.1901 13.012 11.8814 14.2595H0.6875C0.307828 14.2595 0 14.5674 0 14.947C0 15.3267 0.307828 15.6345 0.6875 15.6345H11.8814C12.1902 16.8821 13.3187 17.81 14.6603 17.81C16.002 17.81 17.1305 16.8821 17.4393 15.6345H21.3125C21.6922 15.6345 22 15.3267 22 14.947C22 14.5674 21.6922 14.2595 21.3125 14.2595ZM14.6603 16.435C13.8399 16.435 13.1724 15.7675 13.1724 14.947C13.1724 14.1266 13.8399 13.4591 14.6603 13.4591C15.4808 13.4591 16.1483 14.1266 16.1483 14.947C16.1483 15.7675 15.4808 16.435 14.6603 16.435Z" fill="white"/>
</svg>
