<svg width="18" height="20" viewBox="0 0 18 20" fill="none" xmlns="http://www.w3.org/2000/svg">
<path fill-rule="evenodd" clip-rule="evenodd" d="M8.85651 16.8146V17.8114C8.85651 18.6107 8.45815 19.3007 7.76593 19.7003C7.43288 19.8926 7.06116 19.9998 6.67577 20C6.29003 20.0002 5.91843 19.8928 5.58514 19.7003L1.15327 17.1416C0.460964 16.7419 0.0626831 16.052 0.0626831 15.2526V2.18117C0.0626831 0.978398 1.04112 0 2.24385 0H12.0044C13.2073 0 14.1858 0.97832 14.1858 2.18117V4.9366C14.1858 5.33187 13.8648 5.65281 13.4696 5.65281C13.0742 5.65281 12.7535 5.33191 12.7535 4.9366V2.18117C12.7535 1.76816 12.4174 1.43211 12.0044 1.43211H3.45163L7.76593 3.9234C8.45792 4.32301 8.85651 5.01285 8.85651 5.81195V15.3824H12.0044C12.4174 15.3824 12.7535 15.0465 12.7535 14.6335V12.218C12.7535 11.8225 13.074 11.5018 13.4696 11.5018C13.865 11.5018 14.1858 11.8225 14.1858 12.218V14.6335C14.1858 15.8363 13.2073 16.8146 12.0044 16.8146H8.85651ZM15.4926 9.12336L14.7039 9.91207C14.4242 10.1917 14.4243 10.6451 14.7039 10.9248C14.7703 10.9913 14.8492 11.0441 14.9361 11.08C15.023 11.116 15.1162 11.1344 15.2102 11.1343C15.3043 11.1345 15.3975 11.1161 15.4844 11.0801C15.5714 11.0441 15.6503 10.9914 15.7168 10.9248L17.7277 8.91352C18.0073 8.63391 18.0073 8.18078 17.7277 7.90117L15.7168 5.89023C15.4371 5.61055 14.9837 5.61066 14.7039 5.8902C14.4243 6.16957 14.4244 6.62312 14.7039 6.90258L15.4926 7.69109H10.209C9.81331 7.69109 9.49292 8.01172 9.49292 8.40734C9.49292 8.80297 9.81335 9.1234 10.209 9.1234H15.4926V9.12336Z" fill="#2C7CAC"/>
</svg>
