<svg width="48" height="41" viewBox="0 0 48 41" fill="none" xmlns="http://www.w3.org/2000/svg">
<path d="M8.77853 5.84375C5.8607 5.84375 3.48682 8.21763 3.48682 11.1355C3.48682 14.0533 5.8607 16.4272 8.77853 16.4272C11.6964 16.4272 14.0703 14.0533 14.0703 11.1355C14.0703 8.21763 11.6964 5.84375 8.77853 5.84375ZM8.77853 15.7308C6.24468 15.7308 4.18325 13.6693 4.18325 11.1355C4.18325 8.60161 6.24468 6.54018 8.77853 6.54018C11.3124 6.54018 13.3738 8.60161 13.3738 11.1355C13.3738 13.6693 11.3124 15.7308 8.77853 15.7308Z" fill="#FFFCF3"/>
<path d="M9.13823 10.8217V8.84468C9.33836 8.91898 9.50951 9.05527 9.62673 9.23368C9.67798 9.30973 9.75716 9.36249 9.84708 9.3805C9.937 9.39852 10.0304 9.38033 10.107 9.3299C10.1836 9.27946 10.2372 9.20085 10.2562 9.11113C10.2751 9.02141 10.258 8.92782 10.2083 8.8507C9.9621 8.4758 9.57729 8.21379 9.13823 8.12208V7.56892C9.13823 7.47657 9.10155 7.388 9.03624 7.32269C8.97094 7.25739 8.88237 7.2207 8.79002 7.2207C8.69767 7.2207 8.6091 7.25739 8.54379 7.32269C8.47849 7.388 8.4418 7.47657 8.4418 7.56892V8.12104C7.6711 8.28171 7.09033 8.96615 7.09033 9.78381C7.09033 10.6015 7.67115 11.286 8.4418 11.4467V13.4238C8.24168 13.3494 8.07053 13.2132 7.95331 13.0347C7.9284 12.996 7.89606 12.9626 7.85816 12.9365C7.82026 12.9103 7.77755 12.892 7.7325 12.8824C7.68746 12.8729 7.64097 12.8724 7.59573 12.881C7.55049 12.8895 7.5074 12.907 7.46894 12.9323C7.43049 12.9576 7.39744 12.9903 7.3717 13.0285C7.34597 13.0667 7.32806 13.1096 7.31901 13.1547C7.30997 13.1999 7.30997 13.2464 7.31901 13.2915C7.32805 13.3366 7.34596 13.3796 7.37169 13.4177C7.61794 13.7926 8.00274 14.0546 8.4418 14.1463V14.6995C8.4418 14.7918 8.47849 14.8804 8.54379 14.9457C8.6091 15.011 8.69767 15.0477 8.79002 15.0477C8.88237 15.0477 8.97094 15.011 9.03624 14.9457C9.10155 14.8804 9.13823 14.7918 9.13823 14.6995V14.1474C9.90893 13.9867 10.4897 13.3023 10.4897 12.4846C10.4897 11.667 9.90893 10.9824 9.13823 10.8217ZM7.78676 9.78381C7.78676 9.35337 8.06006 8.98655 8.4418 8.84493V10.7227C8.06006 10.5811 7.78676 10.2143 7.78676 9.78381ZM9.13823 13.4235V11.5457C9.51998 11.6873 9.79327 12.0541 9.79327 12.4846C9.79327 12.915 9.52003 13.2818 9.13823 13.4235Z" fill="#FFFCF3"/>
<path d="M28.5395 38.3887H26.7958H25.052H21.9133H20.1695H18.4258H16.682H13.5433H11.7996H10.0595H8.31573H5.17699H3.43325H2.03642C1.55489 38.3887 1.16455 38.808 1.16455 39.3252C1.16455 39.8423 1.55489 40.2617 2.03642 40.2617H44.9325C45.4141 40.2617 45.8044 39.8423 45.8044 39.3252C45.8044 38.808 45.4141 38.3887 44.9325 38.3887H43.5357H41.792H38.6532H36.9095H35.1657H33.422H30.2851M28.5395 38.3887H30.2851M28.5395 38.3887H30.2832H30.2851" stroke="#FFFCF3" stroke-width="0.920303"/>
<path d="M31.3349 14.3127L42.4594 3.18827C42.5173 3.13029 42.4763 3.03116 42.3943 3.03116H39.3808C39.1775 3.03116 39.0127 2.86635 39.0127 2.66304V1.61031C39.0127 1.407 39.1775 1.24219 39.3808 1.24219H45.4088C45.6121 1.24219 45.7769 1.407 45.7769 1.61031V7.40822C45.7769 7.58611 45.6327 7.73033 45.4548 7.73033H44.3726C44.1693 7.73033 44.0045 7.56551 44.0045 7.3622V4.46842C44.0045 4.38643 43.9053 4.34537 43.8474 4.40334L31.9858 16.265C31.8132 16.4376 31.5791 16.5346 31.335 16.5346C31.091 16.5346 30.8569 16.4376 30.6843 16.265L27.7718 13.3525L15.8851 25.2392C15.5257 25.5985 14.943 25.5985 14.5836 25.2392L11.749 22.4046L2.66722 31.4863C2.58185 31.5719 2.48042 31.6398 2.36874 31.686C2.25707 31.7323 2.13735 31.756 2.01647 31.7559C1.8956 31.756 1.77588 31.7323 1.66421 31.686C1.55253 31.6397 1.4511 31.5719 1.36573 31.4863C1.00635 31.1268 1.00635 30.5441 1.36573 30.1847L11.0981 20.4522C11.4576 20.0928 12.0403 20.0928 12.3997 20.4522L15.2343 23.2869L27.121 11.4003C27.4804 11.0409 28.0632 11.0409 28.4225 11.4003L31.3349 14.3127Z" stroke="#FFFCF3" stroke-width="0.920303"/>
<path d="M5.24854 29.0352L5.24854 37.9621" stroke="#FFFCF3" stroke-width="0.920303" stroke-linecap="round" stroke-linejoin="round" stroke-dasharray="7.8 2.39"/>
<path d="M40.2029 8.26562L40.2029 14.509" stroke="#FFFCF3" stroke-width="0.920303" stroke-linecap="round" stroke-linejoin="round"/>
<path d="M40.2029 16.3828L40.2029 37.9223" stroke="#FFFCF3" stroke-width="0.920303" stroke-linecap="round" stroke-linejoin="round"/>
<path d="M13.9771 24.8027L13.9771 37.9631" stroke="#FFFCF3" stroke-width="0.920303" stroke-linecap="round" stroke-linejoin="round" stroke-dasharray="0.74 2.39"/>
<path d="M22.7249 18.9121L22.7249 37.9624" stroke="#FFFCF3" stroke-width="0.920303" stroke-linecap="round" stroke-linejoin="round" stroke-dasharray="0.74 2.39"/>
<path d="M31.4744 16.6113L31.4744 38.4225" stroke="#FFFCF3" stroke-width="0.920303" stroke-linecap="round" stroke-linejoin="round" stroke-dasharray="0.74 2.39"/>
</svg>
