<svg width="250" height="41" viewBox="0 0 250 41" fill="none" xmlns="http://www.w3.org/2000/svg">
<path d="M73.8685 30.1898C72.0971 30.1898 70.4703 29.7741 68.9881 28.9426C67.5059 28.1111 66.3309 26.9633 65.4633 25.4992C64.5957 24.0169 64.1619 22.3449 64.1619 20.4831C64.1619 18.6394 64.5957 16.9855 65.4633 15.5214C66.3309 14.0392 67.5059 12.8823 68.9881 12.0508C70.4703 11.2194 72.0971 10.8036 73.8685 10.8036C75.658 10.8036 77.2848 11.2194 78.7489 12.0508C80.2312 12.8823 81.397 14.0392 82.2466 15.5214C83.1142 16.9855 83.548 18.6394 83.548 20.4831C83.548 22.3449 83.1142 24.0169 82.2466 25.4992C81.397 26.9633 80.2312 28.1111 78.7489 28.9426C77.2667 29.7741 75.6399 30.1898 73.8685 30.1898ZM73.8685 26.8006C75.0073 26.8006 76.0105 26.5475 76.8781 26.0414C77.7457 25.5172 78.4236 24.7761 78.9116 23.8181C79.3997 22.8601 79.6437 21.7484 79.6437 20.4831C79.6437 19.2179 79.3997 18.1152 78.9116 17.1753C78.4236 16.2173 77.7457 15.4852 76.8781 14.9791C76.0105 14.473 75.0073 14.2199 73.8685 14.2199C72.7297 14.2199 71.7175 14.473 70.8318 14.9791C69.9642 15.4852 69.2863 16.2173 68.7983 17.1753C68.3102 18.1152 68.0662 19.2179 68.0662 20.4831C68.0662 21.7484 68.3102 22.8601 68.7983 23.8181C69.2863 24.7761 69.9642 25.5172 70.8318 26.0414C71.7175 26.5475 72.7297 26.8006 73.8685 26.8006ZM90.168 17.1482C90.656 16.4613 91.3248 15.8919 92.1744 15.44C93.042 14.9701 94.0271 14.7351 95.1298 14.7351C96.4131 14.7351 97.57 15.0514 98.6003 15.6841C99.6487 16.3167 100.471 17.2205 101.068 18.3954C101.682 19.5523 101.989 20.8989 101.989 22.4353C101.989 23.9718 101.682 25.3365 101.068 26.5295C100.471 27.7044 99.6487 28.6172 98.6003 29.2679C97.57 29.9187 96.4131 30.244 95.1298 30.244C94.0271 30.244 93.0511 30.0181 92.2015 29.5662C91.37 29.1143 90.6922 28.5449 90.168 27.858V37.158H86.3721V14.9791H90.168V17.1482ZM98.1122 22.4353C98.1122 21.5315 97.9225 20.7543 97.5429 20.1036C97.1813 19.4348 96.6933 18.9286 96.0787 18.5852C95.4822 18.2418 94.8315 18.07 94.1266 18.07C93.4397 18.07 92.789 18.2508 92.1744 18.6123C91.5779 18.9558 91.0898 19.4619 90.7103 20.1307C90.3487 20.7995 90.168 21.5858 90.168 22.4896C90.168 23.3933 90.3487 24.1796 90.7103 24.8484C91.0898 25.5172 91.5779 26.0324 92.1744 26.3939C92.789 26.7373 93.4397 26.9091 94.1266 26.9091C94.8315 26.9091 95.4822 26.7283 96.0787 26.3668C96.6933 26.0053 97.1813 25.4901 97.5429 24.8213C97.9225 24.1525 98.1122 23.3572 98.1122 22.4353ZM109.167 18.0972V25.3636C109.167 25.8697 109.285 26.2403 109.52 26.4752C109.773 26.6921 110.189 26.8006 110.767 26.8006H112.529V30H110.143C106.944 30 105.344 28.4455 105.344 25.3365V18.0972H103.555V14.9791H105.344V11.2645H109.167V14.9791H112.529V18.0972H109.167ZM117.185 13.1896C116.516 13.1896 115.956 12.9817 115.504 12.566C115.07 12.1322 114.853 11.5989 114.853 10.9663C114.853 10.3336 115.07 9.80945 115.504 9.39371C115.956 8.9599 116.516 8.74299 117.185 8.74299C117.854 8.74299 118.405 8.9599 118.839 9.39371C119.291 9.80945 119.516 10.3336 119.516 10.9663C119.516 11.5989 119.291 12.1322 118.839 12.566C118.405 12.9817 117.854 13.1896 117.185 13.1896ZM119.056 14.9791V30H115.26V14.9791H119.056ZM129.476 30.244C128.03 30.244 126.728 29.9277 125.571 29.295C124.415 28.6443 123.502 27.7315 122.833 26.5566C122.182 25.3817 121.857 24.026 121.857 22.4896C121.857 20.9531 122.191 19.5974 122.86 18.4225C123.547 17.2476 124.478 16.3438 125.653 15.7112C126.828 15.0604 128.138 14.7351 129.584 14.7351C131.03 14.7351 132.341 15.0604 133.516 15.7112C134.691 16.3438 135.613 17.2476 136.281 18.4225C136.968 19.5974 137.312 20.9531 137.312 22.4896C137.312 24.026 136.959 25.3817 136.254 26.5566C135.567 27.7315 134.627 28.6443 133.434 29.295C132.259 29.9277 130.94 30.244 129.476 30.244ZM129.476 26.9362C130.163 26.9362 130.804 26.7735 131.401 26.4481C132.015 26.1047 132.504 25.5986 132.865 24.9298C133.227 24.261 133.407 23.4476 133.407 22.4896C133.407 21.0616 133.028 19.968 132.269 19.2088C131.527 18.4316 130.615 18.0429 129.53 18.0429C128.446 18.0429 127.533 18.4316 126.792 19.2088C126.069 19.968 125.707 21.0616 125.707 22.4896C125.707 23.9175 126.06 25.0201 126.764 25.7974C127.488 26.5566 128.391 26.9362 129.476 26.9362ZM148.42 14.7622C150.209 14.7622 151.655 15.3316 152.758 16.4703C153.861 17.591 154.412 19.1636 154.412 21.1881V30H150.616V21.7033C150.616 20.5103 150.318 19.5974 149.721 18.9648C149.125 18.3141 148.311 17.9887 147.281 17.9887C146.233 17.9887 145.401 18.3141 144.787 18.9648C144.19 19.5974 143.892 20.5103 143.892 21.7033V30H140.096V14.9791H143.892V16.8499C144.398 16.1992 145.04 15.6931 145.817 15.3316C146.612 14.952 147.48 14.7622 148.42 14.7622ZM185.116 11.0748V30H181.32V17.6905L176.25 30H173.376L168.278 17.6905V30H164.482V11.0748H168.793L174.813 25.1467L180.832 11.0748H185.116ZM187.893 22.4353C187.893 20.917 188.191 19.5703 188.787 18.3954C189.402 17.2205 190.224 16.3167 191.255 15.6841C192.303 15.0514 193.469 14.7351 194.752 14.7351C195.873 14.7351 196.849 14.961 197.681 15.4129C198.53 15.8648 199.208 16.4342 199.714 17.1211V14.9791H203.537V30H199.714V27.8038C199.226 28.5088 198.548 29.0962 197.681 29.5662C196.831 30.0181 195.846 30.244 194.725 30.244C193.46 30.244 192.303 29.9187 191.255 29.2679C190.224 28.6172 189.402 27.7044 188.787 26.5295C188.191 25.3365 187.893 23.9718 187.893 22.4353ZM199.714 22.4896C199.714 21.5677 199.533 20.7814 199.172 20.1307C198.81 19.4619 198.322 18.9558 197.708 18.6123C197.093 18.2508 196.433 18.07 195.728 18.07C195.023 18.07 194.373 18.2418 193.776 18.5852C193.18 18.9286 192.692 19.4348 192.312 20.1036C191.951 20.7543 191.77 21.5315 191.77 22.4353C191.77 23.3391 191.951 24.1344 192.312 24.8213C192.692 25.4901 193.18 26.0053 193.776 26.3668C194.391 26.7283 195.042 26.9091 195.728 26.9091C196.433 26.9091 197.093 26.7373 197.708 26.3939C198.322 26.0324 198.81 25.5263 199.172 24.8755C199.533 24.2067 199.714 23.4114 199.714 22.4896ZM211.664 18.0972V25.3636C211.664 25.8697 211.781 26.2403 212.016 26.4752C212.269 26.6921 212.685 26.8006 213.264 26.8006H215.026V30H212.64C209.441 30 207.841 28.4455 207.841 25.3365V18.0972H206.051V14.9791H207.841V11.2645H211.664V14.9791H215.026V18.0972H211.664ZM221.552 17.3109C222.04 16.5155 222.673 15.8919 223.45 15.44C224.245 14.9881 225.149 14.7622 226.161 14.7622V18.7479H225.158C223.965 18.7479 223.061 19.0281 222.447 19.5884C221.85 20.1487 221.552 21.1248 221.552 22.5167V30H217.756V14.9791H221.552V17.3109ZM230.643 13.1896C229.974 13.1896 229.414 12.9817 228.962 12.566C228.528 12.1322 228.311 11.5989 228.311 10.9663C228.311 10.3336 228.528 9.80945 228.962 9.39371C229.414 8.9599 229.974 8.74299 230.643 8.74299C231.312 8.74299 231.863 8.9599 232.297 9.39371C232.749 9.80945 232.975 10.3336 232.975 10.9663C232.975 11.5989 232.749 12.1322 232.297 12.566C231.863 12.9817 231.312 13.1896 230.643 13.1896ZM232.514 14.9791V30H228.718V14.9791H232.514ZM244.561 30L241.47 25.3365L238.732 30H234.665L239.572 22.4624L234.61 14.9791H238.894L241.958 19.6155L244.724 14.9791H248.791L243.856 22.4624L248.845 30H244.561Z" fill="#FFF9E9"/>
<path d="M8.77853 5.84375C5.8607 5.84375 3.48682 8.21763 3.48682 11.1355C3.48682 14.0533 5.8607 16.4272 8.77853 16.4272C11.6964 16.4272 14.0703 14.0533 14.0703 11.1355C14.0703 8.21763 11.6964 5.84375 8.77853 5.84375ZM8.77853 15.7308C6.24468 15.7308 4.18325 13.6693 4.18325 11.1355C4.18325 8.60161 6.24468 6.54018 8.77853 6.54018C11.3124 6.54018 13.3738 8.60161 13.3738 11.1355C13.3738 13.6693 11.3124 15.7308 8.77853 15.7308Z" fill="#FFFCF3"/>
<path d="M9.13823 10.8217V8.84468C9.33836 8.91898 9.50951 9.05527 9.62673 9.23368C9.67798 9.30973 9.75716 9.36249 9.84708 9.3805C9.937 9.39852 10.0304 9.38033 10.107 9.3299C10.1836 9.27946 10.2372 9.20085 10.2562 9.11113C10.2751 9.02141 10.258 8.92782 10.2083 8.8507C9.9621 8.4758 9.57729 8.21379 9.13823 8.12208V7.56892C9.13823 7.47657 9.10155 7.388 9.03624 7.32269C8.97094 7.25739 8.88237 7.2207 8.79002 7.2207C8.69767 7.2207 8.6091 7.25739 8.54379 7.32269C8.47849 7.388 8.4418 7.47657 8.4418 7.56892V8.12104C7.6711 8.28171 7.09033 8.96615 7.09033 9.78381C7.09033 10.6015 7.67115 11.286 8.4418 11.4467V13.4238C8.24168 13.3494 8.07053 13.2132 7.95331 13.0347C7.9284 12.996 7.89606 12.9626 7.85816 12.9365C7.82026 12.9103 7.77755 12.892 7.7325 12.8824C7.68746 12.8729 7.64097 12.8724 7.59573 12.881C7.55049 12.8895 7.5074 12.907 7.46894 12.9323C7.43049 12.9576 7.39744 12.9903 7.3717 13.0285C7.34597 13.0667 7.32806 13.1096 7.31901 13.1547C7.30997 13.1999 7.30997 13.2464 7.31901 13.2915C7.32805 13.3366 7.34596 13.3796 7.37169 13.4177C7.61794 13.7926 8.00274 14.0546 8.4418 14.1463V14.6995C8.4418 14.7918 8.47849 14.8804 8.54379 14.9457C8.6091 15.011 8.69767 15.0477 8.79002 15.0477C8.88237 15.0477 8.97094 15.011 9.03624 14.9457C9.10155 14.8804 9.13823 14.7918 9.13823 14.6995V14.1474C9.90893 13.9867 10.4897 13.3023 10.4897 12.4846C10.4897 11.667 9.90893 10.9824 9.13823 10.8217ZM7.78676 9.78381C7.78676 9.35337 8.06006 8.98655 8.4418 8.84493V10.7227C8.06006 10.5811 7.78676 10.2143 7.78676 9.78381ZM9.13823 13.4235V11.5457C9.51998 11.6873 9.79327 12.0541 9.79327 12.4846C9.79327 12.915 9.52003 13.2818 9.13823 13.4235Z" fill="#FFFCF3"/>
<path d="M28.5395 38.3887H26.7958H25.052H21.9133H20.1695H18.4258H16.682H13.5433H11.7996H10.0595H8.31573H5.17699H3.43325H2.03642C1.55489 38.3887 1.16455 38.808 1.16455 39.3252C1.16455 39.8423 1.55489 40.2617 2.03642 40.2617H44.9325C45.4141 40.2617 45.8044 39.8423 45.8044 39.3252C45.8044 38.808 45.4141 38.3887 44.9325 38.3887H43.5357H41.792H38.6532H36.9095H35.1657H33.422H30.2851M28.5395 38.3887H30.2851M28.5395 38.3887H30.2832H30.2851" stroke="#FFFCF3" stroke-width="0.920303"/>
<path d="M31.3349 14.3127L42.4594 3.18827C42.5173 3.13029 42.4763 3.03116 42.3943 3.03116H39.3808C39.1775 3.03116 39.0127 2.86635 39.0127 2.66304V1.61031C39.0127 1.407 39.1775 1.24219 39.3808 1.24219H45.4088C45.6121 1.24219 45.7769 1.407 45.7769 1.61031V7.40822C45.7769 7.58611 45.6327 7.73033 45.4548 7.73033H44.3726C44.1693 7.73033 44.0045 7.56551 44.0045 7.3622V4.46842C44.0045 4.38643 43.9053 4.34537 43.8474 4.40334L31.9858 16.265C31.8132 16.4376 31.5791 16.5346 31.335 16.5346C31.091 16.5346 30.8569 16.4376 30.6843 16.265L27.7718 13.3525L15.8851 25.2392C15.5257 25.5985 14.943 25.5985 14.5836 25.2392L11.749 22.4046L2.66722 31.4863C2.58185 31.5719 2.48042 31.6398 2.36874 31.686C2.25707 31.7323 2.13735 31.756 2.01647 31.7559C1.8956 31.756 1.77588 31.7323 1.66421 31.686C1.55253 31.6397 1.4511 31.5719 1.36573 31.4863C1.00635 31.1268 1.00635 30.5441 1.36573 30.1847L11.0981 20.4522C11.4576 20.0928 12.0403 20.0928 12.3997 20.4522L15.2343 23.2869L27.121 11.4003C27.4804 11.0409 28.0632 11.0409 28.4225 11.4003L31.3349 14.3127Z" stroke="#FFFCF3" stroke-width="0.920303"/>
<path d="M5.24854 29.0352L5.24854 37.9621" stroke="#FFFCF3" stroke-width="0.920303" stroke-linecap="round" stroke-linejoin="round" stroke-dasharray="7.8 2.39"/>
<path d="M40.2029 8.26562L40.2029 14.509" stroke="#FFFCF3" stroke-width="0.920303" stroke-linecap="round" stroke-linejoin="round"/>
<path d="M40.2029 16.3828L40.2029 37.9223" stroke="#FFFCF3" stroke-width="0.920303" stroke-linecap="round" stroke-linejoin="round"/>
<path d="M13.9771 24.8027L13.9771 37.9631" stroke="#FFFCF3" stroke-width="0.920303" stroke-linecap="round" stroke-linejoin="round" stroke-dasharray="0.74 2.39"/>
<path d="M22.7249 18.9121L22.7249 37.9624" stroke="#FFFCF3" stroke-width="0.920303" stroke-linecap="round" stroke-linejoin="round" stroke-dasharray="0.74 2.39"/>
<path d="M31.4744 16.6113L31.4744 38.4225" stroke="#FFFCF3" stroke-width="0.920303" stroke-linecap="round" stroke-linejoin="round" stroke-dasharray="0.74 2.39"/>
</svg>
