<svg width="50" height="50" viewBox="0 0 50 50" fill="none" xmlns="http://www.w3.org/2000/svg">
<path d="M31.2516 27.0847C30.0995 27.0847 29.1683 28.0182 29.1683 29.168V37.502C29.1683 38.6499 28.2347 39.5853 27.0846 39.5853H20.8343V8.33373C20.8343 6.55444 19.7009 4.96481 17.9967 4.37308L17.3799 4.16672H27.0846C28.2347 4.16672 29.1683 5.10212 29.1683 6.25042V12.5007C29.1683 13.6505 30.0995 14.584 31.2516 14.584C32.4037 14.584 33.3349 13.6505 33.3349 12.5007V6.25042C33.3349 2.80444 30.5306 9.76613e-05 27.0846 9.76613e-05H4.68774C4.60844 9.76613e-05 4.54203 0.0355487 4.46498 0.0459008C4.36458 0.0375019 4.26887 0 4.16701 0C1.86894 9.76613e-05 0 1.86875 0 4.16681V41.6687C0 43.448 1.13336 45.0377 2.83755 45.6294L15.3758 49.8089C15.8008 49.9401 16.2235 50.0027 16.6676 50.0027C18.9656 50.0027 20.8342 48.1337 20.8342 45.8356V43.7523H27.0845C30.5305 43.7523 33.3348 40.948 33.3348 37.502V29.168C33.3348 28.0182 32.4036 27.0847 31.2515 27.0847H31.2516Z" fill="#2C7CAC"/>
<path d="M49.3925 19.3606L41.0585 11.0269C40.7673 10.7353 40.3961 10.5367 39.9919 10.4562C39.5877 10.3756 39.1687 10.4168 38.7879 10.5745C38.0108 10.8976 37.5023 11.6579 37.5023 12.4998V18.7502H29.1687C28.0185 18.7502 27.085 19.6833 27.085 20.8335C27.085 21.9836 28.0185 22.9168 29.1687 22.9168H37.5023V29.1671C37.5023 30.009 38.0108 30.7693 38.7879 31.0925C39.1687 31.2501 39.5876 31.2913 39.9918 31.2108C40.396 31.1303 40.7672 30.9318 41.0585 30.6403L49.3925 22.3064C50.207 21.4919 50.207 20.175 49.3925 19.3606Z" fill="#2C7CAC"/>
</svg>
