<svg width="19" height="19" viewBox="0 0 19 19" fill="none" xmlns="http://www.w3.org/2000/svg">
<path d="M11.674 1.49125L12.4516 0.700709C13.3707 -0.23357 14.9702 -0.23357 15.8893 0.700709L16.5167 1.33853C16.7431 1.5667 16.9228 1.83818 17.0454 2.1373C17.168 2.43642 17.2311 2.75727 17.2311 3.08132C17.2311 3.40538 17.168 3.72622 17.0454 4.02535C16.9228 4.32447 16.7431 4.59595 16.5167 4.82411L15.7391 5.61466L11.674 1.48227V1.49125ZM10.7372 2.4435L2.68651 10.6274C2.43023 10.8879 2.27116 11.2293 2.24465 11.5976L2.00605 14.2298C1.97953 14.5622 2.09442 14.8856 2.32419 15.1281C2.53628 15.3437 2.81023 15.4605 3.10186 15.4605H3.19907L5.78837 15.218C6.1507 15.182 6.48651 15.0203 6.74279 14.7598L14.7935 6.57589L10.7284 2.4435H10.7372ZM19 18.3262C19 17.9579 18.6995 17.6525 18.3372 17.6525H0.662791C0.300465 17.6525 0 17.9579 0 18.3262C0 18.6946 0.300465 19 0.662791 19H18.3372C18.6995 19 19 18.6946 19 18.3262Z" fill="#2C7CAC"/>
</svg>
