<svg width="22" height="22" viewBox="0 0 22 22" fill="none" xmlns="http://www.w3.org/2000/svg">
<path d="M3.18854 16.6963H0.392981C0.288787 16.6963 0.18886 16.7376 0.115183 16.8113C0.0415069 16.885 0.000115779 16.9849 0.000115779 17.0891C0.000115779 17.1933 0.0415069 17.2932 0.115183 17.3669C0.18886 17.4406 0.288787 17.482 0.392981 17.482H3.18854C3.26304 17.806 3.4272 18.1025 3.66226 18.3376C3.89732 18.5727 4.19379 18.7369 4.51778 18.8115V21.607C4.51778 21.7112 4.55918 21.8112 4.63288 21.8849C4.70658 21.9586 4.80653 22 4.91076 22C5.01498 22 5.11494 21.9586 5.18864 21.8849C5.26234 21.8112 5.30374 21.7112 5.30374 21.607V18.8115C5.6277 18.7369 5.92415 18.5727 6.15921 18.3377C6.39426 18.1026 6.55844 17.8062 6.63298 17.4822H9.27755C9.35212 17.8062 9.51637 18.1027 9.75151 18.3378C9.98666 18.5729 10.2832 18.737 10.6073 18.8115V21.607C10.6073 21.7112 10.6486 21.8111 10.7223 21.8847C10.7959 21.9584 10.8958 21.9998 11 21.9998C11.1042 21.9998 11.2041 21.9584 11.2777 21.8847C11.3514 21.8111 11.3927 21.7112 11.3927 21.607V18.8115C11.7168 18.737 12.0133 18.5728 12.2484 18.3377C12.4835 18.1027 12.6477 17.8062 12.7222 17.4822H15.3668C15.4413 17.8062 15.6056 18.1027 15.8407 18.3377C16.0758 18.5728 16.3723 18.737 16.6963 18.8115V21.607C16.6963 21.7112 16.7376 21.8111 16.8113 21.8848C16.885 21.9585 16.9849 21.9999 17.0891 21.9999C17.1933 21.9999 17.2932 21.9585 17.3669 21.8848C17.4406 21.8111 17.482 21.7112 17.482 21.607V18.8115C17.806 18.737 18.1025 18.5728 18.3376 18.3377C18.5727 18.1027 18.7369 17.8062 18.8115 17.4822H21.607C21.7112 17.4822 21.8112 17.4408 21.8849 17.3671C21.9586 17.2934 22 17.1935 22 17.0892C22 16.985 21.9586 16.8851 21.8849 16.8114C21.8112 16.7377 21.7112 16.6963 21.607 16.6963H18.8115C18.7369 16.3723 18.5727 16.0758 18.3377 15.8408C18.1026 15.6057 17.8062 15.4416 17.4822 15.367V12.5256C17.7723 12.4587 18.0408 12.3199 18.263 12.1218C18.4853 11.9238 18.6541 11.673 18.7538 11.3925H21.6068C21.711 11.3925 21.8108 11.3511 21.8845 11.2775C21.9582 11.2038 21.9995 11.1039 21.9995 10.9998C21.9995 10.8956 21.9582 10.7957 21.8845 10.7221C21.8108 10.6484 21.711 10.607 21.6068 10.607H18.8457C18.8044 10.2428 18.651 9.90039 18.4068 9.62704C18.1625 9.3537 17.8395 9.16289 17.4822 9.08095V6.63321C17.8062 6.55869 18.1028 6.3945 18.3379 6.1594C18.573 5.92429 18.7372 5.62777 18.8117 5.30374H21.6073C21.7114 5.30374 21.8114 5.26235 21.885 5.18867C21.9587 5.115 22.0001 5.01507 22.0001 4.91088C22.0001 4.80668 21.9587 4.70675 21.885 4.63308C21.8114 4.5594 21.7114 4.51801 21.6073 4.51801H18.8115C18.737 4.19401 18.5728 3.89751 18.3377 3.66241C18.1027 3.42731 17.8062 3.26309 17.4822 3.18854V0.392981C17.4822 0.288756 17.4408 0.1888 17.3671 0.115102C17.2934 0.0414033 17.1935 0 17.0892 0C16.985 0 16.8851 0.0414033 16.8114 0.115102C16.7377 0.1888 16.6963 0.288756 16.6963 0.392981V3.18854C16.3723 3.26308 16.0758 3.42726 15.8408 3.66231C15.6057 3.89737 15.4416 4.19382 15.367 4.51778H12.7224C12.6479 4.19376 12.4836 3.89727 12.2485 3.66221C12.0133 3.42714 11.7168 3.263 11.3927 3.18854V0.392981C11.3927 0.288818 11.3514 0.18892 11.2777 0.115265C11.2041 0.0416104 11.1042 0.000231557 11 0.000231557C10.8958 0.000231557 10.7959 0.0416104 10.7223 0.115265C10.6486 0.18892 10.6073 0.288818 10.6073 0.392981V3.18854C10.2832 3.26304 9.98675 3.4272 9.75165 3.66226C9.51655 3.89732 9.35233 4.19379 9.27778 4.51778H6.63321C6.55866 4.19379 6.39444 3.89732 6.15934 3.66226C5.92424 3.4272 5.62774 3.26304 5.30374 3.18854V0.392981C5.30374 0.288787 5.26235 0.18886 5.18867 0.115183C5.115 0.0415069 5.01507 0.000115779 4.91088 0.000115779C4.80668 0.000115779 4.70675 0.0415069 4.63308 0.115183C4.5594 0.18886 4.51801 0.288787 4.51801 0.392981V3.18854C4.19401 3.26304 3.89751 3.4272 3.66241 3.66226C3.42731 3.89732 3.26309 4.19379 3.18854 4.51778H0.392981C0.288756 4.51778 0.1888 4.55918 0.115102 4.63288C0.0414033 4.70658 0 4.80653 0 4.91076C0 5.01498 0.0414033 5.11494 0.115102 5.18864C0.1888 5.26234 0.288756 5.30374 0.392981 5.30374H3.18854C3.26308 5.6277 3.42726 5.92415 3.66231 6.15921C3.89737 6.39426 4.19382 6.55844 4.51778 6.63298V9.08118C4.16054 9.16316 3.83754 9.35399 3.59336 9.62733C3.34917 9.90067 3.19584 10.2431 3.1545 10.6073H0.392981C0.288818 10.6073 0.18892 10.6486 0.115265 10.7223C0.0416104 10.7959 0.000231557 10.8958 0.000231557 11C0.000231557 11.1042 0.0416104 11.2041 0.115265 11.2777C0.18892 11.3514 0.288818 11.3927 0.392981 11.3927H3.24597C3.34576 11.6733 3.5146 11.9241 3.73692 12.1222C3.95924 12.3202 4.22787 12.459 4.51801 12.5258V15.3668C4.19398 15.4413 3.89746 15.6055 3.66236 15.8406C3.42725 16.0757 3.26306 16.3722 3.18854 16.6963ZM9.27778 16.6963H6.63321C6.55866 16.3723 6.39444 16.0758 6.15934 15.8407C5.92424 15.6057 5.62774 15.4415 5.30374 15.367V12.5256C5.59384 12.4588 5.86242 12.3199 6.0847 12.1219C6.30698 11.9238 6.47579 11.673 6.57555 11.3925H9.33498C9.43476 11.673 9.60361 11.9239 9.82593 12.1219C10.0482 12.32 10.3169 12.4588 10.607 12.5256V15.3666C10.283 15.4411 9.98647 15.6053 9.75136 15.8404C9.51626 16.0755 9.35207 16.372 9.27755 16.696L9.27778 16.6963ZM15.3668 16.6963H12.7222C12.6477 16.3723 12.4835 16.0758 12.2484 15.8408C12.0134 15.6057 11.7169 15.4416 11.393 15.367V12.5256C11.6831 12.4588 11.9517 12.3199 12.1739 12.1219C12.3962 11.9238 12.565 11.673 12.6648 11.3925H15.4245C15.5242 11.673 15.693 11.9238 15.9153 12.1219C16.1376 12.3199 16.4062 12.4588 16.6963 12.5256V15.3666C16.3723 15.4411 16.0758 15.6053 15.8407 15.8404C15.6057 16.0755 15.4415 16.372 15.367 16.696L15.3668 16.6963ZM12.7222 5.30374H15.3668C15.4413 5.62773 15.6056 5.9242 15.8407 6.15926C16.0758 6.39432 16.3723 6.55848 16.6963 6.63298V9.08118C16.339 9.16316 16.016 9.35399 15.7718 9.62733C15.5277 9.90067 15.3743 10.2431 15.333 10.6073H12.7563C12.7149 10.243 12.5615 9.90062 12.3173 9.62727C12.0731 9.35393 11.75 9.16312 11.3927 9.08118V6.63321C11.7168 6.55869 12.0133 6.3945 12.2484 6.1594C12.4835 5.92429 12.6477 5.62777 12.7222 5.30374ZM6.63321 5.30374H9.27778C9.35232 5.6277 9.5165 5.92415 9.75155 6.15921C9.98661 6.39426 10.2831 6.55844 10.607 6.63298V9.08118C10.2498 9.16316 9.92678 9.35399 9.6826 9.62733C9.43842 9.90067 9.28508 10.2431 9.24374 10.6073H6.66725C6.62591 10.2431 6.47258 9.90067 6.22839 9.62733C5.98421 9.35399 5.66121 9.16316 5.30397 9.08118V6.63321C5.62796 6.55866 5.92443 6.39444 6.15949 6.15934C6.39455 5.92424 6.55871 5.62774 6.63321 5.30374Z" fill="#2C7CAC"/>
</svg>
