<svg width="20" height="14" viewBox="0 0 20 14" fill="none" xmlns="http://www.w3.org/2000/svg">
<path d="M5 13C5 13.5523 5.44773 14 6 14H19C19.5523 14 20 13.5523 20 13C20 12.4477 19.5523 12 19 12H6C5.44773 12 5 12.4478 5 13ZM19 8H1C0.447734 8 0 7.55223 0 7C0 6.44773 0.447734 6 1 6H19C19.5523 6 20 6.44773 20 7C20 7.55223 19.5523 8 19 8ZM19 2H10C9.44777 2 9 1.55227 9 0.999999C9 0.447773 9.44777 -1.90735e-06 10 -1.90735e-06H19C19.5523 -1.90735e-06 20 0.447773 20 0.999999C20 1.55227 19.5523 2 19 2Z" fill="white"/>
</svg>
