<svg width="50" height="50" viewBox="0 0 50 50" fill="none" xmlns="http://www.w3.org/2000/svg">
<path d="M25 0C18.4422 0.00922756 12.1532 2.60661 7.5 7.2275V2.5C7.5 1.83696 7.23661 1.20107 6.76776 0.732233C6.29892 0.263392 5.66304 0 5 0C4.33696 0 3.70107 0.263392 3.23223 0.732233C2.76339 1.20107 2.5 1.83696 2.5 2.5V12.5C2.5 13.163 2.76339 13.7989 3.23223 14.2678C3.70107 14.7366 4.33696 15 5 15H15C15.663 15 16.2989 14.7366 16.7678 14.2678C17.2366 13.7989 17.5 13.163 17.5 12.5C17.5 11.837 17.2366 11.2011 16.7678 10.7322C16.2989 10.2634 15.663 10 15 10H11.79C15.2235 6.97955 19.5884 5.22696 24.1573 5.03429C28.7262 4.84161 33.2232 6.22048 36.8988 8.94112C40.5744 11.6618 43.2067 15.5598 44.3569 19.9858C45.5072 24.4117 45.106 29.0982 43.2202 33.2642C41.3344 37.4302 38.0778 40.8242 33.9933 42.8805C29.9087 44.9368 25.2428 45.5312 20.7731 44.5648C16.3035 43.5983 12.3 41.1293 9.42983 37.5692C6.55968 34.0091 4.99622 29.573 5 25C5 24.337 4.73661 23.7011 4.26777 23.2322C3.79893 22.7634 3.16304 22.5 2.5 22.5C1.83696 22.5 1.20107 22.7634 0.732233 23.2322C0.263392 23.7011 0 24.337 0 25C0 29.9445 1.46622 34.778 4.21326 38.8892C6.96029 43.0005 10.8648 46.2048 15.4329 48.097C20.0011 49.9892 25.0277 50.4842 29.8772 49.5196C34.7268 48.555 39.1813 46.174 42.6777 42.6777C46.174 39.1813 48.555 34.7268 49.5196 29.8772C50.4842 25.0277 49.9892 20.0011 48.097 15.4329C46.2048 10.8648 43.0005 6.96029 38.8892 4.21326C34.778 1.46622 29.9445 0 25 0Z" fill="#2C7CAC"/>
</svg>
