<svg width="18" height="23" viewBox="0 0 18 23" fill="none" xmlns="http://www.w3.org/2000/svg">
<path d="M15.3859 0H2.04113C0.954293 0 0 0.894094 0 1.95241V21.6934C0 22.0477 0.0985966 22.3429 0.257501 22.571C0.349817 22.7039 0.473069 22.8124 0.616638 22.8872C0.760207 22.9619 0.919788 23.0006 1.08163 22.9999C1.39185 22.9999 1.72213 22.8618 2.02714 22.6013L7.9976 17.5321C8.18199 17.3746 8.44687 17.2843 8.72227 17.2843C8.99756 17.2843 9.26189 17.3746 9.44683 17.5325L15.3973 22.6005C15.7034 22.8618 16.0109 23 16.3206 23C16.8443 23 17.3547 22.5961 17.3547 21.6935V1.95241C17.3547 0.894094 16.4728 0 15.3859 0Z" fill="white"/>
</svg>
