<svg width="30" height="20" viewBox="0 0 30 20" fill="none" xmlns="http://www.w3.org/2000/svg">
<path d="M4.26777 12.5H18.75C19.4403 12.5 20 13.0596 20 13.75C20 14.4403 19.4403 15 18.75 15H4.26777L7.13388 17.8661C7.62203 18.3542 7.62203 19.1457 7.13388 19.6339C6.64574 20.122 5.85425 20.122 5.36611 19.6339L0.366069 14.6339C0.336948 14.6048 0.309409 14.5741 0.283276 14.5422C0.27144 14.5278 0.261128 14.5126 0.250054 14.4978C0.236694 14.48 0.222925 14.4626 0.210503 14.444C0.198608 14.4262 0.188296 14.4078 0.177397 14.3895C0.167378 14.3728 0.156831 14.3564 0.147573 14.3391C0.137612 14.3205 0.129175 14.3014 0.120269 14.2824C0.111772 14.2644 0.102808 14.2467 0.0951318 14.2282C0.0875146 14.2098 0.0813037 14.1909 0.074624 14.1722C0.0675341 14.1524 0.0599755 14.133 0.0538818 14.1128C0.0481982 14.0941 0.044038 14.075 0.0392919 14.056C0.0340771 14.0355 0.0283349 14.0151 0.0241748 13.9942C0.0198388 13.9722 0.0172607 13.95 0.0140966 13.9279C0.0115185 13.9097 0.00800288 13.8917 0.00618648 13.8733C-0.0018994 13.7912 -0.0018994 13.7086 0.00618648 13.6265C0.00800288 13.6081 0.0114599 13.5902 0.0140966 13.5719C0.0172607 13.5498 0.0198388 13.5276 0.0242334 13.5057C0.0283935 13.4847 0.0341357 13.4644 0.0393505 13.4438C0.0440966 13.4249 0.0482568 13.4058 0.0539404 13.3871C0.0600341 13.3669 0.0675927 13.3474 0.0746826 13.3277C0.0814209 13.309 0.0875732 13.2901 0.0951904 13.2716C0.102808 13.2532 0.111831 13.2355 0.120327 13.2176C0.129292 13.1986 0.137729 13.1794 0.14769 13.1608C0.156948 13.1435 0.167436 13.1272 0.177456 13.1104C0.188354 13.0922 0.198667 13.0737 0.210561 13.0559C0.222925 13.0374 0.236694 13.02 0.249995 13.0022C0.261128 12.9873 0.27144 12.9721 0.283335 12.9576C0.309292 12.926 0.336655 12.8956 0.365542 12.8667L0.366128 12.866L5.36611 7.86607C5.85425 7.37792 6.64574 7.37792 7.13388 7.86607C7.62203 8.35421 7.62203 9.1457 7.13388 9.63384L4.26777 12.5ZM29.7166 5.45769C29.7286 5.47222 29.7389 5.48751 29.7501 5.50246C29.7633 5.52015 29.7771 5.53749 29.7894 5.55595C29.8013 5.57376 29.8117 5.59228 29.8226 5.61056C29.8325 5.62726 29.843 5.64361 29.8522 5.66078C29.8622 5.67941 29.8707 5.69863 29.8796 5.71767C29.8881 5.7356 29.897 5.75324 29.9047 5.77164C29.9123 5.79009 29.9185 5.80896 29.9252 5.82771C29.9323 5.84746 29.9399 5.86691 29.946 5.88706C29.9516 5.90581 29.9558 5.92492 29.9605 5.94384C29.9658 5.96441 29.9715 5.98474 29.9757 6.00566C29.98 6.02763 29.9826 6.04978 29.9858 6.07187C29.9884 6.09009 29.9919 6.10802 29.9937 6.12654C30.0018 6.20857 30.0018 6.29124 29.9937 6.37328C29.9919 6.39173 29.9884 6.40966 29.9858 6.42794C29.9826 6.45003 29.9801 6.47224 29.9757 6.49415C29.9715 6.51513 29.9658 6.5354 29.9605 6.55597C29.9558 6.57495 29.9516 6.594 29.946 6.61275C29.9399 6.63291 29.9323 6.65242 29.9252 6.6721C29.9185 6.69085 29.9123 6.70972 29.9047 6.72818C29.8971 6.74658 29.8881 6.76421 29.8796 6.78214C29.8707 6.80119 29.8622 6.82041 29.8522 6.83904C29.843 6.85621 29.8325 6.87255 29.8226 6.88925C29.8117 6.90753 29.8013 6.92605 29.7894 6.94386C29.777 6.96232 29.7633 6.97966 29.7501 6.99736C29.7389 7.0123 29.7285 7.02759 29.7166 7.04212C29.6909 7.07351 29.6637 7.10362 29.6351 7.13236L29.6338 7.13371L24.6338 12.1337C24.1457 12.6218 23.3542 12.6218 22.8661 12.1337C22.3779 11.6455 22.3779 10.8541 22.8661 10.3659L25.7322 7.4998H11.25C10.5596 7.4998 10 6.94017 10 6.24982C10 5.55947 10.5596 4.99984 11.25 4.99984H25.7322L22.8661 2.13372C22.3779 1.64558 22.3779 0.854095 22.8661 0.365952C23.3542 -0.122194 24.1457 -0.122194 24.6338 0.365952L29.6338 5.36593L29.6351 5.36728C29.6636 5.39612 29.6909 5.42629 29.7166 5.45769Z" fill="white"/>
</svg>
