<svg width="18" height="20" viewBox="0 0 18 20" fill="none" xmlns="http://www.w3.org/2000/svg">
<path fill-rule="evenodd" clip-rule="evenodd" d="M8.85633 16.8146V17.8114C8.85633 18.6107 8.45797 19.3007 7.76574 19.7003C7.4327 19.8926 7.06098 19.9998 6.67559 20C6.28984 20.0002 5.91824 19.8928 5.58496 19.7003L1.15309 17.1416C0.460781 16.7419 0.0625 16.052 0.0625 15.2526V2.18117C0.0625 0.978398 1.04094 0 2.24367 0H12.0043C13.2071 0 14.1856 0.97832 14.1856 2.18117V4.9366C14.1856 5.33187 13.8646 5.65281 13.4694 5.65281C13.074 5.65281 12.7533 5.33191 12.7533 4.9366V2.18117C12.7533 1.76816 12.4173 1.43211 12.0043 1.43211H3.45145L7.76574 3.9234C8.45773 4.32301 8.85633 5.01285 8.85633 5.81195V15.3824H12.0043C12.4172 15.3824 12.7533 15.0465 12.7533 14.6335V12.218C12.7533 11.8225 13.0738 11.5018 13.4694 11.5018C13.8648 11.5018 14.1856 11.8225 14.1856 12.218V14.6335C14.1856 15.8363 13.2071 16.8146 12.0043 16.8146H8.85633ZM15.4924 9.12336L14.7037 9.91207C14.424 10.1917 14.4241 10.6451 14.7037 10.9248C14.7701 10.9913 14.8491 11.0441 14.936 11.08C15.0229 11.116 15.116 11.1344 15.21 11.1343C15.3041 11.1345 15.3973 11.1161 15.4842 11.0801C15.5712 11.0441 15.6501 10.9914 15.7166 10.9248L17.7275 8.91352C18.0071 8.63391 18.0071 8.18078 17.7275 7.90117L15.7166 5.89023C15.4369 5.61055 14.9835 5.61066 14.7037 5.8902C14.4241 6.16957 14.4242 6.62312 14.7037 6.90258L15.4924 7.69109H10.2088C9.81312 7.69109 9.49273 8.01172 9.49273 8.40734C9.49273 8.80297 9.81316 9.1234 10.2088 9.1234H15.4924V9.12336Z" fill="#5A9FC9"/>
</svg>
