<svg width="22" height="22" viewBox="0 0 22 22" fill="none" xmlns="http://www.w3.org/2000/svg">
<g opacity="0.8">
<path fill-rule="evenodd" clip-rule="evenodd" d="M19.7856 10.622C18.0103 7.43403 14.6436 5.45364 11.0011 5.45364C7.35627 5.45364 3.98962 7.43403 2.21432 10.622C2.0776 10.8696 2.0776 11.1312 2.21432 11.3786C3.98962 14.5665 7.35627 16.5467 11.0011 16.5467C14.6436 16.5467 18.0103 14.5665 19.7856 11.3786C19.9247 11.1312 19.9247 10.8696 19.7856 10.622ZM20.9196 12.0106C18.9156 15.61 15.1152 17.8457 11.0011 17.8457C6.88473 17.8457 3.08427 15.61 1.08029 12.0106C0.721934 11.3684 0.721934 10.6322 1.08029 9.99041C3.08427 6.39105 6.88473 4.15487 11.0011 4.15487C15.1152 4.15487 18.9156 6.39105 20.9196 9.99041C21.278 10.6321 21.278 11.3684 20.9196 12.0106ZM11.0011 8.3356C12.4699 8.3356 13.6652 9.53091 13.6652 11.0004C13.6652 12.4699 12.4699 13.6652 11.0011 13.6652C9.52997 13.6652 8.33466 12.4699 8.33466 11.0004C8.33466 9.53091 9.53001 8.3356 11.0011 8.3356ZM11.0011 14.9642C8.81325 14.9642 7.03563 13.1859 7.03563 11.0004C7.03563 8.81436 8.81329 7.03674 11.0011 7.03674C13.1867 7.03674 14.9643 8.8144 14.9643 11.0004C14.9643 13.1859 13.1867 14.9642 11.0011 14.9642Z" fill="#5F959D"/>
</g>
</svg>
