<svg width="22" height="22" viewBox="0 0 22 22" fill="none" xmlns="http://www.w3.org/2000/svg">
<g opacity="0.8">
<path fill-rule="evenodd" clip-rule="evenodd" d="M3.94884 3.94686C3.69153 4.20408 3.69153 4.62118 3.94884 4.8784L5.61407 6.54371C4.14191 7.57154 2.97574 9.00913 2.28006 10.6916C2.19848 10.8889 2.19848 11.1106 2.28006 11.3079C3.69758 14.7362 7.06868 17.1478 11.0017 17.1478C12.5187 17.1478 13.952 16.789 15.2219 16.1516L17.1231 18.0527C17.3803 18.3099 17.7974 18.3099 18.0546 18.0527C18.3119 17.7954 18.3119 17.3783 18.0546 17.1211L4.88035 3.94686C4.62312 3.68959 4.20607 3.68959 3.94884 3.94686ZM6.56268 7.49233C5.26245 8.34493 4.22043 9.56174 3.58123 10.9998C4.84793 13.8495 7.69652 15.8303 11.0017 15.8303C12.1489 15.8303 13.2412 15.5917 14.2313 15.1609L13.1342 14.0638C12.5297 14.4853 11.7946 14.7325 11.0017 14.7325C8.94018 14.7325 7.269 13.0613 7.269 10.9998C7.269 10.2069 7.51619 9.47182 7.9377 8.86731L6.56268 7.49233ZM8.89249 9.8221C8.69754 10.1705 8.58642 10.5722 8.58642 10.9998C8.58642 12.3337 9.66781 13.415 11.0017 13.415C11.4293 13.415 11.831 13.3039 12.1794 13.109L8.89249 9.8221Z" fill="#76A1A8"/>
<path d="M17.5379 14.5117C17.2927 14.7478 16.9058 14.7302 16.6651 14.4895C16.3921 14.2165 16.4156 13.7691 16.6907 13.4983C17.4193 12.7813 18.0066 11.9337 18.4222 10.9998C17.1555 8.15001 14.3069 6.1692 11.0017 6.1692C10.3387 6.1692 9.69406 6.24892 9.0769 6.39936C8.83194 6.45906 8.57081 6.39525 8.39254 6.21693C8.0408 5.86523 8.17057 5.27093 8.65234 5.14721C9.40343 4.95435 10.1906 4.85177 11.0017 4.85177C14.9348 4.85177 18.3058 7.26328 19.7234 10.6916C19.805 10.8889 19.805 11.1106 19.7234 11.3079C19.2203 12.5248 18.471 13.6135 17.5379 14.5117Z" fill="#76A1A8"/>
<path d="M14.7307 11.1674C14.7063 11.7204 14.0513 11.8757 13.6598 11.4842L13.5695 11.3939C13.466 11.2904 13.417 11.1461 13.417 10.9998C13.417 9.66583 12.3356 8.58448 11.0017 8.58448C10.8553 8.58448 10.711 8.53546 10.6076 8.43194L10.5172 8.34163C10.1258 7.95021 10.2811 7.29519 10.8341 7.27074C10.8899 7.26829 10.9458 7.26706 11.0017 7.26706C13.0632 7.26706 14.7344 8.93824 14.7344 10.9998C14.7344 11.0559 14.7332 11.1118 14.7307 11.1674Z" fill="#76A1A8"/>
</g>
</svg>
