<svg width="104" height="104" viewBox="0 0 104 104" fill="none" xmlns="http://www.w3.org/2000/svg">
<path d="M52.0894 0C23.3695 0 0.0893555 23.2822 0.0893555 52C0.0893555 80.7178 23.3695 104 52.0894 104C80.8092 104 104.089 80.7178 104.089 52C104.089 23.2822 80.8072 0 52.0894 0Z" fill="#57B236"/>
<path d="M0.0894139 52C0.0764927 60.5972 2.20498 69.0623 6.2827 76.631C11.4764 78.1558 16.8618 78.9281 22.2747 78.9242C53.5357 78.9242 78.8775 53.5824 78.8775 22.3214C78.8804 16.826 78.0833 11.3595 76.5111 6.09378C68.996 2.08398 60.6074 -0.00915346 52.0894 3.00893e-05C23.3696 3.00893e-05 0.0894139 23.2822 0.0894139 52Z" fill="#6FBA47"/>
<path d="M81.7459 43.3917L50.489 76.2147C49.6378 77.1084 48.6148 77.8209 47.4815 78.3096C46.3481 78.7982 45.1277 79.053 43.8935 79.0584H43.8509C42.6236 79.0587 41.4088 78.8124 40.2785 78.334C39.1483 77.8556 38.1258 77.1549 37.2717 76.2736L20.6865 59.1867C19.8296 58.3266 19.152 57.3047 18.6932 56.1806C18.2343 55.0565 18.0033 53.8524 18.0135 52.6382C18.0237 51.4241 18.275 50.2241 18.7527 49.1078C19.2305 47.9916 19.9252 46.9813 20.7965 46.1357C21.6678 45.2901 22.6984 44.6259 23.8284 44.1818C24.9584 43.7377 26.1654 43.5224 27.3794 43.5485C28.5933 43.5746 29.7899 43.8416 30.8998 44.3339C32.0097 44.8261 33.0108 45.534 33.8449 46.4163L43.7859 56.6578L68.4635 30.7452C69.2939 29.873 70.288 29.173 71.3889 28.685C72.4898 28.1971 73.6761 27.9307 74.8799 27.9012C76.0838 27.8717 77.2817 28.0796 78.4052 28.513C79.5287 28.9464 80.5559 29.5969 81.428 30.4273C82.3001 31.2577 83.0002 32.2517 83.4881 33.3526C83.9761 34.4535 84.2424 35.6398 84.272 36.8437C84.3015 38.0475 84.0936 39.2454 83.6602 40.3689C83.2267 41.4925 82.5763 42.5196 81.7459 43.3917Z" fill="white"/>
</svg>
