<svg width="26" height="26" viewBox="0 0 26 26" fill="none" xmlns="http://www.w3.org/2000/svg">
<path d="M26 13C26 13.5688 26 14.0562 25.9187 14.625L25.675 16.0875C25.025 18.85 23.4812 21.2062 21.3687 22.9937C21.2875 23.075 21.125 23.1562 21.0437 23.2375C20.3125 23.8062 19.5 24.2937 18.6062 24.7L18.1187 24.9438C17.3875 25.2688 16.7375 25.5125 15.925 25.675C15.5188 25.7563 15.1938 25.8375 14.7875 25.9187C14.1375 26 13.5688 26 13 26C5.85 26 0 20.15 0 13C0 5.85 5.85 0 13 0C20.15 0 26 5.85 26 13Z" fill="#EF4646"/>
<path d="M25.9187 14.6254L25.675 16.0879C25.025 18.8504 23.4812 21.2066 21.3687 22.9941C21.2875 23.0754 21.125 23.1566 21.0437 23.2379C20.3125 23.8066 19.5 24.2941 18.6062 24.7004L18.1187 24.9441C17.3875 25.2691 16.7375 25.5129 15.925 25.6754C15.5187 25.7566 15.1938 25.8379 14.7875 25.9191L7.475 18.6066C6.9875 18.1191 6.9875 17.3066 7.475 16.7379L11.2125 13.0004L7.475 9.26289C6.9875 8.77539 6.9875 7.96289 7.475 7.39414C7.9625 6.90664 8.775 6.90664 9.34375 7.39414L9.50625 7.55664L9.83125 7.88164L10.8875 8.93789L11.2125 9.26289L12.2687 10.3191L12.5937 10.6441L13.1625 11.2129L16.7375 7.31289C17.225 6.82539 18.0375 6.82539 18.6062 7.31289L25.9187 14.6254Z" fill="#E2382F"/>
<path d="M18.6062 16.6566C19.0938 17.1441 19.0938 17.9566 18.6062 18.5254C18.3625 18.7691 18.0375 18.9316 17.7125 18.9316C17.3875 18.9316 17.0625 18.7691 16.8188 18.5254L13 14.7879L9.2625 18.5254C9.01875 18.7691 8.69375 18.9316 8.36875 18.9316C8.04375 18.9316 7.71875 18.7691 7.475 18.5254C6.9875 18.0379 6.9875 17.2254 7.475 16.6566L11.2125 12.9191L7.475 9.18164C6.9875 8.69414 6.9875 7.88164 7.475 7.31289C7.9625 6.82539 8.775 6.82539 9.34375 7.31289L13.0813 11.0504L16.7375 7.31289C17.225 6.82539 18.0375 6.82539 18.6062 7.31289C19.0938 7.80039 19.0938 8.61289 18.6062 9.18164L14.8687 12.9191L18.6062 16.6566Z" fill="white"/>
</svg>
