<svg width="15" height="15" viewBox="0 0 15 15" fill="none" xmlns="http://www.w3.org/2000/svg">
<path fill-rule="evenodd" clip-rule="evenodd" d="M0 7.45438C0 3.33744 3.33744 0 7.45438 0C11.5713 0 14.9087 3.33744 14.9087 7.45438C14.9087 11.5712 11.5713 14.9087 7.45438 14.9087C3.33744 14.9087 0 11.5712 0 7.45438ZM7.45438 1.06927C3.92799 1.06927 1.06929 3.92799 1.06929 7.45438C1.06929 10.9808 3.92799 13.8395 7.45438 13.8395C10.9807 13.8395 13.8394 10.9808 13.8394 7.45438C13.8394 3.92799 10.9807 1.06927 7.45438 1.06927ZM10.1036 4.80545C10.3233 5.02523 10.3233 5.38157 10.1036 5.60134L8.2504 7.4545L10.1036 9.30768C10.3233 9.52746 10.3233 9.8838 10.1036 10.1036C9.8838 10.3233 9.52746 10.3233 9.30768 10.1036L7.4545 8.2504L5.60134 10.1036C5.38157 10.3233 5.02523 10.3233 4.80545 10.1036C4.58567 9.8838 4.58567 9.52746 4.80545 9.30768L6.65862 7.4545L4.80545 5.60134C4.58567 5.38157 4.58567 5.02523 4.80545 4.80545C5.02523 4.58567 5.38157 4.58567 5.60134 4.80545L7.4545 6.65862L9.30768 4.80545C9.52746 4.58567 9.8838 4.58567 10.1036 4.80545Z" fill="#EF4646"/>
</svg>
