<svg width="51" height="50" viewBox="0 0 51 50" fill="none" xmlns="http://www.w3.org/2000/svg">
<path d="M42.6544 7.3483C38.5288 3.21448 33.0875 0.653577 27.2727 0.109058C21.4579 -0.43546 15.6357 1.07069 10.8144 4.3667H11.217C11.5386 4.32821 11.8647 4.36196 12.1715 4.4655C12.4784 4.56904 12.7583 4.73975 12.9908 4.9652C13.9701 5.96632 13.5675 7.14154 13.426 8.37118C17.3341 5.64332 22.0791 4.38122 26.826 4.80698C31.5729 5.23275 36.0176 7.31908 39.3779 10.6989C42.7381 14.0786 44.7987 18.5353 45.197 23.2846C45.5953 28.0339 44.3058 32.7715 41.5553 36.6637L40.0972 35.2056C39.8796 37.099 39.379 41.7346 39.2593 42.8228L46.8765 41.9849L45.0048 40.1132C48.6302 35.2866 50.389 29.3123 49.9571 23.2912C49.5252 17.2701 46.9316 11.608 42.6544 7.3483ZM39.2919 44.9121C38.9848 44.9139 38.6808 44.8508 38.3998 44.7268C38.1189 44.6027 37.8673 44.4206 37.6618 44.1925C37.4562 43.9643 37.3013 43.6952 37.2071 43.4029C37.113 43.1105 37.0818 42.8016 37.1156 42.4963L37.2679 41.1252C33.3505 44.1286 28.4709 45.5976 23.5464 45.2563C18.622 44.915 13.9918 42.7867 10.5261 39.2716C7.06047 35.7565 4.99804 31.0966 4.72651 26.1678C4.45497 21.239 5.99303 16.3808 9.05158 12.5062L10.6294 14.0841C10.9559 11.2113 10.575 14.6282 11.4782 6.46688L3.86098 7.31565L5.66735 9.11114C1.77463 13.8628 -0.234728 19.8802 0.0218615 26.0174C0.278451 32.1547 2.78306 37.9833 7.05883 42.3935C11.3346 46.8037 17.0829 49.4874 23.2093 49.9338C29.3357 50.3802 35.4123 48.558 40.2822 44.8141C39.9549 44.8708 39.624 44.9035 39.2919 44.9121Z" fill="#2C7CAC"/>
<path d="M29.3906 18.5131H33.7433L29.3906 14.1604V18.5131Z" fill="#2C7CAC"/>
<path d="M27.2141 13.072H17.4205C16.8433 13.072 16.2897 13.3013 15.8816 13.7095C15.4734 14.1176 15.2441 14.6712 15.2441 15.2484V34.8355C15.2441 35.4127 15.4734 35.9663 15.8816 36.3744C16.2897 36.7826 16.8433 37.0119 17.4205 37.0119H32.6549C33.2321 37.0119 33.7857 36.7826 34.1938 36.3744C34.602 35.9663 34.8313 35.4127 34.8313 34.8355C34.8313 19.0026 34.9183 20.6892 34.6354 20.6892H28.3022C28.0136 20.6892 27.7368 20.5746 27.5328 20.3705C27.3287 20.1665 27.2141 19.8897 27.2141 19.6011V13.072ZM26.1259 32.6592H19.5968C19.3082 32.6592 19.0315 32.5445 18.8274 32.3404C18.6233 32.1364 18.5087 31.8596 18.5087 31.571C18.5087 31.2824 18.6233 31.0056 18.8274 30.8015C19.0315 30.5975 19.3082 30.4828 19.5968 30.4828H26.1259C26.4145 30.4828 26.6913 30.5975 26.8953 30.8015C27.0994 31.0056 27.2141 31.2824 27.2141 31.571C27.2141 31.8596 27.0994 32.1364 26.8953 32.3404C26.6913 32.5445 26.4145 32.6592 26.1259 32.6592ZM26.1259 28.3065H19.5968C19.3082 28.3065 19.0315 28.1918 18.8274 27.9877C18.6233 27.7837 18.5087 27.5069 18.5087 27.2183C18.5087 26.9297 18.6233 26.6529 18.8274 26.4488C19.0315 26.2448 19.3082 26.1301 19.5968 26.1301H26.1259C26.4145 26.1301 26.6913 26.2448 26.8953 26.4488C27.0994 26.6529 27.2141 26.9297 27.2141 27.2183C27.2141 27.5069 27.0994 27.7837 26.8953 27.9877C26.6913 28.1918 26.4145 28.3065 26.1259 28.3065ZM26.1259 23.9538H19.5968C19.3082 23.9538 19.0315 23.8391 18.8274 23.635C18.6233 23.431 18.5087 23.1542 18.5087 22.8656C18.5087 22.577 18.6233 22.3002 18.8274 22.0961C19.0315 21.8921 19.3082 21.7774 19.5968 21.7774H26.1259C26.4145 21.7774 26.6913 21.8921 26.8953 22.0961C27.0994 22.3002 27.2141 22.577 27.2141 22.8656C27.2141 23.1542 27.0994 23.431 26.8953 23.635C26.6913 23.8391 26.4145 23.9538 26.1259 23.9538Z" fill="#2C7CAC"/>
</svg>
