<svg width="26" height="26" viewBox="0 0 26 26" fill="none" xmlns="http://www.w3.org/2000/svg">
<path d="M13 0C5.82002 0 0 5.82053 0 13C0 20.1794 5.82002 25.9999 13 25.9999C20.1799 25.9999 25.9999 20.1794 25.9999 13C25.9999 5.82053 20.1794 0 13 0Z" fill="#57B236"/>
<path d="M1.46201e-05 13C-0.00321569 15.1493 0.528904 17.2655 1.54833 19.1577C2.84674 19.5389 4.19311 19.732 5.54633 19.731C13.3615 19.731 19.697 13.3955 19.697 5.58034C19.6977 4.2065 19.4984 2.83987 19.1054 1.52344C17.2266 0.520994 15.1295 -0.00228836 13 7.52229e-06C5.82004 7.52229e-06 1.46201e-05 5.82054 1.46201e-05 13Z" fill="#6FBA47"/>
<path d="M20.4146 10.8479L12.6004 19.0536C12.3876 19.2771 12.1318 19.4552 11.8485 19.5774C11.5652 19.6995 11.2601 19.7632 10.9515 19.7646H10.9409C10.634 19.7646 10.3303 19.7031 10.0478 19.5835C9.76522 19.4639 9.50958 19.2887 9.29605 19.0684L5.14978 14.7967C4.93554 14.5816 4.76615 14.3262 4.65144 14.0451C4.53672 13.7641 4.47897 13.4631 4.48153 13.1595C4.48408 12.856 4.5469 12.556 4.66633 12.2769C4.78577 11.9979 4.95944 11.7453 5.17726 11.5339C5.39509 11.3225 5.65273 11.1565 5.93525 11.0454C6.21776 10.9344 6.51951 10.8806 6.82298 10.8871C7.12646 10.8936 7.42561 10.9604 7.70309 11.0835C7.98057 11.2065 8.23084 11.3835 8.43937 11.6041L10.9246 14.1644L17.094 7.68629C17.3016 7.46826 17.5501 7.29325 17.8253 7.17126C18.1006 7.04926 18.3971 6.98268 18.6981 6.9753C18.9991 6.96792 19.2985 7.01989 19.5794 7.12825C19.8603 7.2366 20.1171 7.39922 20.3351 7.60682C20.5531 7.81441 20.7281 8.06292 20.8501 8.33815C20.9721 8.61338 21.0387 8.90994 21.0461 9.21091C21.0535 9.51187 21.0015 9.81134 20.8931 10.0922C20.7848 10.3731 20.6222 10.6299 20.4146 10.8479Z" fill="white"/>
</svg>
