<svg width="15" height="15" viewBox="0 0 15 15" fill="none" xmlns="http://www.w3.org/2000/svg">
<path d="M7.44854 0C3.33695 0 0 3.33695 0 7.44854C0 11.5601 3.33695 14.8971 7.44854 14.8971C11.5601 14.8971 14.8971 11.5601 14.8971 7.44854C14.8971 3.33695 11.5601 0 7.44854 0ZM7.44854 13.4074C4.16374 13.4074 1.48971 10.7333 1.48971 7.44854C1.48971 4.16374 4.16374 1.48971 7.44854 1.48971C10.7333 1.48971 13.4074 4.16374 13.4074 7.44854C13.4074 10.7333 10.7333 13.4074 7.44854 13.4074ZM11.3944 4.687C11.1037 4.3942 10.6303 4.39336 10.3386 4.68514L6.65973 8.36398C6.27242 8.75129 5.64464 8.7519 5.25658 8.36533L4.55529 7.66675C4.26483 7.37741 3.79495 7.37786 3.50505 7.66777C3.21475 7.95806 3.21475 8.42873 3.50505 8.71903L5.25658 10.4706C5.64442 10.8584 6.27324 10.8584 6.66109 10.4706L11.3925 5.7391C11.6829 5.44879 11.6837 4.97834 11.3944 4.687Z" fill="#6FBA47"/>
</svg>
