<svg width="24" height="25" viewBox="0 0 24 25" fill="none" xmlns="http://www.w3.org/2000/svg">
<path d="M9.24994 0.5H1.74994C0.784969 0.5 0 1.28497 0 2.24994V6.74994C0 7.71509 0.784969 8.50006 1.74994 8.50006H9.24994C10.2151 8.50006 11.0001 7.71509 11.0001 6.74994V2.24994C11.0001 1.28497 10.2151 0.5 9.24994 0.5Z" fill="white"/>
<path d="M9.24994 10.4998H1.74994C0.784969 10.4998 0 11.2847 0 12.2499V22.7499C0 23.7148 0.784969 24.4998 1.74994 24.4998H9.24994C10.2151 24.4998 11.0001 23.7148 11.0001 22.7499V12.2499C11.0001 11.2847 10.2151 10.4998 9.24994 10.4998Z" fill="white"/>
<path d="M22.25 16.4998H14.75C13.7849 16.4998 12.9999 17.2847 12.9999 18.2499V22.7499C12.9999 23.7148 13.7849 24.4998 14.75 24.4998H22.25C23.215 24.4998 24 23.7148 24 22.7499V18.2499C24 17.2847 23.215 16.4998 22.25 16.4998Z" fill="white"/>
<path d="M22.25 0.5H14.75C13.7849 0.5 12.9999 1.28497 12.9999 2.24994V12.7499C12.9999 13.7151 13.7849 14.5001 14.75 14.5001H22.25C23.215 14.5001 24 13.7151 24 12.7499V2.24994C24 1.28497 23.215 0.5 22.25 0.5Z" fill="white"/>
</svg>
