<svg width="24" height="25" viewBox="0 0 24 25" fill="none" xmlns="http://www.w3.org/2000/svg">
<path d="M8.14286 14.2143H6.85714V18.5H24V13.3571H9.42857C9.132 13.8671 8.77543 14.2143 8.14286 14.2143ZM20.5714 15.5C20.5714 15.3863 20.6166 15.2773 20.697 15.197C20.7773 15.1166 20.8863 15.0714 21 15.0714C21.1137 15.0714 21.2227 15.1166 21.303 15.197C21.3834 15.2773 21.4286 15.3863 21.4286 15.5V16.3571C21.4286 16.4708 21.3834 16.5798 21.303 16.6602C21.2227 16.7406 21.1137 16.7857 21 16.7857C20.8863 16.7857 20.7773 16.7406 20.697 16.6602C20.6166 16.5798 20.5714 16.4708 20.5714 16.3571V15.5ZM18.8571 15.5C18.8571 15.3863 18.9023 15.2773 18.9827 15.197C19.063 15.1166 19.1721 15.0714 19.2857 15.0714C19.3994 15.0714 19.5084 15.1166 19.5888 15.197C19.6691 15.2773 19.7143 15.3863 19.7143 15.5V16.3571C19.7143 16.4708 19.6691 16.5798 19.5888 16.6602C19.5084 16.7406 19.3994 16.7857 19.2857 16.7857C19.1721 16.7857 19.063 16.7406 18.9827 16.6602C18.9023 16.5798 18.8571 16.4708 18.8571 16.3571V15.5ZM17.1429 15.5C17.1429 15.3863 17.188 15.2773 17.2684 15.197C17.3488 15.1166 17.4578 15.0714 17.5714 15.0714C17.6851 15.0714 17.7941 15.1166 17.8745 15.197C17.9548 15.2773 18 15.3863 18 15.5V16.3571C18 16.4708 17.9548 16.5798 17.8745 16.6602C17.7941 16.7406 17.6851 16.7857 17.5714 16.7857C17.4578 16.7857 17.3488 16.7406 17.2684 16.6602C17.188 16.5798 17.1429 16.4708 17.1429 16.3571V15.5ZM15.4286 15.5C15.4286 15.3863 15.4737 15.2773 15.5541 15.197C15.6345 15.1166 15.7435 15.0714 15.8571 15.0714C15.9708 15.0714 16.0798 15.1166 16.1602 15.197C16.2406 15.2773 16.2857 15.3863 16.2857 15.5V16.3571C16.2857 16.4708 16.2406 16.5798 16.1602 16.6602C16.0798 16.7406 15.9708 16.7857 15.8571 16.7857C15.7435 16.7857 15.6345 16.7406 15.5541 16.6602C15.4737 16.5798 15.4286 16.4708 15.4286 16.3571V15.5ZM6.85714 21.9286C6.85714 23.3463 8.01086 24.5 9.42857 24.5H21.4286C22.8463 24.5 24 23.3463 24 21.9286V19.3571H6.85714V21.9286ZM20.5714 21.5C20.5714 21.3863 20.6166 21.2773 20.697 21.197C20.7773 21.1166 20.8863 21.0714 21 21.0714C21.1137 21.0714 21.2227 21.1166 21.303 21.197C21.3834 21.2773 21.4286 21.3863 21.4286 21.5V22.3571C21.4286 22.4708 21.3834 22.5798 21.303 22.6602C21.2227 22.7406 21.1137 22.7857 21 22.7857C20.8863 22.7857 20.7773 22.7406 20.697 22.6602C20.6166 22.5798 20.5714 22.4708 20.5714 22.3571V21.5ZM18.8571 21.5C18.8571 21.3863 18.9023 21.2773 18.9827 21.197C19.063 21.1166 19.1721 21.0714 19.2857 21.0714C19.3994 21.0714 19.5084 21.1166 19.5888 21.197C19.6691 21.2773 19.7143 21.3863 19.7143 21.5V22.3571C19.7143 22.4708 19.6691 22.5798 19.5888 22.6602C19.5084 22.7406 19.3994 22.7857 19.2857 22.7857C19.1721 22.7857 19.063 22.7406 18.9827 22.6602C18.9023 22.5798 18.8571 22.4708 18.8571 22.3571V21.5ZM17.1429 21.5C17.1429 21.3863 17.188 21.2773 17.2684 21.197C17.3488 21.1166 17.4578 21.0714 17.5714 21.0714C17.6851 21.0714 17.7941 21.1166 17.8745 21.197C17.9548 21.2773 18 21.3863 18 21.5V22.3571C18 22.4708 17.9548 22.5798 17.8745 22.6602C17.7941 22.7406 17.6851 22.7857 17.5714 22.7857C17.4578 22.7857 17.3488 22.7406 17.2684 22.6602C17.188 22.5798 17.1429 22.4708 17.1429 22.3571V21.5ZM15.4286 21.5C15.4286 21.3863 15.4737 21.2773 15.5541 21.197C15.6345 21.1166 15.7435 21.0714 15.8571 21.0714C15.9708 21.0714 16.0798 21.1166 16.1602 21.197C16.2406 21.2773 16.2857 21.3863 16.2857 21.5V22.3571C16.2857 22.4708 16.2406 22.5798 16.1602 22.6602C16.0798 22.7406 15.9708 22.7857 15.8571 22.7857C15.7435 22.7857 15.6345 22.7406 15.5541 22.6602C15.4737 22.5798 15.4286 22.4708 15.4286 22.3571V21.5ZM9.42857 12.5H24V7.35714H9.42857V12.5ZM20.5714 9.5C20.5714 9.38634 20.6166 9.27733 20.697 9.19695C20.7773 9.11658 20.8863 9.07143 21 9.07143C21.1137 9.07143 21.2227 9.11658 21.303 9.19695C21.3834 9.27733 21.4286 9.38634 21.4286 9.5V10.3571C21.4286 10.4708 21.3834 10.5798 21.303 10.6602C21.2227 10.7406 21.1137 10.7857 21 10.7857C20.8863 10.7857 20.7773 10.7406 20.697 10.6602C20.6166 10.5798 20.5714 10.4708 20.5714 10.3571V9.5ZM18.8571 9.5C18.8571 9.38634 18.9023 9.27733 18.9827 9.19695C19.063 9.11658 19.1721 9.07143 19.2857 9.07143C19.3994 9.07143 19.5084 9.11658 19.5888 9.19695C19.6691 9.27733 19.7143 9.38634 19.7143 9.5V10.3571C19.7143 10.4708 19.6691 10.5798 19.5888 10.6602C19.5084 10.7406 19.3994 10.7857 19.2857 10.7857C19.1721 10.7857 19.063 10.7406 18.9827 10.6602C18.9023 10.5798 18.8571 10.4708 18.8571 10.3571V9.5ZM17.1429 9.5C17.1429 9.38634 17.188 9.27733 17.2684 9.19695C17.3488 9.11658 17.4578 9.07143 17.5714 9.07143C17.6851 9.07143 17.7941 9.11658 17.8745 9.19695C17.9548 9.27733 18 9.38634 18 9.5V10.3571C18 10.4708 17.9548 10.5798 17.8745 10.6602C17.7941 10.7406 17.6851 10.7857 17.5714 10.7857C17.4578 10.7857 17.3488 10.7406 17.2684 10.6602C17.188 10.5798 17.1429 10.4708 17.1429 10.3571V9.5ZM15.4286 9.5C15.4286 9.38634 15.4737 9.27733 15.5541 9.19695C15.6345 9.11658 15.7435 9.07143 15.8571 9.07143C15.9708 9.07143 16.0798 9.11658 16.1602 9.19695C16.2406 9.27733 16.2857 9.38634 16.2857 9.5V10.3571C16.2857 10.4708 16.2406 10.5798 16.1602 10.6602C16.0798 10.7406 15.9708 10.7857 15.8571 10.7857C15.7435 10.7857 15.6345 10.7406 15.5541 10.6602C15.4737 10.5798 15.4286 10.4708 15.4286 10.3571V9.5ZM21.4286 1.35714H9.42857V6.5H24V3.92857C24 2.51086 22.8463 1.35714 21.4286 1.35714ZM16.2857 4.35714C16.2857 4.47081 16.2406 4.57982 16.1602 4.66019C16.0798 4.74056 15.9708 4.78571 15.8571 4.78571C15.7435 4.78571 15.6345 4.74056 15.5541 4.66019C15.4737 4.57982 15.4286 4.47081 15.4286 4.35714V3.5C15.4286 3.38634 15.4737 3.27733 15.5541 3.19695C15.6345 3.11658 15.7435 3.07143 15.8571 3.07143C15.9708 3.07143 16.0798 3.11658 16.1602 3.19695C16.2406 3.27733 16.2857 3.38634 16.2857 3.5V4.35714ZM18 4.35714C18 4.47081 17.9548 4.57982 17.8745 4.66019C17.7941 4.74056 17.6851 4.78571 17.5714 4.78571C17.4578 4.78571 17.3488 4.74056 17.2684 4.66019C17.188 4.57982 17.1429 4.47081 17.1429 4.35714V3.5C17.1429 3.38634 17.188 3.27733 17.2684 3.19695C17.3488 3.11658 17.4578 3.07143 17.5714 3.07143C17.6851 3.07143 17.7941 3.11658 17.8745 3.19695C17.9548 3.27733 18 3.38634 18 3.5V4.35714ZM19.7143 4.35714C19.7143 4.47081 19.6691 4.57982 19.5888 4.66019C19.5084 4.74056 19.3994 4.78571 19.2857 4.78571C19.1721 4.78571 19.063 4.74056 18.9827 4.66019C18.9023 4.57982 18.8571 4.47081 18.8571 4.35714V3.5C18.8571 3.38634 18.9023 3.27733 18.9827 3.19695C19.063 3.11658 19.1721 3.07143 19.2857 3.07143C19.3994 3.07143 19.5084 3.11658 19.5888 3.19695C19.6691 3.27733 19.7143 3.38634 19.7143 3.5V4.35714ZM21.4286 4.35714C21.4286 4.47081 21.3834 4.57982 21.303 4.66019C21.2227 4.74056 21.1137 4.78571 21 4.78571C20.8863 4.78571 20.7773 4.74056 20.697 4.66019C20.6166 4.57982 20.5714 4.47081 20.5714 4.35714V3.5C20.5714 3.38634 20.6166 3.27733 20.697 3.19695C20.7773 3.11658 20.8863 3.07143 21 3.07143C21.1137 3.07143 21.2227 3.11658 21.303 3.19695C21.3834 3.27733 21.4286 3.38634 21.4286 3.5V4.35714ZM8.57143 1.35714C8.57143 1.12981 8.48112 0.911797 8.32038 0.751051C8.15963 0.590306 7.94161 0.5 7.71429 0.5H0.857143C0.629814 0.5 0.411797 0.590306 0.251051 0.751051C0.0903058 0.911797 0 1.12981 0 1.35714V3.07143H8.57143V1.35714ZM0 3.92857H8.57143V6.5H0V3.92857ZM0 7.35714H8.57143V9.92857H0V7.35714ZM8.57143 12.5V10.7857H0V12.5C0 12.7273 0.0903058 12.9453 0.251051 13.1061C0.411797 13.2668 0.629814 13.3571 0.857143 13.3571H7.71429C7.94161 13.3571 8.15963 13.2668 8.32038 13.1061C8.48112 12.9453 8.57143 12.7273 8.57143 12.5Z" fill="white"/>
</svg>
