<svg width="24" height="23" viewBox="0 0 24 23" fill="none" xmlns="http://www.w3.org/2000/svg">
<path d="M5.83097 9.95264C5.39222 9.95264 5.02186 10.4359 5.02186 11.0073C5.02186 11.5792 5.39217 12.0625 5.83097 12.0625C6.26972 12.0625 6.6405 11.5792 6.6405 11.0073C6.6405 10.4359 6.26972 9.95264 5.83097 9.95264ZM12.9262 15.5303C12.4874 15.5303 12.117 16.0136 12.117 16.5854C12.117 17.1569 12.4874 17.6401 12.9262 17.6401C13.3649 17.6401 13.7357 17.1569 13.7357 16.5854C13.7357 16.0136 13.3649 15.5303 12.9262 15.5303Z" fill="white"/>
<path d="M17.5243 6.98555C10.3954 0.425953 10.76 0.6765 10.1932 0.456329C9.3878 0.136829 8.42939 0.303891 7.76737 0.912891L1.1677 6.98555C0.425625 7.66805 0 8.6393 0 9.65086V20.4045C0 21.6715 1.02567 22.7027 2.28614 22.7027H16.4053C17.6658 22.7027 18.6915 21.6715 18.6915 20.4045V9.65086C18.6915 8.6393 18.2658 7.66805 17.5243 6.98555ZM8.66555 4.68023C8.70816 4.27158 9.08297 3.98138 9.50231 4.06008C9.90338 4.1437 10.1293 4.52855 10.0545 4.88695C9.97505 5.2688 9.61584 5.51203 9.22762 5.43914C8.85684 5.3618 8.63053 5.02495 8.66555 4.68023ZM3.61556 11.0074C3.61556 9.65039 4.60936 8.54649 5.83097 8.54649C7.05305 8.54649 8.0468 9.65039 8.0468 11.0074C8.0468 12.3645 7.053 13.4688 5.83097 13.4688C4.60936 13.4688 3.61556 12.3645 3.61556 11.0074ZM7.64648 18.4915C7.14961 18.4915 6.80283 17.982 6.99867 17.516L10.4216 9.35789C10.572 8.99977 10.9841 8.83102 11.3422 8.98149C11.7003 9.13149 11.8686 9.54399 11.7186 9.90211L8.29523 18.0602C8.18227 18.3293 7.92164 18.4915 7.64648 18.4915ZM12.9262 19.0465C11.7045 19.0465 10.7108 17.9426 10.7108 16.5855C10.7108 15.2285 11.7046 14.1241 12.9262 14.1241C14.1478 14.1241 15.142 15.2285 15.142 16.5855C15.142 17.9426 14.1478 19.0465 12.9262 19.0465Z" fill="white"/>
<path d="M23.8235 14.7078C21.5341 8.04341 20.2626 4.33803 20.2445 4.29594C19.8465 3.37437 19.0731 2.65766 18.1234 2.33C18.0689 2.31148 18.3904 2.38958 13.2909 1.17969L18.4759 5.95062C19.5067 6.89844 20.0978 8.24703 20.0978 9.65094V18.7634L22.6273 17.6806C23.7715 17.1856 24.3035 15.8567 23.8235 14.7078Z" fill="white"/>
</svg>
