<svg width="24" height="24" viewBox="0 0 24 24" fill="none" xmlns="http://www.w3.org/2000/svg">
<path d="M2.76884 23.1111C2.76884 23.3469 2.86609 23.573 3.03921 23.7397C3.21233 23.9064 3.44713 24 3.69196 24H20.3081C20.5529 24 20.7877 23.9064 20.9609 23.7397C21.134 23.573 21.2312 23.3469 21.2312 23.1111V20.4446H2.76884V23.1111ZM23.6378 5.51619C23.5003 5.41556 23.3364 5.35392 23.1645 5.33822C22.9926 5.32251 22.8195 5.35337 22.6648 5.4273L16.1772 8.55075L12.8576 0.55991C12.7893 0.394678 12.671 0.252993 12.5181 0.153176C12.3652 0.0533586 12.1848 0 12 0C11.8153 0 11.6349 0.0533586 11.482 0.153176C11.3291 0.252993 11.2108 0.394678 11.1425 0.55991L7.82292 8.55075L1.33523 5.4273C1.18065 5.35304 1.00754 5.32204 0.835571 5.33781C0.663602 5.35359 0.499681 5.41551 0.362447 5.51654C0.225213 5.61757 0.120173 5.75364 0.0592712 5.9093C-0.00163088 6.06495 -0.0159511 6.23394 0.0179389 6.39704L2.56575 18.6668H21.4343L23.9821 6.39704C24.0159 6.23404 24.0016 6.06517 23.9407 5.90963C23.8799 5.75408 23.7749 5.61808 23.6378 5.51708V5.51619ZM12 15.1114C11.452 15.0462 10.9521 14.7774 10.6072 14.3622C10.2622 13.947 10.0995 13.4184 10.1538 12.8893C10.0995 12.3601 10.2622 11.8315 10.6072 11.4164C10.9521 11.0012 11.452 10.7323 12 10.6671C12.5481 10.7323 13.0479 11.0012 13.3929 11.4164C13.7378 11.8315 13.9006 12.3601 13.8463 12.8893C13.9006 13.4184 13.7378 13.947 13.3929 14.3622C13.0479 14.7774 12.5481 15.0462 12 15.1114Z" fill="white"/>
</svg>
