<svg width="24" height="20" viewBox="0 0 24 20" fill="none" xmlns="http://www.w3.org/2000/svg">
<path fill-rule="evenodd" clip-rule="evenodd" d="M12.309 0.0053154C10.3343 -0.0609492 8.38851 0.493745 6.7456 1.59132C4.89836 2.8263 3.54552 4.67287 2.92484 6.80647C2.75676 6.78595 2.55549 6.795 2.31651 6.86259C1.42423 7.11606 0.75344 7.8469 0.45169 8.49084C0.0600178 9.33001 -0.10504 10.4401 0.0690702 11.5856C0.241973 12.7277 0.724472 13.6692 1.32797 14.2537C1.93328 14.8385 2.61675 15.0286 3.29569 14.8858C4.30655 14.6701 4.80776 14.5086 4.66624 13.5672L3.98126 9.0017C4.05083 7.75913 4.40834 6.54975 5.02555 5.46907C5.64277 4.38839 6.50279 3.46601 7.53769 2.77478C8.93241 1.84172 10.5846 1.36946 12.2617 1.42446C13.9389 1.47945 15.5565 2.05893 16.8871 3.08136C17.8058 3.7857 18.5612 4.68043 19.1016 5.70416C19.642 6.72789 19.9545 7.8564 20.0178 9.01226L19.5386 12.2057C19.0187 13.6309 18.1054 14.8795 16.9046 15.8067C15.7038 16.7339 14.2647 17.3016 12.7544 17.4441H10.7127C10.5878 17.4438 10.464 17.4682 10.3485 17.5159C10.2331 17.5635 10.1281 17.6335 10.0398 17.7218C9.9514 17.8101 9.88134 17.915 9.8336 18.0305C9.78587 18.1459 9.7614 18.2697 9.7616 18.3946V18.8961C9.76136 19.0211 9.7858 19.1448 9.83351 19.2603C9.88123 19.3758 9.95129 19.4807 10.0397 19.5691C10.128 19.6574 10.233 19.7274 10.3485 19.7751C10.464 19.8228 10.5878 19.8472 10.7127 19.8469H13.2869C13.4118 19.8471 13.5354 19.8227 13.6507 19.7749C13.766 19.7272 13.8708 19.6572 13.959 19.5689C14.0472 19.4805 14.117 19.3757 14.1646 19.2603C14.2121 19.1449 14.2363 19.0212 14.236 18.8964V18.6339C16.5488 18.0676 18.5637 16.6514 19.8799 14.6671L20.7046 14.8858C21.3757 15.0599 22.0673 14.8382 22.6723 14.2537C23.2758 13.6689 23.758 12.7277 23.9312 11.5856C24.1062 10.4398 23.936 9.33182 23.5492 8.49084C23.1608 7.64986 22.5824 7.11576 21.9146 6.92415C21.6349 6.84358 21.3313 6.81401 21.0709 6.80647C20.5104 4.8768 19.3486 3.1764 17.7547 1.95281C16.1878 0.749992 14.2832 0.0688631 12.309 0.0053154Z" fill="white"/>
<path fill-rule="evenodd" clip-rule="evenodd" d="M15.3222 8.21865C15.6492 8.21904 15.9627 8.34915 16.1939 8.58041C16.4251 8.81166 16.5552 9.12519 16.5555 9.4522C16.5549 9.77919 16.4248 10.0926 16.1936 10.3238C15.9624 10.5551 15.6489 10.6852 15.3219 10.6858C14.9946 10.6858 14.6806 10.556 14.4489 10.3247C14.2173 10.0934 14.087 9.77955 14.0866 9.4522C14.0866 9.29006 14.1187 9.12953 14.1808 8.97977C14.2429 8.83001 14.3339 8.69395 14.4487 8.57938C14.5634 8.4648 14.6995 8.37394 14.8494 8.31199C14.9992 8.25005 15.1598 8.21823 15.3219 8.21834L15.3222 8.21865ZM12 8.21865C12.2439 8.21876 12.4823 8.29121 12.6851 8.42681C12.8879 8.56241 13.0459 8.75509 13.1392 8.98049C13.2324 9.20588 13.2568 9.45388 13.2092 9.69311C13.1615 9.93235 13.044 10.1521 12.8715 10.3246C12.699 10.497 12.4792 10.6145 12.24 10.6621C12.0007 10.7096 11.7527 10.6852 11.5274 10.5919C11.302 10.4986 11.1094 10.3405 10.9738 10.1377C10.8382 9.93488 10.7659 9.69644 10.7658 9.4525C10.7656 9.29039 10.7975 9.12983 10.8594 8.98002C10.9214 8.83022 11.0123 8.6941 11.1269 8.57947C11.2416 8.46483 11.3777 8.37393 11.5275 8.31196C11.6773 8.25 11.8378 8.21849 12 8.21865ZM8.67859 8.21865C8.84288 8.21501 9.00624 8.24423 9.15908 8.30459C9.31193 8.36495 9.45117 8.45523 9.56865 8.57014C9.68613 8.68504 9.77946 8.82226 9.84319 8.97373C9.90691 9.1252 9.93974 9.28787 9.93974 9.4522C9.93974 9.61653 9.90691 9.7792 9.84319 9.93067C9.77946 10.0821 9.68613 10.2194 9.56865 10.3343C9.45117 10.4492 9.31193 10.5395 9.15908 10.5998C9.00624 10.6602 8.84288 10.6894 8.67859 10.6858C8.35474 10.6807 8.04586 10.5485 7.81863 10.3177C7.59139 10.0869 7.46403 9.77595 7.46403 9.45205C7.46403 9.12815 7.59139 8.81724 7.81863 8.58643C8.04586 8.35562 8.35474 8.22371 8.67859 8.21865ZM12 2.9187C8.38197 2.9187 5.46646 5.73826 5.46646 9.4519C5.46646 11.2355 6.14087 12.8119 7.23955 13.9685L6.84968 15.7162C6.72114 16.2914 7.12005 16.6782 7.63725 16.3903L9.34365 15.4383C10.1821 15.8013 11.0863 15.9877 12 15.9857C15.6192 15.9857 18.5329 13.168 18.5329 9.4528C18.5329 5.73886 15.6192 2.9193 12 2.9193V2.9187Z" fill="white"/>
</svg>
