<svg width="24" height="25" viewBox="0 0 24 25" fill="none" xmlns="http://www.w3.org/2000/svg">
<path fill-rule="evenodd" clip-rule="evenodd" d="M3.27273 0.5C2.40475 0.5 1.57232 0.844804 0.95856 1.45856C0.344804 2.07232 0 2.90475 0 3.77273V21.2273C0 22.0953 0.344804 22.9277 0.95856 23.5414C1.57232 24.1552 2.40475 24.5 3.27273 24.5H20.7273C21.5953 24.5 22.4277 24.1552 23.0414 23.5414C23.6552 22.9277 24 22.0953 24 21.2273V3.77273C24 2.90475 23.6552 2.07232 23.0414 1.45856C22.4277 0.844804 21.5953 0.5 20.7273 0.5H3.27273ZM16.3636 8.13636C16.3636 9.29367 15.9039 10.4036 15.0856 11.2219C14.2672 12.0403 13.1573 12.5 12 12.5C10.8427 12.5 9.73278 12.0403 8.91444 11.2219C8.0961 10.4036 7.63636 9.29367 7.63636 8.13636C7.63636 6.97906 8.0961 5.86915 8.91444 5.05081C9.73278 4.23247 10.8427 3.77273 12 3.77273C13.1573 3.77273 14.2672 4.23247 15.0856 5.05081C15.9039 5.86915 16.3636 6.97906 16.3636 8.13636ZM19.6364 21.2273C19.6364 20.2245 19.4388 19.2315 19.0551 18.305C18.6713 17.3785 18.1088 16.5367 17.3997 15.8275C16.6906 15.1184 15.8488 14.556 14.9223 14.1722C13.9958 13.7884 13.0028 13.5909 12 13.5909C10.9972 13.5909 10.0042 13.7884 9.07769 14.1722C8.1512 14.556 7.30938 15.1184 6.60028 15.8275C5.89117 16.5367 5.32868 17.3785 4.94492 18.305C4.56116 19.2315 4.36364 20.2245 4.36364 21.2273H19.6364Z" fill="white"/>
</svg>
