<svg width="20" height="4" viewBox="0 0 20 4" fill="none" xmlns="http://www.w3.org/2000/svg">
<path d="M2.00007 -0.000147343C3.10468 -0.000147343 4.00015 0.895317 4.00015 1.99993C4.00015 3.10454 3.10468 4 2.00007 4C0.895463 4 0 3.10454 0 1.99993C0 0.895317 0.895463 -0.000147343 2.00007 -0.000147343Z" fill="#2C7CAC"/>
<path d="M10.0001 -0.000147343C11.1047 -0.000147343 12.0001 0.895317 12.0001 1.99993C12.0001 3.10454 11.1047 4 10.0001 4C8.89546 4 8 3.10454 8 1.99993C8 0.895317 8.89546 -0.000147343 10.0001 -0.000147343Z" fill="#2C7CAC"/>
<path d="M18.0006 -0.000147343C19.1052 -0.000147343 20.0006 0.895317 20.0006 1.99993C20.0006 3.10454 19.1052 4 18.0006 4C16.896 4 16.0005 3.10454 16.0005 1.99993C16.0005 0.895317 16.896 -0.000147343 18.0006 -0.000147343Z" fill="#2C7CAC"/>
</svg>
