<svg width="16" height="16" viewBox="0 0 16 16" fill="none" xmlns="http://www.w3.org/2000/svg">
<path d="M2.77254 3.16049C2.77254 2.53541 2.9579 1.92436 3.30518 1.40462C3.65246 0.884878 4.14606 0.47979 4.72357 0.24058C5.30107 0.00136938 5.93654 -0.0612189 6.54962 0.0607294C7.16269 0.182678 7.72584 0.483685 8.16784 0.925688C8.60985 1.36769 8.91085 1.93084 9.0328 2.54391C9.15475 3.15699 9.09216 3.79246 8.85295 4.36996C8.61374 4.94747 8.20865 5.44107 7.68891 5.78835C7.16917 6.13563 6.55812 6.32099 5.93304 6.32099C5.09482 6.32099 4.29094 5.98801 3.69823 5.3953C3.10552 4.80259 2.77254 3.99871 2.77254 3.16049ZM7.30864 12.2469C7.30748 11.5286 7.46396 10.8188 7.76704 10.1676C8.07012 9.51642 8.51242 8.93965 9.06272 8.47802C9.10655 8.4337 9.13196 8.37441 9.13383 8.3121C9.13383 8.15407 8.93472 8.08533 8.89679 8.07506C8.44287 7.95646 7.97533 7.89801 7.50617 7.90123H4.34568C1.13778 7.90123 0 10.2479 0 12.2627C0 14.0642 0.956049 15.0123 2.76543 15.0123H7.73531C7.79909 15.0132 7.8606 14.9887 7.90637 14.9443C7.95213 14.8998 7.97842 14.8391 7.97946 14.7753C7.98162 14.7391 7.97369 14.703 7.95654 14.671C7.53304 13.9332 7.30969 13.0976 7.30864 12.2469ZM16 12.2469C16 12.9892 15.7799 13.7148 15.3675 14.332C14.9551 14.9492 14.3689 15.4302 13.6832 15.7143C12.9974 15.9984 12.2428 16.0727 11.5147 15.9279C10.7867 15.7831 10.118 15.4256 9.59308 14.9007C9.0682 14.3759 8.71076 13.7071 8.56594 12.9791C8.42113 12.2511 8.49545 11.4965 8.77951 10.8107C9.06358 10.1249 9.54462 9.53873 10.1618 9.12634C10.779 8.71394 11.5046 8.49383 12.2469 8.49383C13.2419 8.49508 14.1958 8.8909 14.8994 9.59447C15.6029 10.298 15.9987 11.2519 16 12.2469ZM10.0678 13.5901L13.5901 10.0678C13.1001 9.75953 12.5199 9.62689 11.9446 9.69157C11.3694 9.75625 10.8331 10.0144 10.4238 10.4238C10.0144 10.8331 9.75625 11.3694 9.69157 11.9446C9.62689 12.5199 9.75953 13.1001 10.0678 13.5901ZM14.8148 12.2469C14.8135 11.7716 14.6788 11.3062 14.4261 10.9037L10.9037 14.4261C11.2914 14.6691 11.7372 14.8035 12.1945 14.8153C12.6519 14.8271 13.104 14.7158 13.5037 14.4931C13.9034 14.2704 14.2359 13.9445 14.4665 13.5494C14.6972 13.1542 14.8175 12.7044 14.8148 12.2469Z" fill="#5A9FC9"/>
</svg>
