<svg width="124" height="124" viewBox="0 0 124 124" fill="none" xmlns="http://www.w3.org/2000/svg">
<path d="M21.4872 24.4938C21.4872 19.6494 22.9237 14.9138 25.6152 10.8858C28.3066 6.85781 32.132 3.71837 36.6077 1.86449C41.0833 0.0106127 46.0082 -0.474447 50.7595 0.470653C55.5109 1.41575 59.8753 3.74856 63.3008 7.17409C66.7263 10.5996 69.0591 14.964 70.0042 19.7153C70.9493 24.4667 70.4643 29.3916 68.6104 33.8672C66.7565 38.3429 63.6171 42.1683 59.5891 44.8597C55.5611 47.5511 50.8255 48.9877 45.981 48.9877C39.4849 48.9877 33.2548 46.4071 28.6613 41.8136C24.0678 37.2201 21.4872 30.99 21.4872 24.4938ZM56.642 94.9136C56.633 89.3469 57.8457 83.846 60.1946 78.7991C62.5434 73.7523 65.9712 69.2823 70.2361 65.7047C70.5757 65.3611 70.7727 64.9017 70.7872 64.4188C70.7872 63.1941 69.244 62.6613 68.9501 62.5817C65.4322 61.6625 61.8088 61.2096 58.1728 61.2346H33.679C8.81778 61.2346 0 79.4212 0 95.036C0 108.998 7.40938 116.346 21.4321 116.346H59.9486C60.4429 116.352 60.9197 116.163 61.2744 115.818C61.629 115.474 61.8327 115.003 61.8408 114.509C61.8576 114.228 61.7961 113.948 61.6632 113.7C58.3811 107.983 56.6501 101.506 56.642 94.9136ZM124 94.9136C124 100.666 122.294 106.29 119.098 111.073C115.902 115.856 111.359 119.584 106.044 121.786C100.73 123.987 94.8813 124.563 89.2391 123.441C83.5969 122.319 78.4142 119.549 74.3464 115.481C70.2786 111.413 67.5084 106.23 66.386 100.588C65.2637 94.9458 65.8398 89.0975 68.0412 83.7827C70.2427 78.4678 73.9708 73.9252 78.754 70.7291C83.5373 67.533 89.1608 65.8272 94.9136 65.8272C102.625 65.8369 110.017 68.9045 115.47 74.3571C120.923 79.8098 123.99 87.2024 124 94.9136ZM78.0251 105.323L105.323 78.0251C101.526 75.6363 97.0293 74.6084 92.5709 75.1096C88.1125 75.6109 83.9566 77.6117 80.7841 80.7841C77.6117 83.9566 75.6109 88.1125 75.1096 92.5709C74.6084 97.0293 75.6363 101.526 78.0251 105.323ZM114.815 94.9136C114.805 91.23 113.761 87.6232 111.802 84.5037L84.5037 111.802C87.508 113.685 90.963 114.727 94.5076 114.818C98.0522 114.91 101.556 114.048 104.654 112.322C107.751 110.596 110.328 108.07 112.116 105.008C113.903 101.945 114.835 98.4593 114.815 94.9136Z" fill="#2C7CAC"/>
</svg>
