<svg width="101" height="124" viewBox="0 0 101 124" fill="none" xmlns="http://www.w3.org/2000/svg">
<path d="M91.0625 15.5H69.75V11.625C69.75 5.20461 64.5454 0 58.125 0H42.625C36.2046 0 31 5.20461 31 11.625V15.5H9.6875C4.33734 15.5 0 19.8373 0 25.1875V32.9375C0 35.0777 1.73479 36.8125 3.875 36.8125H96.875C99.0152 36.8125 100.75 35.0777 100.75 32.9375V25.1875C100.75 19.8373 96.4127 15.5 91.0625 15.5ZM38.75 11.625C38.75 9.48891 40.4889 7.75 42.625 7.75H58.125C60.2611 7.75 62 9.48891 62 11.625V15.5H38.75V11.625ZM7.35378 44.5625C7.18991 44.5625 7.02775 44.5958 6.87711 44.6603C6.72648 44.7248 6.59051 44.8192 6.47743 44.9378C6.36435 45.0564 6.27652 45.1968 6.21926 45.3503C6.162 45.5038 6.1365 45.6674 6.1443 45.8311L9.34117 112.927C9.63664 119.137 14.7371 124 20.9516 124H79.7984C86.0129 124 91.1134 119.137 91.4088 112.927L94.6057 45.8311C94.6135 45.6674 94.588 45.5038 94.5307 45.3503C94.4735 45.1968 94.3857 45.0564 94.2726 44.9378C94.1595 44.8192 94.0235 44.7248 93.8729 44.6603C93.7222 44.5958 93.5601 44.5625 93.3962 44.5625H7.35378ZM65.875 54.25C65.875 52.1091 67.6091 50.375 69.75 50.375C71.8909 50.375 73.625 52.1091 73.625 54.25V104.625C73.625 106.766 71.8909 108.5 69.75 108.5C67.6091 108.5 65.875 106.766 65.875 104.625V54.25ZM46.5 54.25C46.5 52.1091 48.2341 50.375 50.375 50.375C52.5159 50.375 54.25 52.1091 54.25 54.25V104.625C54.25 106.766 52.5159 108.5 50.375 108.5C48.2341 108.5 46.5 106.766 46.5 104.625V54.25ZM27.125 54.25C27.125 52.1091 28.8591 50.375 31 50.375C33.1409 50.375 34.875 52.1091 34.875 54.25V104.625C34.875 106.766 33.1409 108.5 31 108.5C28.8591 108.5 27.125 106.766 27.125 104.625V54.25Z" fill="#2C7CAC"/>
</svg>
