<svg width="14" height="16" viewBox="0 0 14 16" fill="none" xmlns="http://www.w3.org/2000/svg">
<path d="M12.25 2H9.5V1.5C9.5 0.671562 8.82844 0 8 0H6C5.17156 0 4.5 0.671562 4.5 1.5V2H1.75C1.05966 2 0.5 2.55966 0.5 3.25V4.25C0.5 4.52616 0.723844 4.75 1 4.75H13C13.2762 4.75 13.5 4.52616 13.5 4.25V3.25C13.5 2.55966 12.9403 2 12.25 2ZM5.5 1.5C5.5 1.22438 5.72437 1 6 1H8C8.27563 1 8.5 1.22438 8.5 1.5V2H5.5V1.5ZM1.44887 5.75C1.42773 5.75 1.40681 5.75429 1.38737 5.76262C1.36793 5.77094 1.35039 5.78313 1.3358 5.79843C1.32121 5.81373 1.30987 5.83184 1.30249 5.85165C1.2951 5.87146 1.29181 5.89257 1.29281 5.91369L1.70531 14.5712C1.74344 15.3725 2.40156 16 3.20344 16H10.7966C11.5984 16 12.2566 15.3725 12.2947 14.5712L12.7072 5.91369C12.7082 5.89257 12.7049 5.87146 12.6975 5.85165C12.6901 5.83184 12.6788 5.81373 12.6642 5.79843C12.6496 5.78313 12.6321 5.77094 12.6126 5.76262C12.5932 5.75429 12.5723 5.75 12.5511 5.75H1.44887ZM9 7C9 6.72375 9.22375 6.5 9.5 6.5C9.77625 6.5 10 6.72375 10 7V13.5C10 13.7762 9.77625 14 9.5 14C9.22375 14 9 13.7762 9 13.5V7ZM6.5 7C6.5 6.72375 6.72375 6.5 7 6.5C7.27625 6.5 7.5 6.72375 7.5 7V13.5C7.5 13.7762 7.27625 14 7 14C6.72375 14 6.5 13.7762 6.5 13.5V7ZM4 7C4 6.72375 4.22375 6.5 4.5 6.5C4.77625 6.5 5 6.72375 5 7V13.5C5 13.7762 4.77625 14 4.5 14C4.22375 14 4 13.7762 4 13.5V7Z" fill="#5A9FC9"/>
</svg>
