<svg width="16" height="16" viewBox="0 0 16 16" fill="none" xmlns="http://www.w3.org/2000/svg">
<path d="M7.99973 0C3.58165 0 0 3.58192 0 7.99984C0 12.4178 3.58165 16 7.99973 16C12.4178 16 15.9999 12.418 15.9999 7.99984C15.9999 3.58171 12.4178 0 7.99973 0ZM11.8027 5.75707L11.0429 6.51691L9.49616 4.97029L8.90939 5.55707L10.4561 7.10379L6.6624 10.8972L5.11579 9.35072L4.52901 9.93749L6.07563 11.4841L5.6976 11.8621L5.6904 11.8549C5.66949 11.8895 5.64177 11.9196 5.60894 11.9432C5.57611 11.9668 5.53883 11.9835 5.49936 11.9923L4.05707 12.3139C4.00781 12.3249 3.95657 12.3233 3.90811 12.3092C3.85965 12.2951 3.81554 12.269 3.77989 12.2332C3.74413 12.1975 3.71797 12.1534 3.70387 12.1049C3.68977 12.0563 3.68818 12.005 3.69925 11.9557L4.02069 10.5139C4.02957 10.4744 4.04632 10.4371 4.06994 10.4043C4.09357 10.3715 4.12359 10.3438 4.15819 10.3228L4.15088 10.3155L10.2559 4.21019C10.299 4.16725 10.3574 4.14316 10.4182 4.14321C10.479 4.14326 10.5373 4.16745 10.5803 4.21045L11.8028 5.43269C11.8458 5.47573 11.8699 5.53408 11.8699 5.5949C11.8699 5.65573 11.8457 5.71406 11.8027 5.75707Z" fill="#5A9FC9"/>
</svg>
