<svg width="28" height="28" viewBox="0 0 28 28" fill="none" xmlns="http://www.w3.org/2000/svg">
<path d="M14 28C21.732 28 28 21.732 28 14C28 6.26801 21.732 0 14 0C6.26801 0 0 6.26801 0 14C0 21.732 6.26801 28 14 28Z" fill="#5A9FC9"/>
<path d="M8.0477 16.7056C8.0477 17.9009 7.07848 18.8701 5.88323 18.8701C4.68798 18.8701 3.71875 17.9009 3.71875 16.7056C3.71875 15.5104 4.68798 14.5411 5.88323 14.5411H8.0477V16.7056ZM9.12991 16.7056C9.12991 15.5104 10.0991 14.5411 11.2944 14.5411C12.4896 14.5411 13.4589 15.5104 13.4589 16.7056V22.1168C13.4589 23.312 12.4896 24.2812 11.2944 24.2812C10.0991 24.2812 9.12991 23.312 9.12991 22.1168V16.7056ZM11.2944 8.0477C10.0991 8.0477 9.12991 7.07848 9.12991 5.88323C9.12991 4.68798 10.0991 3.71875 11.2944 3.71875C12.4896 3.71875 13.4589 4.68798 13.4589 5.88323V8.0477H11.2944ZM11.2944 9.12991C12.4896 9.12991 13.4589 10.0991 13.4589 11.2944C13.4589 12.4896 12.4896 13.4589 11.2944 13.4589H5.88323C4.68798 13.4589 3.71875 12.4897 3.71875 11.2944C3.71875 10.0991 4.68798 9.12991 5.88323 9.12991H11.2944ZM19.9523 11.2944C19.9523 10.0991 20.9215 9.12991 22.1168 9.12991C23.312 9.12991 24.2812 10.0991 24.2812 11.2944C24.2812 12.4896 23.312 13.4589 22.1168 13.4589H19.9523V11.2944ZM18.8701 11.2944C18.8701 12.4896 17.9009 13.4589 16.7056 13.4589C15.5104 13.4589 14.5411 12.4896 14.5411 11.2944V5.88323C14.5411 4.68798 15.5104 3.71875 16.7056 3.71875C17.9009 3.71875 18.8701 4.68798 18.8701 5.88323V11.2944ZM16.7056 19.9523C17.9009 19.9523 18.8701 20.9215 18.8701 22.1168C18.8701 23.312 17.9009 24.2812 16.7056 24.2812C15.5104 24.2812 14.5411 23.312 14.5411 22.1168V19.9523H16.7056ZM16.7056 18.8701C15.5104 18.8701 14.5411 17.9009 14.5411 16.7056C14.5411 15.5104 15.5104 14.5411 16.7056 14.5411H22.1168C23.312 14.5411 24.2812 15.5104 24.2812 16.7056C24.2812 17.9009 23.312 18.8701 22.1168 18.8701H16.7056Z" fill="white"/>
</svg>
